<svg width="564" height="200" viewBox="0 0 564 200" fill="none" xmlns="http://www.w3.org/2000/svg">
<g clip-path="url(#clip0_5940_86576)">
<path d="M355.715 43.4072L351.508 23.691C350.758 20.1757 348.571 17.1176 345.427 15.1894C342.284 13.2613 338.441 12.621 334.746 13.4095L292.943 22.3284L291.087 13.6334C292.825 11.3641 293.626 8.46312 293.002 5.53386C292.439 2.89737 290.798 0.603781 288.441 -0.842345C286.083 -2.28847 283.202 -2.76868 280.43 -2.17732C277.658 -1.58596 275.223 0.0285229 273.661 2.31096C272.099 4.59339 271.537 7.35682 272.1 9.99331C272.725 12.9226 274.641 15.2438 277.153 16.6063L279.008 25.3013L237.205 34.2202C233.509 35.0087 230.263 37.1613 228.18 40.2046C226.097 43.2478 225.348 46.9324 226.098 50.4477L230.338 70.3163L229.843 70.4564C228.112 70.9502 226.628 72.0489 225.689 73.531C224.751 75.0131 224.429 76.7684 224.787 78.4433L227.615 91.6978C227.99 93.4555 229.084 94.9845 230.655 95.9486C232.227 96.9127 234.148 97.2328 235.996 96.8386L243.066 129.975C243.816 133.49 246.003 136.548 249.147 138.477C252.29 140.405 256.133 141.045 259.828 140.257L357.369 119.446C361.065 118.657 364.311 116.505 366.394 113.461C368.477 110.418 369.226 106.734 368.476 103.218L361.406 70.0819C363.254 69.6877 364.877 68.6114 365.918 67.0897C366.96 65.5681 367.334 63.7258 366.959 61.9682L364.219 49.1245C364.08 48.0788 363.688 47.0831 363.074 46.2161C360.976 43.2823 357.794 43.1506 355.715 43.4072ZM261.462 70.6186C259.901 63.3021 260.839 53.7669 266.608 52.536C272.377 51.3052 276.404 59.781 277.965 67.0975C279.526 74.414 279.028 82.4786 273.259 83.7094C267.49 84.9402 263.023 77.9351 261.462 70.6186ZM329.728 92.3153C330.319 95.1229 328.59 98.1169 325.958 99.26C320.642 101.569 312.268 105.366 303.61 107.215C293.964 109.274 284.063 109.48 278.838 109.409C276.611 109.378 274.753 107.782 274.288 105.603C273.597 102.363 276.209 99.3135 279.522 99.3122C285.071 99.31 293.369 98.9432 301.476 97.2124C310.145 95.3619 318.516 91.4806 323.827 89.1221C326.45 87.9571 329.136 89.5062 329.728 92.3153ZM322.029 73.3041C316.26 74.5349 312.533 67.3718 310.972 60.0553C309.411 52.7388 309.609 43.3615 315.378 42.1307C321.147 40.8999 325.915 49.2177 327.476 56.5342C329.037 63.8507 327.798 72.0732 322.029 73.3041Z" fill="white"/>
</g>
<g clip-path="url(#clip1_5940_86576)">
<path d="M541.52 53.9273L533.447 46.8256C532.007 45.5594 530.098 44.9461 528.139 45.1207C526.18 45.2954 524.332 46.2436 523.001 47.7568L507.943 64.8731L504.383 61.7411C504.405 60.217 503.825 58.7202 502.626 57.6651C501.546 56.7154 500.114 56.2555 498.645 56.3864C497.176 56.5174 495.789 57.2286 494.791 58.3634C493.793 59.4983 493.264 60.964 493.321 62.438C493.379 63.912 494.018 65.2736 495.097 66.2232C496.296 67.2783 497.855 67.6626 499.364 67.4466L502.924 70.5785L487.867 87.6948C486.535 89.208 485.83 91.1622 485.907 93.1275C485.983 95.0928 486.835 96.9083 488.274 98.1745L496.41 105.331L496.242 105.548C495.659 106.311 495.373 107.253 495.443 108.186C495.512 109.119 495.933 109.973 496.619 110.576L502.046 115.35C502.766 115.983 503.72 116.29 504.7 116.202C505.679 116.115 506.604 115.641 507.269 114.884L520.837 126.82C522.276 128.086 524.185 128.7 526.144 128.525C528.103 128.35 529.952 127.402 531.283 125.889L566.417 85.9509C567.748 84.4377 568.453 82.4835 568.377 80.5182C568.3 78.5529 567.449 76.7374 566.009 75.4712L552.442 63.5355C553.107 62.7789 553.46 61.8018 553.421 60.8192C553.383 59.8365 552.957 58.9288 552.238 58.2957L546.979 53.6694C546.587 53.2659 546.102 52.9643 545.563 52.7887C543.732 52.2 542.328 53.1559 541.52 53.9273ZM509.829 95.5594C506.833 92.924 504.202 88.5437 506.28 86.1816C508.358 83.8196 512.778 86.1666 515.774 88.802C518.769 91.4374 521.122 95.0482 519.044 97.4103C516.966 99.7723 512.825 98.1948 509.829 95.5594ZM545.954 83.1304C547.1 84.1443 547.313 85.9758 546.55 87.3023C545.009 89.982 542.632 94.2713 539.514 97.8168C536.04 101.767 531.867 105.005 529.607 106.637C528.644 107.332 527.341 107.24 526.449 106.455C525.122 105.288 525.27 103.151 526.688 102.097C529.063 100.331 532.498 97.5341 535.418 94.214C538.541 90.664 540.889 86.3398 542.412 83.6407C543.165 82.3073 544.807 82.116 545.954 83.1304ZM536.611 77.4412C534.533 79.8033 530.659 77.9226 527.663 75.2872C524.667 72.6518 521.769 68.5747 523.847 66.2126C525.925 63.8506 530.612 65.8945 533.607 68.5299C536.603 71.1653 538.689 75.0792 536.611 77.4412Z" fill="white"/>
</g>
<g clip-path="url(#clip2_5940_86576)">
<path d="M131.908 157.459L126.059 160.768C125.016 161.358 124.263 162.36 123.964 163.552C123.665 164.744 123.846 166.03 124.466 167.126L131.481 179.528L128.902 180.987C128.007 180.661 127.004 180.696 126.135 181.188C125.353 181.63 124.788 182.381 124.564 183.276C124.339 184.17 124.475 185.134 124.94 185.957C125.405 186.779 126.162 187.392 127.044 187.66C127.926 187.929 128.861 187.831 129.643 187.388C130.512 186.897 131.059 186.056 131.241 185.12L133.82 183.661L140.836 196.062C141.456 197.159 142.465 197.976 143.641 198.334C144.817 198.692 146.063 198.562 147.106 197.972L153 194.637L153.094 194.78C153.424 195.281 153.922 195.644 154.487 195.794C155.052 195.944 155.643 195.871 156.14 195.59L160.072 193.365C160.593 193.07 160.97 192.569 161.119 191.973C161.269 191.377 161.178 190.734 160.868 190.186L170.698 184.625C171.741 184.035 172.495 183.034 172.794 181.841C173.093 180.649 172.912 179.363 172.292 178.267L155.922 149.331C155.302 148.235 154.293 147.417 153.117 147.059C151.941 146.701 150.694 146.832 149.651 147.422L139.821 152.983C139.511 152.435 139.007 152.026 138.419 151.847C137.831 151.668 137.207 151.733 136.686 152.028L132.876 154.184C132.557 154.332 132.28 154.556 132.066 154.839C131.342 155.799 131.619 156.824 131.908 157.459ZM149.985 184.71C147.814 185.938 144.688 186.593 143.72 184.881C142.752 183.17 145.044 181.042 147.215 179.814C149.385 178.586 152 177.938 152.968 179.65C153.936 181.361 152.155 183.482 149.985 184.71ZM150.058 160.833C150.892 160.364 152.017 160.615 152.644 161.337C153.909 162.797 155.954 165.08 157.407 167.648C159.027 170.51 160.082 173.637 160.582 175.306C160.795 176.017 160.473 176.768 159.827 177.133C158.866 177.677 157.635 177.151 157.303 176.098C156.748 174.334 155.801 171.732 154.44 169.327C152.985 166.755 150.914 164.482 149.633 163.029C149 162.311 149.224 161.302 150.058 160.833ZM144.783 165.182C145.751 166.893 143.846 168.794 141.675 170.022C139.505 171.25 136.503 172.125 135.535 170.413C134.567 168.702 136.735 166.354 138.906 165.126C141.076 163.899 143.815 163.47 144.783 165.182Z" fill="white"/>
</g>
<path d="M333.054 102.181C332.364 101.53 332.364 100.475 333.054 99.8241C333.743 99.1732 334.862 99.1732 335.552 99.8241L367.354 129.824C368.044 130.475 368.044 131.53 367.354 132.181C366.664 132.832 365.545 132.832 364.855 132.181L333.054 102.181Z" fill="#4785FF"/>
<path fill-rule="evenodd" clip-rule="evenodd" d="M351.97 106.836C351.97 110.978 355.53 114.336 359.921 114.336C364.312 114.336 367.871 110.978 367.871 106.836C367.871 102.694 364.312 99.3359 359.921 99.3359C355.53 99.3359 351.97 102.694 351.97 106.836ZM364.325 106.836C364.325 109.131 362.353 110.991 359.921 110.991C357.488 110.991 355.516 109.131 355.516 106.836C355.516 104.541 357.488 102.681 359.921 102.681C362.353 102.681 364.325 104.541 364.325 106.836Z" fill="#4785FF"/>
<path fill-rule="evenodd" clip-rule="evenodd" d="M332.537 125.164C332.537 129.306 336.096 132.664 340.487 132.664C344.878 132.664 348.438 129.306 348.438 125.164C348.438 121.022 344.878 117.664 340.487 117.664C336.096 117.664 332.537 121.022 332.537 125.164ZM344.892 125.164C344.892 127.459 342.92 129.319 340.487 129.319C338.054 129.319 336.082 127.459 336.082 125.164C336.082 122.869 338.054 121.009 340.487 121.009C342.92 121.009 344.892 122.869 344.892 125.164Z" fill="#4785FF"/>
<path d="M161.054 175.181C160.364 174.53 160.364 173.475 161.054 172.824C161.743 172.173 162.862 172.173 163.552 172.824L195.354 202.824C196.044 203.475 196.044 204.53 195.354 205.181C194.664 205.832 193.545 205.832 192.855 205.181L161.054 175.181Z" fill="#4785FF"/>
<path fill-rule="evenodd" clip-rule="evenodd" d="M179.97 179.836C179.97 183.978 183.53 187.336 187.921 187.336C192.312 187.336 195.871 183.978 195.871 179.836C195.871 175.694 192.312 172.336 187.921 172.336C183.53 172.336 179.97 175.694 179.97 179.836ZM192.325 179.836C192.325 182.131 190.353 183.991 187.921 183.991C185.488 183.991 183.516 182.131 183.516 179.836C183.516 177.541 185.488 175.681 187.921 175.681C190.353 175.681 192.325 177.541 192.325 179.836Z" fill="#4785FF"/>
<path fill-rule="evenodd" clip-rule="evenodd" d="M160.537 198.164C160.537 202.306 164.096 205.664 168.487 205.664C172.878 205.664 176.438 202.306 176.438 198.164C176.438 194.022 172.878 190.664 168.487 190.664C164.096 190.664 160.537 194.022 160.537 198.164ZM172.892 198.164C172.892 200.459 170.92 202.319 168.487 202.319C166.054 202.319 164.082 200.459 164.082 198.164C164.082 195.869 166.054 194.009 168.487 194.009C170.92 194.009 172.892 195.869 172.892 198.164Z" fill="#4785FF"/>
<path d="M25.0535 185.181C24.3636 184.53 24.3636 183.475 25.0535 182.824C25.7434 182.173 26.8621 182.173 27.5521 182.824L59.3536 212.824C60.0436 213.475 60.0436 214.53 59.3536 215.181C58.6637 215.832 57.545 215.832 56.8551 215.181L25.0535 185.181Z" fill="#4785FF"/>
<path fill-rule="evenodd" clip-rule="evenodd" d="M43.9703 189.836C43.9703 193.978 47.5298 197.336 51.9207 197.336C56.3116 197.336 59.8711 193.978 59.8711 189.836C59.8711 185.694 56.3116 182.336 51.9207 182.336C47.5298 182.336 43.9703 185.694 43.9703 189.836ZM56.3253 189.836C56.3253 192.131 54.3533 193.991 51.9207 193.991C49.4881 193.991 47.5161 192.131 47.5161 189.836C47.5161 187.541 49.4881 185.681 51.9207 185.681C54.3533 185.681 56.3253 187.541 56.3253 189.836Z" fill="#4785FF"/>
<path d="M293.029 111.087C292.684 110.761 292.684 110.234 293.029 109.908C293.374 109.583 293.933 109.583 294.278 109.908L310.179 124.908C310.524 125.234 310.524 125.761 310.179 126.087C309.834 126.412 309.274 126.412 308.929 126.087L293.029 111.087Z" fill="#4785FF"/>
<path fill-rule="evenodd" clip-rule="evenodd" d="M302.487 113.414C302.487 115.485 304.267 117.164 306.462 117.164C308.658 117.164 310.438 115.485 310.438 113.414C310.438 111.343 308.658 109.664 306.462 109.664C304.267 109.664 302.487 111.343 302.487 113.414ZM308.665 113.414C308.665 114.561 307.679 115.492 306.462 115.492C305.246 115.492 304.26 114.561 304.26 113.414C304.26 112.267 305.246 111.337 306.462 111.337C307.679 111.337 308.665 112.267 308.665 113.414Z" fill="#4785FF"/>
<path fill-rule="evenodd" clip-rule="evenodd" d="M292.768 122.586C292.768 124.657 294.548 126.336 296.744 126.336C298.939 126.336 300.719 124.657 300.719 122.586C300.719 120.515 298.939 118.836 296.744 118.836C294.548 118.836 292.768 120.515 292.768 122.586ZM298.946 122.586C298.946 123.733 297.96 124.664 296.744 124.664C295.527 124.664 294.541 123.733 294.541 122.586C294.541 121.439 295.527 120.508 296.744 120.508C297.96 120.508 298.946 121.439 298.946 122.586Z" fill="#4785FF"/>
<path d="M412.11 201.89C408.856 198.636 408.856 193.359 412.11 190.105C415.364 186.85 420.641 186.85 423.895 190.105L573.895 340.105C577.15 343.359 577.15 348.636 573.895 351.89C570.641 355.144 565.364 355.144 562.11 351.89L412.11 201.89Z" fill="#4785FF"/>
<path fill-rule="evenodd" clip-rule="evenodd" d="M501.336 225.164C501.336 245.875 518.125 262.664 538.836 262.664C559.547 262.664 576.336 245.875 576.336 225.164C576.336 204.453 559.547 187.664 538.836 187.664C518.125 187.664 501.336 204.453 501.336 225.164ZM559.612 225.164C559.612 236.638 550.31 245.94 538.836 245.94C527.362 245.94 518.06 236.638 518.06 225.164C518.06 213.69 527.362 204.388 538.836 204.388C550.31 204.388 559.612 213.69 559.612 225.164Z" fill="#4785FF"/>
<path d="M339.025 145.087C338.68 144.761 338.68 144.234 339.025 143.908C339.37 143.583 339.929 143.583 340.274 143.908L356.175 158.908C356.52 159.234 356.52 159.761 356.175 160.087C355.83 160.412 355.271 160.412 354.926 160.087L339.025 145.087Z" fill="#4785FF"/>
<path fill-rule="evenodd" clip-rule="evenodd" d="M348.483 147.414C348.483 149.485 350.263 151.164 352.458 151.164C354.654 151.164 356.434 149.485 356.434 147.414C356.434 145.343 354.654 143.664 352.458 143.664C350.263 143.664 348.483 145.343 348.483 147.414ZM354.661 147.414C354.661 148.561 353.675 149.492 352.458 149.492C351.242 149.492 350.256 148.561 350.256 147.414C350.256 146.267 351.242 145.337 352.458 145.337C353.675 145.337 354.661 146.267 354.661 147.414Z" fill="#4785FF"/>
<path fill-rule="evenodd" clip-rule="evenodd" d="M338.764 156.586C338.764 158.657 340.544 160.336 342.74 160.336C344.935 160.336 346.715 158.657 346.715 156.586C346.715 154.515 344.935 152.836 342.74 152.836C340.544 152.836 338.764 154.515 338.764 156.586ZM344.942 156.586C344.942 157.733 343.956 158.664 342.74 158.664C341.523 158.664 340.537 157.733 340.537 156.586C340.537 155.439 341.523 154.508 342.74 154.508C343.956 154.508 344.942 155.439 344.942 156.586Z" fill="#4785FF"/>
<path d="M451.05 146.181C450.36 145.53 450.36 144.475 451.05 143.824C451.74 143.173 452.858 143.173 453.548 143.824L485.35 173.824C486.04 174.475 486.04 175.53 485.35 176.181C484.66 176.832 483.541 176.832 482.851 176.181L451.05 146.181Z" fill="#4785FF"/>
<path fill-rule="evenodd" clip-rule="evenodd" d="M469.966 150.836C469.966 154.978 473.526 158.336 477.917 158.336C482.308 158.336 485.867 154.978 485.867 150.836C485.867 146.694 482.308 143.336 477.917 143.336C473.526 143.336 469.966 146.694 469.966 150.836ZM482.321 150.836C482.321 153.131 480.349 154.991 477.917 154.991C475.484 154.991 473.512 153.131 473.512 150.836C473.512 148.541 475.484 146.681 477.917 146.681C480.349 146.681 482.321 148.541 482.321 150.836Z" fill="#4785FF"/>
<path fill-rule="evenodd" clip-rule="evenodd" d="M450.533 169.164C450.533 173.306 454.092 176.664 458.483 176.664C462.874 176.664 466.434 173.306 466.434 169.164C466.434 165.022 462.874 161.664 458.483 161.664C454.092 161.664 450.533 165.022 450.533 169.164ZM462.888 169.164C462.888 171.459 460.916 173.319 458.483 173.319C456.051 173.319 454.079 171.459 454.079 169.164C454.079 166.869 456.051 165.009 458.483 165.009C460.916 165.009 462.888 166.869 462.888 169.164Z" fill="#4785FF"/>
<path d="M458.05 98.1811C457.36 97.5302 457.36 96.475 458.05 95.8241C458.74 95.1732 459.858 95.1732 460.548 95.8241L492.35 125.824C493.04 126.475 493.04 127.53 492.35 128.181C491.66 128.832 490.541 128.832 489.851 128.181L458.05 98.1811Z" fill="#4785FF"/>
<path fill-rule="evenodd" clip-rule="evenodd" d="M476.966 102.836C476.966 106.978 480.526 110.336 484.917 110.336C489.308 110.336 492.867 106.978 492.867 102.836C492.867 98.6938 489.308 95.3359 484.917 95.3359C480.526 95.3359 476.966 98.6938 476.966 102.836ZM489.321 102.836C489.321 105.131 487.349 106.991 484.917 106.991C482.484 106.991 480.512 105.131 480.512 102.836C480.512 100.541 482.484 98.6808 484.917 98.6808C487.349 98.6808 489.321 100.541 489.321 102.836Z" fill="#4785FF"/>
<path fill-rule="evenodd" clip-rule="evenodd" d="M457.533 121.164C457.533 125.306 461.092 128.664 465.483 128.664C469.874 128.664 473.434 125.306 473.434 121.164C473.434 117.022 469.874 113.664 465.483 113.664C461.092 113.664 457.533 117.022 457.533 121.164ZM469.888 121.164C469.888 123.459 467.916 125.319 465.483 125.319C463.051 125.319 461.079 123.459 461.079 121.164C461.079 118.869 463.051 117.009 465.483 117.009C467.916 117.009 469.888 118.869 469.888 121.164Z" fill="#4785FF"/>
<path d="M259.029 128.087C258.684 127.761 258.684 127.234 259.029 126.908C259.374 126.583 259.933 126.583 260.278 126.908L276.179 141.908C276.524 142.234 276.524 142.761 276.179 143.087C275.834 143.412 275.274 143.412 274.929 143.087L259.029 128.087Z" fill="#4785FF"/>
<path fill-rule="evenodd" clip-rule="evenodd" d="M268.487 130.414C268.487 132.485 270.267 134.164 272.462 134.164C274.658 134.164 276.438 132.485 276.438 130.414C276.438 128.343 274.658 126.664 272.462 126.664C270.267 126.664 268.487 128.343 268.487 130.414ZM274.665 130.414C274.665 131.561 273.679 132.492 272.462 132.492C271.246 132.492 270.26 131.561 270.26 130.414C270.26 129.267 271.246 128.337 272.462 128.337C273.679 128.337 274.665 129.267 274.665 130.414Z" fill="#4785FF"/>
<path fill-rule="evenodd" clip-rule="evenodd" d="M258.768 139.586C258.768 141.657 260.548 143.336 262.744 143.336C264.939 143.336 266.719 141.657 266.719 139.586C266.719 137.515 264.939 135.836 262.744 135.836C260.548 135.836 258.768 137.515 258.768 139.586ZM264.946 139.586C264.946 140.733 263.96 141.664 262.744 141.664C261.527 141.664 260.541 140.733 260.541 139.586C260.541 138.439 261.527 137.508 262.744 137.508C263.96 137.508 264.946 138.439 264.946 139.586Z" fill="#4785FF"/>
<path d="M183.029 148.087C182.684 147.761 182.684 147.234 183.029 146.908C183.374 146.583 183.933 146.583 184.278 146.908L200.179 161.908C200.524 162.234 200.524 162.761 200.179 163.087C199.834 163.412 199.274 163.412 198.929 163.087L183.029 148.087Z" fill="#4785FF"/>
<path fill-rule="evenodd" clip-rule="evenodd" d="M192.487 150.414C192.487 152.485 194.267 154.164 196.462 154.164C198.658 154.164 200.438 152.485 200.438 150.414C200.438 148.343 198.658 146.664 196.462 146.664C194.267 146.664 192.487 148.343 192.487 150.414ZM198.665 150.414C198.665 151.561 197.679 152.492 196.462 152.492C195.246 152.492 194.26 151.561 194.26 150.414C194.26 149.267 195.246 148.337 196.462 148.337C197.679 148.337 198.665 149.267 198.665 150.414Z" fill="#4785FF"/>
<path fill-rule="evenodd" clip-rule="evenodd" d="M182.768 159.586C182.768 161.657 184.548 163.336 186.744 163.336C188.939 163.336 190.719 161.657 190.719 159.586C190.719 157.515 188.939 155.836 186.744 155.836C184.548 155.836 182.768 157.515 182.768 159.586ZM188.946 159.586C188.946 160.733 187.96 161.664 186.744 161.664C185.527 161.664 184.541 160.733 184.541 159.586C184.541 158.439 185.527 157.508 186.744 157.508C187.96 157.508 188.946 158.439 188.946 159.586Z" fill="#4785FF"/>
<path d="M462.025 188.087C461.68 187.761 461.68 187.234 462.025 186.908C462.37 186.583 462.929 186.583 463.274 186.908L479.175 201.908C479.52 202.234 479.52 202.761 479.175 203.087C478.83 203.412 478.271 203.412 477.926 203.087L462.025 188.087Z" fill="#4785FF"/>
<path fill-rule="evenodd" clip-rule="evenodd" d="M471.483 190.414C471.483 192.485 473.263 194.164 475.458 194.164C477.654 194.164 479.434 192.485 479.434 190.414C479.434 188.343 477.654 186.664 475.458 186.664C473.263 186.664 471.483 188.343 471.483 190.414ZM477.661 190.414C477.661 191.561 476.675 192.492 475.458 192.492C474.242 192.492 473.256 191.561 473.256 190.414C473.256 189.267 474.242 188.337 475.458 188.337C476.675 188.337 477.661 189.267 477.661 190.414Z" fill="#4785FF"/>
<path fill-rule="evenodd" clip-rule="evenodd" d="M461.764 199.586C461.764 201.657 463.544 203.336 465.74 203.336C467.935 203.336 469.715 201.657 469.715 199.586C469.715 197.515 467.935 195.836 465.74 195.836C463.544 195.836 461.764 197.515 461.764 199.586ZM467.942 199.586C467.942 200.733 466.956 201.664 465.74 201.664C464.523 201.664 463.537 200.733 463.537 199.586C463.537 198.439 464.523 197.508 465.74 197.508C466.956 197.508 467.942 198.439 467.942 199.586Z" fill="#4785FF"/>
<path d="M295.054 136.181C294.364 135.53 294.364 134.475 295.054 133.824C295.743 133.173 296.862 133.173 297.552 133.824L329.354 163.824C330.044 164.475 330.044 165.53 329.354 166.181C328.664 166.832 327.545 166.832 326.855 166.181L295.054 136.181Z" fill="#4785FF"/>
<path fill-rule="evenodd" clip-rule="evenodd" d="M313.97 140.836C313.97 144.978 317.53 148.336 321.921 148.336C326.312 148.336 329.871 144.978 329.871 140.836C329.871 136.694 326.312 133.336 321.921 133.336C317.53 133.336 313.97 136.694 313.97 140.836ZM326.325 140.836C326.325 143.131 324.353 144.991 321.921 144.991C319.488 144.991 317.516 143.131 317.516 140.836C317.516 138.541 319.488 136.681 321.921 136.681C324.353 136.681 326.325 138.541 326.325 140.836Z" fill="#4785FF"/>
<path fill-rule="evenodd" clip-rule="evenodd" d="M294.537 159.164C294.537 163.306 298.096 166.664 302.487 166.664C306.878 166.664 310.438 163.306 310.438 159.164C310.438 155.022 306.878 151.664 302.487 151.664C298.096 151.664 294.537 155.022 294.537 159.164ZM306.892 159.164C306.892 161.459 304.92 163.319 302.487 163.319C300.054 163.319 298.082 161.459 298.082 159.164C298.082 156.869 300.054 155.009 302.487 155.009C304.92 155.009 306.892 156.869 306.892 159.164Z" fill="#4785FF"/>
<path d="M276.054 187.181C275.364 186.53 275.364 185.475 276.054 184.824C276.743 184.173 277.862 184.173 278.552 184.824L310.354 214.824C311.044 215.475 311.044 216.53 310.354 217.181C309.664 217.832 308.545 217.832 307.855 217.181L276.054 187.181Z" fill="#4785FF"/>
<path fill-rule="evenodd" clip-rule="evenodd" d="M294.97 191.836C294.97 195.978 298.53 199.336 302.921 199.336C307.312 199.336 310.871 195.978 310.871 191.836C310.871 187.694 307.312 184.336 302.921 184.336C298.53 184.336 294.97 187.694 294.97 191.836ZM307.325 191.836C307.325 194.131 305.353 195.991 302.921 195.991C300.488 195.991 298.516 194.131 298.516 191.836C298.516 189.541 300.488 187.681 302.921 187.681C305.353 187.681 307.325 189.541 307.325 191.836Z" fill="#4785FF"/>
<path d="M494.374 100.449C492.649 98.8217 492.649 96.1835 494.374 94.5563C496.099 92.9291 498.896 92.9291 500.62 94.5563L580.124 169.556C581.849 171.183 581.849 173.822 580.124 175.449C578.399 177.076 575.603 177.076 573.878 175.449L494.374 100.449Z" fill="#4785FF"/>
<path fill-rule="evenodd" clip-rule="evenodd" d="M541.666 112.086C541.666 122.441 550.565 130.836 561.542 130.836C572.519 130.836 581.418 122.441 581.418 112.086C581.418 101.731 572.519 93.3359 561.542 93.3359C550.565 93.3359 541.666 101.731 541.666 112.086ZM572.554 112.086C572.554 117.823 567.624 122.474 561.542 122.474C555.46 122.474 550.53 117.823 550.53 112.086C550.53 106.349 555.46 101.698 561.542 101.698C567.624 101.698 572.554 106.349 572.554 112.086Z" fill="#4785FF"/>
<path fill-rule="evenodd" clip-rule="evenodd" d="M493.08 157.914C493.08 168.269 501.979 176.664 512.956 176.664C523.933 176.664 532.832 168.269 532.832 157.914C532.832 147.559 523.933 139.164 512.956 139.164C501.979 139.164 493.08 147.559 493.08 157.914ZM523.968 157.914C523.968 163.651 519.038 168.302 512.956 168.302C506.874 168.302 501.944 163.651 501.944 157.914C501.944 152.177 506.874 147.526 512.956 147.526C519.038 147.526 523.968 152.177 523.968 157.914Z" fill="#4785FF"/>
<path d="M320.646 175.354C319.344 174.053 319.344 171.942 320.646 170.64C321.947 169.339 324.058 169.339 325.36 170.64L385.36 230.64C386.661 231.942 386.661 234.053 385.36 235.354C384.058 236.656 381.947 236.656 380.646 235.354L320.646 175.354Z" fill="#4785FF"/>
<path fill-rule="evenodd" clip-rule="evenodd" d="M356.336 184.664C356.336 192.948 363.052 199.664 371.336 199.664C379.62 199.664 386.336 192.948 386.336 184.664C386.336 176.38 379.62 169.664 371.336 169.664C363.052 169.664 356.336 176.38 356.336 184.664ZM379.646 184.664C379.646 189.254 375.926 192.974 371.336 192.974C366.746 192.974 363.026 189.254 363.026 184.664C363.026 180.074 366.746 176.354 371.336 176.354C375.926 176.354 379.646 180.074 379.646 184.664Z" fill="#4785FF"/>
<path d="M378.646 97.3544C377.344 96.0527 377.344 93.9421 378.646 92.6404C379.947 91.3386 382.058 91.3386 383.36 92.6404L443.36 152.64C444.661 153.942 444.661 156.053 443.36 157.354C442.058 158.656 439.947 158.656 438.646 157.354L378.646 97.3544Z" fill="#4785FF"/>
<path fill-rule="evenodd" clip-rule="evenodd" d="M414.336 106.664C414.336 114.948 421.052 121.664 429.336 121.664C437.62 121.664 444.336 114.948 444.336 106.664C444.336 98.3798 437.62 91.6641 429.336 91.6641C421.052 91.6641 414.336 98.3798 414.336 106.664ZM437.646 106.664C437.646 111.254 433.926 114.974 429.336 114.974C424.746 114.974 421.026 111.254 421.026 106.664C421.026 102.074 424.746 98.3538 429.336 98.3538C433.926 98.3538 437.646 102.074 437.646 106.664Z" fill="#4785FF"/>
<path fill-rule="evenodd" clip-rule="evenodd" d="M377.672 143.336C377.672 151.62 384.388 158.336 392.672 158.336C400.956 158.336 407.672 151.62 407.672 143.336C407.672 135.052 400.956 128.336 392.672 128.336C384.388 128.336 377.672 135.052 377.672 143.336ZM400.982 143.336C400.982 147.926 397.262 151.646 392.672 151.646C388.082 151.646 384.362 147.926 384.362 143.336C384.362 138.746 388.082 135.026 392.672 135.026C397.262 135.026 400.982 138.746 400.982 143.336Z" fill="#4785FF"/>
<path d="M206.646 159.354C205.344 158.053 205.344 155.942 206.646 154.64C207.947 153.339 210.058 153.339 211.36 154.64L271.36 214.64C272.661 215.942 272.661 218.053 271.36 219.354C270.058 220.656 267.947 220.656 266.646 219.354L206.646 159.354Z" fill="#4785FF"/>
<path fill-rule="evenodd" clip-rule="evenodd" d="M242.336 168.664C242.336 176.948 249.052 183.664 257.336 183.664C265.62 183.664 272.336 176.948 272.336 168.664C272.336 160.38 265.62 153.664 257.336 153.664C249.052 153.664 242.336 160.38 242.336 168.664ZM265.646 168.664C265.646 173.254 261.926 176.974 257.336 176.974C252.746 176.974 249.026 173.254 249.026 168.664C249.026 164.074 252.746 160.354 257.336 160.354C261.926 160.354 265.646 164.074 265.646 168.664Z" fill="#4785FF"/>
<path fill-rule="evenodd" clip-rule="evenodd" d="M205.672 205.336C205.672 213.62 212.388 220.336 220.672 220.336C228.956 220.336 235.672 213.62 235.672 205.336C235.672 197.052 228.956 190.336 220.672 190.336C212.388 190.336 205.672 197.052 205.672 205.336ZM228.982 205.336C228.982 209.926 225.262 213.646 220.672 213.646C216.082 213.646 212.362 209.926 212.362 205.336C212.362 200.746 216.082 197.026 220.672 197.026C225.262 197.026 228.982 200.746 228.982 205.336Z" fill="#4785FF"/>
<path d="M78.6456 194.354C77.3439 193.053 77.3439 190.942 78.6456 189.64C79.9473 188.339 82.0579 188.339 83.3596 189.64L143.36 249.64C144.661 250.942 144.661 253.053 143.36 254.354C142.058 255.656 139.947 255.656 138.646 254.354L78.6456 194.354Z" fill="#4785FF"/>
<path fill-rule="evenodd" clip-rule="evenodd" d="M114.336 203.664C114.336 211.948 121.052 218.664 129.336 218.664C137.62 218.664 144.336 211.948 144.336 203.664C144.336 195.38 137.62 188.664 129.336 188.664C121.052 188.664 114.336 195.38 114.336 203.664ZM137.646 203.664C137.646 208.254 133.926 211.974 129.336 211.974C124.746 211.974 121.026 208.254 121.026 203.664C121.026 199.074 124.746 195.354 129.336 195.354C133.926 195.354 137.646 199.074 137.646 203.664Z" fill="#4785FF"/>
<path d="M416.025 163.087C415.68 162.761 415.68 162.234 416.025 161.908C416.37 161.583 416.929 161.583 417.274 161.908L433.175 176.908C433.52 177.234 433.52 177.761 433.175 178.087C432.83 178.412 432.271 178.412 431.926 178.087L416.025 163.087Z" fill="#4785FF"/>
<path fill-rule="evenodd" clip-rule="evenodd" d="M425.483 165.414C425.483 167.485 427.263 169.164 429.458 169.164C431.654 169.164 433.434 167.485 433.434 165.414C433.434 163.343 431.654 161.664 429.458 161.664C427.263 161.664 425.483 163.343 425.483 165.414ZM431.661 165.414C431.661 166.561 430.675 167.492 429.458 167.492C428.242 167.492 427.256 166.561 427.256 165.414C427.256 164.267 428.242 163.337 429.458 163.337C430.675 163.337 431.661 164.267 431.661 165.414Z" fill="#4785FF"/>
<path fill-rule="evenodd" clip-rule="evenodd" d="M415.764 174.586C415.764 176.657 417.544 178.336 419.74 178.336C421.935 178.336 423.715 176.657 423.715 174.586C423.715 172.515 421.935 170.836 419.74 170.836C417.544 170.836 415.764 172.515 415.764 174.586ZM421.942 174.586C421.942 175.733 420.956 176.664 419.74 176.664C418.523 176.664 417.537 175.733 417.537 174.586C417.537 173.439 418.523 172.508 419.74 172.508C420.956 172.508 421.942 173.439 421.942 174.586Z" fill="#4785FF"/>
<defs>
<clipPath id="clip0_5940_86576">
<rect width="150" height="150" fill="white" transform="translate(206 6.73438) rotate(-12.0437)"/>
</clipPath>
<clipPath id="clip1_5940_86576">
<rect width="80" height="80" fill="white" transform="translate(465.766 85.8516) rotate(-48.6615)"/>
</clipPath>
<clipPath id="clip2_5940_86576">
<rect width="50" height="50" fill="white" transform="translate(135.215 208.734) rotate(-119.498)"/>
</clipPath>
</defs>
</svg>