<svg width="682" height="306" viewBox="0 0 682 306" fill="none" xmlns="http://www.w3.org/2000/svg">
<path d="M413.621 115.64L408.012 89.3518C407.012 84.6647 404.095 80.5872 399.904 78.0163C395.713 75.4454 390.59 74.5917 385.662 75.643L329.925 87.5348L327.451 75.9415C329.768 72.9159 330.837 69.0479 330.003 65.1422C329.253 61.6269 327.066 58.5688 323.922 56.6406C320.779 54.7124 316.937 54.0721 313.241 54.8606C309.545 55.6491 306.299 57.8017 304.216 60.845C302.133 63.8882 301.384 67.5728 302.135 71.0881C302.968 74.9938 305.522 78.0888 308.872 79.9055L311.345 91.4988L255.608 103.391C250.68 104.442 246.352 107.312 243.575 111.37C240.798 115.427 239.799 120.34 240.799 125.027L246.451 151.519L245.792 151.706C243.484 152.364 241.505 153.829 240.254 155.805C239.003 157.781 238.573 160.122 239.051 162.355L242.821 180.027C243.321 182.371 244.78 184.41 246.875 185.695C248.971 186.981 251.532 187.407 253.996 186.882L263.423 231.064C264.423 235.751 267.339 239.828 271.53 242.399C275.722 244.97 280.845 245.824 285.772 244.772L415.827 217.025C420.754 215.973 425.083 213.103 427.86 209.046C430.637 204.988 431.635 200.075 430.635 195.388L421.209 151.206C423.673 150.681 425.837 149.246 427.225 147.217C428.614 145.188 429.113 142.731 428.613 140.388L424.96 123.263C424.775 121.869 424.252 120.541 423.433 119.385C420.636 115.473 416.393 115.298 413.621 115.64ZM287.95 151.922C285.869 142.166 287.12 129.453 294.812 127.812C302.504 126.171 307.874 137.472 309.955 147.227C312.036 156.982 311.372 167.735 303.68 169.376C295.988 171.017 290.031 161.677 287.95 151.922ZM378.971 180.851C379.759 184.594 377.455 188.586 373.946 190.11C366.857 193.19 355.692 198.252 344.148 200.716C331.286 203.463 318.086 203.737 311.119 203.642C308.149 203.602 305.672 201.473 305.052 198.568C304.13 194.248 307.613 190.182 312.031 190.18C319.43 190.177 330.493 189.688 341.303 187.38C352.862 184.913 364.022 179.738 371.104 176.593C374.602 175.04 378.183 177.105 378.971 180.851ZM368.707 155.502C361.015 157.144 356.046 147.593 353.964 137.837C351.883 128.082 352.147 115.579 359.839 113.938C367.531 112.297 373.888 123.387 375.969 133.143C378.05 142.898 376.399 153.861 368.707 155.502Z" fill="white"/>
<path d="M593.461 129.945L583.37 121.068C581.571 119.485 579.185 118.718 576.736 118.937C574.287 119.155 571.977 120.34 570.313 122.232L551.491 143.627L547.041 139.712C547.068 137.807 546.343 135.936 544.844 134.617C543.495 133.43 541.705 132.855 539.868 133.019C538.032 133.183 536.299 134.072 535.051 135.49C533.803 136.909 533.142 138.741 533.214 140.583C533.285 142.426 534.084 144.128 535.433 145.315C536.932 146.634 538.88 147.114 540.767 146.844L545.217 150.759L526.395 172.154C524.731 174.046 523.85 176.489 523.946 178.945C524.041 181.402 525.106 183.671 526.905 185.254L537.074 194.2L536.865 194.471C536.135 195.424 535.778 196.602 535.865 197.768C535.952 198.934 536.478 200.002 537.336 200.756L544.119 206.723C545.019 207.515 546.212 207.898 547.437 207.789C548.661 207.68 549.816 207.087 550.648 206.141L567.608 221.061C569.407 222.644 571.794 223.41 574.242 223.192C576.691 222.974 579.002 221.789 580.666 219.897L624.583 169.974C626.247 168.083 627.128 165.64 627.033 163.184C626.937 160.727 625.873 158.458 624.073 156.875L607.114 141.955C607.946 141.01 608.386 139.788 608.338 138.56C608.291 137.331 607.758 136.197 606.859 135.405L600.285 129.623C599.795 129.118 599.19 128.741 598.516 128.522C596.227 127.786 594.472 128.981 593.461 129.945ZM553.848 181.985C550.104 178.691 546.814 173.215 549.411 170.263C552.009 167.31 557.534 170.244 561.279 173.538C565.024 176.833 567.964 181.346 565.366 184.299C562.769 187.251 557.593 185.279 553.848 181.985ZM599.004 166.449C600.437 167.716 600.703 170.006 599.749 171.664C597.823 175.013 594.851 180.375 590.954 184.807C586.611 189.745 581.395 193.792 578.571 195.831C577.367 196.701 575.738 196.586 574.623 195.605C572.965 194.146 573.15 191.475 574.922 190.157C577.891 187.949 582.185 184.453 585.835 180.303C589.738 175.866 592.673 170.461 594.577 167.087C595.518 165.42 597.571 165.181 599.004 166.449ZM587.325 159.337C584.728 162.29 579.885 159.939 576.14 156.645C572.396 153.351 568.773 148.254 571.37 145.302C573.968 142.349 579.826 144.904 583.571 148.198C587.316 151.492 589.923 156.385 587.325 159.337Z" fill="white"/>
<path d="M159.909 257.46L154.061 260.769C153.018 261.359 152.264 262.36 151.965 263.553C151.666 264.745 151.847 266.031 152.467 267.127L159.483 279.528L156.903 280.987C156.008 280.662 155.005 280.697 154.136 281.189C153.354 281.631 152.789 282.382 152.565 283.276C152.341 284.171 152.476 285.135 152.941 285.957C153.407 286.779 154.163 287.392 155.045 287.661C155.927 287.929 156.862 287.832 157.644 287.389C158.513 286.898 159.06 286.056 159.242 285.121L161.821 283.662L168.837 296.063C169.457 297.159 170.466 297.976 171.642 298.334C172.818 298.693 174.065 298.562 175.107 297.972L181.002 294.638L181.096 294.781C181.426 295.282 181.923 295.644 182.489 295.794C183.054 295.945 183.644 295.872 184.141 295.59L188.073 293.366C188.594 293.071 188.971 292.57 189.12 291.974C189.27 291.378 189.18 290.735 188.87 290.187L198.7 284.626C199.742 284.036 200.496 283.034 200.795 281.842C201.094 280.65 200.913 279.364 200.293 278.267L183.923 249.332C183.303 248.235 182.294 247.418 181.118 247.06C179.942 246.702 178.695 246.832 177.653 247.422L167.823 252.983C167.512 252.435 167.008 252.027 166.42 251.848C165.832 251.669 165.209 251.734 164.687 252.029L160.877 254.184C160.559 254.333 160.281 254.557 160.067 254.839C159.344 255.799 159.62 256.825 159.909 257.46ZM177.986 284.711C175.815 285.938 172.689 286.593 171.721 284.882C170.753 283.171 173.046 281.043 175.216 279.815C177.387 278.587 180.001 277.939 180.969 279.65C181.937 281.362 180.156 283.483 177.986 284.711ZM178.06 260.834C178.893 260.365 180.018 260.615 180.645 261.338C181.911 262.798 183.955 265.081 185.409 267.649C187.028 270.51 188.083 273.638 188.583 275.307C188.796 276.018 188.474 276.769 187.828 277.134C186.867 277.678 185.636 277.152 185.304 276.099C184.749 274.334 183.803 271.733 182.442 269.328C180.986 266.756 178.915 264.482 177.634 263.029C177.002 262.312 177.226 261.303 178.06 260.834ZM172.784 265.182C173.752 266.894 171.847 268.795 169.677 270.023C167.506 271.251 164.505 272.125 163.536 270.414C162.568 268.703 164.737 266.355 166.907 265.127C169.077 263.899 171.816 263.471 172.784 265.182Z" fill="white"/>
<path d="M361.055 202.181C360.365 201.53 360.365 200.475 361.055 199.824C361.745 199.173 362.863 199.173 363.553 199.824L395.355 229.824C396.045 230.475 396.045 231.53 395.355 232.181C394.665 232.832 393.546 232.832 392.856 232.181L361.055 202.181Z" fill="#4785FF"/>
<path fill-rule="evenodd" clip-rule="evenodd" d="M379.971 206.836C379.971 210.978 383.531 214.336 387.922 214.336C392.313 214.336 395.872 210.978 395.872 206.836C395.872 202.694 392.313 199.336 387.922 199.336C383.531 199.336 379.971 202.694 379.971 206.836ZM392.327 206.836C392.327 209.131 390.355 210.991 387.922 210.991C385.489 210.991 383.517 209.131 383.517 206.836C383.517 204.541 385.489 202.681 387.922 202.681C390.355 202.681 392.327 204.541 392.327 206.836Z" fill="#4785FF"/>
<path fill-rule="evenodd" clip-rule="evenodd" d="M360.538 225.164C360.538 229.306 364.097 232.664 368.488 232.664C372.879 232.664 376.439 229.306 376.439 225.164C376.439 221.022 372.879 217.664 368.488 217.664C364.097 217.664 360.538 221.022 360.538 225.164ZM372.893 225.164C372.893 227.459 370.921 229.319 368.488 229.319C366.056 229.319 364.084 227.459 364.084 225.164C364.084 222.869 366.056 221.009 368.488 221.009C370.921 221.009 372.893 222.869 372.893 225.164Z" fill="#4785FF"/>
<path d="M189.055 275.181C188.365 274.53 188.365 273.475 189.055 272.824C189.745 272.173 190.863 272.173 191.553 272.824L223.355 302.824C224.045 303.475 224.045 304.53 223.355 305.181C222.665 305.832 221.546 305.832 220.856 305.181L189.055 275.181Z" fill="#4785FF"/>
<path fill-rule="evenodd" clip-rule="evenodd" d="M207.971 279.836C207.971 283.978 211.531 287.336 215.922 287.336C220.313 287.336 223.872 283.978 223.872 279.836C223.872 275.694 220.313 272.336 215.922 272.336C211.531 272.336 207.971 275.694 207.971 279.836ZM220.327 279.836C220.327 282.131 218.355 283.991 215.922 283.991C213.489 283.991 211.517 282.131 211.517 279.836C211.517 277.541 213.489 275.681 215.922 275.681C218.355 275.681 220.327 277.541 220.327 279.836Z" fill="#4785FF"/>
<path fill-rule="evenodd" clip-rule="evenodd" d="M188.538 298.164C188.538 302.306 192.097 305.664 196.488 305.664C200.879 305.664 204.439 302.306 204.439 298.164C204.439 294.022 200.879 290.664 196.488 290.664C192.097 290.664 188.538 294.022 188.538 298.164ZM200.893 298.164C200.893 300.459 198.921 302.319 196.488 302.319C194.056 302.319 192.084 300.459 192.084 298.164C192.084 295.869 194.056 294.009 196.488 294.009C198.921 294.009 200.893 295.869 200.893 298.164Z" fill="#4785FF"/>
<path d="M53.0547 275.181C52.3648 274.53 52.3648 273.475 53.0547 272.824C53.7446 272.173 54.8633 272.173 55.5532 272.824L87.3548 302.824C88.0447 303.475 88.0447 304.53 87.3548 305.181C86.6648 305.832 85.5462 305.832 84.8562 305.181L53.0547 275.181Z" fill="#4785FF"/>
<path fill-rule="evenodd" clip-rule="evenodd" d="M71.9715 279.836C71.9715 283.978 75.531 287.336 79.9219 287.336C84.3128 287.336 87.8723 283.978 87.8723 279.836C87.8723 275.694 84.3128 272.336 79.9219 272.336C75.531 272.336 71.9715 275.694 71.9715 279.836ZM84.3265 279.836C84.3265 282.131 82.3545 283.991 79.9219 283.991C77.4893 283.991 75.5172 282.131 75.5172 279.836C75.5172 277.541 77.4893 275.681 79.9219 275.681C82.3545 275.681 84.3265 277.541 84.3265 279.836Z" fill="#4785FF"/>
<path fill-rule="evenodd" clip-rule="evenodd" d="M52.5379 298.164C52.5379 302.306 56.0974 305.664 60.4883 305.664C64.8792 305.664 68.4387 302.306 68.4387 298.164C68.4387 294.022 64.8792 290.664 60.4883 290.664C56.0974 290.664 52.5379 294.022 52.5379 298.164ZM64.893 298.164C64.893 300.459 62.9209 302.319 60.4883 302.319C58.0556 302.319 56.0836 300.459 56.0836 298.164C56.0836 295.869 58.0556 294.009 60.4883 294.009C62.9209 294.009 64.893 295.869 64.893 298.164Z" fill="#4785FF"/>
<path d="M321.03 211.087C320.685 210.761 320.685 210.234 321.03 209.908C321.375 209.583 321.934 209.583 322.279 209.908L338.18 224.908C338.525 225.234 338.525 225.761 338.18 226.087C337.835 226.412 337.276 226.412 336.931 226.087L321.03 211.087Z" fill="#4785FF"/>
<path fill-rule="evenodd" clip-rule="evenodd" d="M330.488 213.414C330.488 215.485 332.268 217.164 334.463 217.164C336.659 217.164 338.439 215.485 338.439 213.414C338.439 211.343 336.659 209.664 334.463 209.664C332.268 209.664 330.488 211.343 330.488 213.414ZM336.666 213.414C336.666 214.561 335.68 215.492 334.463 215.492C333.247 215.492 332.261 214.561 332.261 213.414C332.261 212.267 333.247 211.337 334.463 211.337C335.68 211.337 336.666 212.267 336.666 213.414Z" fill="#4785FF"/>
<path fill-rule="evenodd" clip-rule="evenodd" d="M320.77 222.586C320.77 224.657 322.549 226.336 324.745 226.336C326.94 226.336 328.72 224.657 328.72 222.586C328.72 220.515 326.94 218.836 324.745 218.836C322.549 218.836 320.77 220.515 320.77 222.586ZM326.947 222.586C326.947 223.733 325.961 224.664 324.745 224.664C323.528 224.664 322.542 223.733 322.542 222.586C322.542 221.439 323.528 220.508 324.745 220.508C325.961 220.508 326.947 221.439 326.947 222.586Z" fill="#4785FF"/>
<path d="M627.111 144.89C623.857 141.636 623.857 136.359 627.111 133.105C630.365 129.85 635.642 129.85 638.896 133.105L788.896 283.105C792.151 286.359 792.151 291.636 788.896 294.89C785.642 298.144 780.366 298.144 777.111 294.89L627.111 144.89Z" fill="#4785FF"/>
<path fill-rule="evenodd" clip-rule="evenodd" d="M716.337 168.164C716.337 188.875 733.126 205.664 753.837 205.664C774.548 205.664 791.337 188.875 791.337 168.164C791.337 147.453 774.548 130.664 753.837 130.664C733.126 130.664 716.337 147.453 716.337 168.164ZM774.613 168.164C774.613 179.638 765.311 188.94 753.837 188.94C742.363 188.94 733.062 179.638 733.062 168.164C733.062 156.69 742.363 147.388 753.837 147.388C765.311 147.388 774.613 156.69 774.613 168.164Z" fill="#4785FF"/>
<path fill-rule="evenodd" clip-rule="evenodd" d="M624.673 259.836C624.673 280.547 641.462 297.336 662.173 297.336C682.884 297.336 699.673 280.547 699.673 259.836C699.673 239.125 682.884 222.336 662.173 222.336C641.462 222.336 624.673 239.125 624.673 259.836ZM682.949 259.836C682.949 271.31 673.647 280.612 662.173 280.612C650.699 280.612 641.397 271.31 641.397 259.836C641.397 248.362 650.699 239.06 662.173 239.06C673.647 239.06 682.949 248.362 682.949 259.836Z" fill="#4785FF"/>
<path d="M440.111 301.89C436.857 298.636 436.857 293.359 440.111 290.105C443.365 286.85 448.642 286.85 451.896 290.105L601.896 440.105C605.151 443.359 605.151 448.636 601.896 451.89C598.642 455.144 593.366 455.144 590.111 451.89L440.111 301.89Z" fill="#4785FF"/>
<path fill-rule="evenodd" clip-rule="evenodd" d="M529.337 325.164C529.337 345.875 546.126 362.664 566.837 362.664C587.548 362.664 604.337 345.875 604.337 325.164C604.337 304.453 587.548 287.664 566.837 287.664C546.126 287.664 529.337 304.453 529.337 325.164ZM587.613 325.164C587.613 336.638 578.311 345.94 566.837 345.94C555.363 345.94 546.062 336.638 546.062 325.164C546.062 313.69 555.363 304.388 566.837 304.388C578.311 304.388 587.613 313.69 587.613 325.164Z" fill="#4785FF"/>
<path fill-rule="evenodd" clip-rule="evenodd" d="M437.673 416.836C437.673 437.547 454.462 454.336 475.173 454.336C495.884 454.336 512.673 437.547 512.673 416.836C512.673 396.125 495.884 379.336 475.173 379.336C454.462 379.336 437.673 396.125 437.673 416.836ZM495.949 416.836C495.949 428.31 486.647 437.612 475.173 437.612C463.699 437.612 454.397 428.31 454.397 416.836C454.397 405.362 463.699 396.06 475.173 396.06C486.647 396.06 495.949 405.362 495.949 416.836Z" fill="#4785FF"/>
<path d="M367.026 245.087C366.681 244.761 366.681 244.234 367.026 243.908C367.371 243.583 367.93 243.583 368.275 243.908L384.176 258.908C384.521 259.234 384.521 259.761 384.176 260.087C383.831 260.412 383.272 260.412 382.927 260.087L367.026 245.087Z" fill="#4785FF"/>
<path fill-rule="evenodd" clip-rule="evenodd" d="M376.484 247.414C376.484 249.485 378.264 251.164 380.46 251.164C382.655 251.164 384.435 249.485 384.435 247.414C384.435 245.343 382.655 243.664 380.46 243.664C378.264 243.664 376.484 245.343 376.484 247.414ZM382.662 247.414C382.662 248.561 381.676 249.492 380.46 249.492C379.243 249.492 378.257 248.561 378.257 247.414C378.257 246.267 379.243 245.337 380.46 245.337C381.676 245.337 382.662 246.267 382.662 247.414Z" fill="#4785FF"/>
<path fill-rule="evenodd" clip-rule="evenodd" d="M366.766 256.586C366.766 258.657 368.545 260.336 370.741 260.336C372.936 260.336 374.716 258.657 374.716 256.586C374.716 254.515 372.936 252.836 370.741 252.836C368.545 252.836 366.766 254.515 366.766 256.586ZM372.943 256.586C372.943 257.733 371.957 258.664 370.741 258.664C369.524 258.664 368.538 257.733 368.538 256.586C368.538 255.439 369.524 254.508 370.741 254.508C371.957 254.508 372.943 255.439 372.943 256.586Z" fill="#4785FF"/>
<path d="M479.051 246.181C478.361 245.53 478.361 244.475 479.051 243.824C479.741 243.173 480.859 243.173 481.549 243.824L513.351 273.824C514.041 274.475 514.041 275.53 513.351 276.181C512.661 276.832 511.542 276.832 510.852 276.181L479.051 246.181Z" fill="#4785FF"/>
<path fill-rule="evenodd" clip-rule="evenodd" d="M497.968 250.836C497.968 254.978 501.527 258.336 505.918 258.336C510.309 258.336 513.868 254.978 513.868 250.836C513.868 246.694 510.309 243.336 505.918 243.336C501.527 243.336 497.968 246.694 497.968 250.836ZM510.323 250.836C510.323 253.131 508.351 254.991 505.918 254.991C503.485 254.991 501.513 253.131 501.513 250.836C501.513 248.541 503.485 246.681 505.918 246.681C508.351 246.681 510.323 248.541 510.323 250.836Z" fill="#4785FF"/>
<path fill-rule="evenodd" clip-rule="evenodd" d="M478.534 269.164C478.534 273.306 482.093 276.664 486.484 276.664C490.875 276.664 494.435 273.306 494.435 269.164C494.435 265.022 490.875 261.664 486.484 261.664C482.093 261.664 478.534 265.022 478.534 269.164ZM490.889 269.164C490.889 271.459 488.917 273.319 486.484 273.319C484.052 273.319 482.08 271.459 482.08 269.164C482.08 266.869 484.052 265.009 486.484 265.009C488.917 265.009 490.889 266.869 490.889 269.164Z" fill="#4785FF"/>
<path d="M287.03 228.087C286.685 227.761 286.685 227.234 287.03 226.908C287.375 226.583 287.934 226.583 288.279 226.908L304.18 241.908C304.525 242.234 304.525 242.761 304.18 243.087C303.835 243.412 303.276 243.412 302.931 243.087L287.03 228.087Z" fill="#4785FF"/>
<path fill-rule="evenodd" clip-rule="evenodd" d="M296.488 230.414C296.488 232.485 298.268 234.164 300.463 234.164C302.659 234.164 304.439 232.485 304.439 230.414C304.439 228.343 302.659 226.664 300.463 226.664C298.268 226.664 296.488 228.343 296.488 230.414ZM302.666 230.414C302.666 231.561 301.68 232.492 300.463 232.492C299.247 232.492 298.261 231.561 298.261 230.414C298.261 229.267 299.247 228.337 300.463 228.337C301.68 228.337 302.666 229.267 302.666 230.414Z" fill="#4785FF"/>
<path fill-rule="evenodd" clip-rule="evenodd" d="M286.77 239.586C286.77 241.657 288.549 243.336 290.745 243.336C292.94 243.336 294.72 241.657 294.72 239.586C294.72 237.515 292.94 235.836 290.745 235.836C288.549 235.836 286.77 237.515 286.77 239.586ZM292.947 239.586C292.947 240.733 291.961 241.664 290.745 241.664C289.528 241.664 288.542 240.733 288.542 239.586C288.542 238.439 289.528 237.508 290.745 237.508C291.961 237.508 292.947 238.439 292.947 239.586Z" fill="#4785FF"/>
<path d="M211.03 248.087C210.685 247.761 210.685 247.234 211.03 246.908C211.375 246.583 211.934 246.583 212.279 246.908L228.18 261.908C228.525 262.234 228.525 262.761 228.18 263.087C227.835 263.412 227.276 263.412 226.931 263.087L211.03 248.087Z" fill="#4785FF"/>
<path fill-rule="evenodd" clip-rule="evenodd" d="M220.488 250.414C220.488 252.485 222.268 254.164 224.463 254.164C226.659 254.164 228.439 252.485 228.439 250.414C228.439 248.343 226.659 246.664 224.463 246.664C222.268 246.664 220.488 248.343 220.488 250.414ZM226.666 250.414C226.666 251.561 225.68 252.492 224.463 252.492C223.247 252.492 222.261 251.561 222.261 250.414C222.261 249.267 223.247 248.337 224.463 248.337C225.68 248.337 226.666 249.267 226.666 250.414Z" fill="#4785FF"/>
<path fill-rule="evenodd" clip-rule="evenodd" d="M210.77 259.586C210.77 261.657 212.549 263.336 214.745 263.336C216.94 263.336 218.72 261.657 218.72 259.586C218.72 257.515 216.94 255.836 214.745 255.836C212.549 255.836 210.77 257.515 210.77 259.586ZM216.947 259.586C216.947 260.733 215.961 261.664 214.745 261.664C213.528 261.664 212.542 260.733 212.542 259.586C212.542 258.439 213.528 257.508 214.745 257.508C215.961 257.508 216.947 258.439 216.947 259.586Z" fill="#4785FF"/>
<path d="M1.01426 258.087C0.669296 257.761 0.669296 257.234 1.01426 256.908C1.35921 256.583 1.91857 256.583 2.26353 256.908L18.1643 271.908C18.5093 272.234 18.5093 272.761 18.1643 273.087C17.8193 273.412 17.26 273.412 16.915 273.087L1.01426 258.087Z" fill="#4785FF"/>
<path fill-rule="evenodd" clip-rule="evenodd" d="M10.4727 260.414C10.4727 262.485 12.2524 264.164 14.4479 264.164C16.6433 264.164 18.423 262.485 18.423 260.414C18.423 258.343 16.6433 256.664 14.4479 256.664C12.2524 256.664 10.4727 258.343 10.4727 260.414ZM16.6502 260.414C16.6502 261.561 15.6642 262.492 14.4479 262.492C13.2315 262.492 12.2455 261.561 12.2455 260.414C12.2455 259.267 13.2315 258.337 14.4479 258.337C15.6642 258.337 16.6502 259.267 16.6502 260.414Z" fill="#4785FF"/>
<path fill-rule="evenodd" clip-rule="evenodd" d="M0.753906 269.586C0.753906 271.657 2.53365 273.336 4.7291 273.336C6.92456 273.336 8.7043 271.657 8.7043 269.586C8.7043 267.515 6.92456 265.836 4.7291 265.836C2.53365 265.836 0.753906 267.515 0.753906 269.586ZM6.93145 269.586C6.93145 270.733 5.94542 271.664 4.7291 271.664C3.51278 271.664 2.52676 270.733 2.52676 269.586C2.52676 268.439 3.51278 267.508 4.7291 267.508C5.94542 267.508 6.93145 268.439 6.93145 269.586Z" fill="#4785FF"/>
<path d="M323.055 236.181C322.365 235.53 322.365 234.475 323.055 233.824C323.745 233.173 324.863 233.173 325.553 233.824L357.355 263.824C358.045 264.475 358.045 265.53 357.355 266.181C356.665 266.832 355.546 266.832 354.856 266.181L323.055 236.181Z" fill="#4785FF"/>
<path fill-rule="evenodd" clip-rule="evenodd" d="M341.971 240.836C341.971 244.978 345.531 248.336 349.922 248.336C354.313 248.336 357.872 244.978 357.872 240.836C357.872 236.694 354.313 233.336 349.922 233.336C345.531 233.336 341.971 236.694 341.971 240.836ZM354.327 240.836C354.327 243.131 352.355 244.991 349.922 244.991C347.489 244.991 345.517 243.131 345.517 240.836C345.517 238.541 347.489 236.681 349.922 236.681C352.355 236.681 354.327 238.541 354.327 240.836Z" fill="#4785FF"/>
<path fill-rule="evenodd" clip-rule="evenodd" d="M322.538 259.164C322.538 263.306 326.097 266.664 330.488 266.664C334.879 266.664 338.439 263.306 338.439 259.164C338.439 255.022 334.879 251.664 330.488 251.664C326.097 251.664 322.538 255.022 322.538 259.164ZM334.893 259.164C334.893 261.459 332.921 263.319 330.488 263.319C328.056 263.319 326.084 261.459 326.084 259.164C326.084 256.869 328.056 255.009 330.488 255.009C332.921 255.009 334.893 256.869 334.893 259.164Z" fill="#4785FF"/>
<path d="M304.055 287.181C303.365 286.53 303.365 285.475 304.055 284.824C304.745 284.173 305.863 284.173 306.553 284.824L338.355 314.824C339.045 315.475 339.045 316.53 338.355 317.181C337.665 317.832 336.546 317.832 335.856 317.181L304.055 287.181Z" fill="#4785FF"/>
<path fill-rule="evenodd" clip-rule="evenodd" d="M322.971 291.836C322.971 295.978 326.531 299.336 330.922 299.336C335.313 299.336 338.872 295.978 338.872 291.836C338.872 287.694 335.313 284.336 330.922 284.336C326.531 284.336 322.971 287.694 322.971 291.836ZM335.327 291.836C335.327 294.131 333.355 295.991 330.922 295.991C328.489 295.991 326.517 294.131 326.517 291.836C326.517 289.541 328.489 287.681 330.922 287.681C333.355 287.681 335.327 289.541 335.327 291.836Z" fill="#4785FF"/>
<path fill-rule="evenodd" clip-rule="evenodd" d="M303.538 310.164C303.538 314.306 307.097 317.664 311.488 317.664C315.879 317.664 319.439 314.306 319.439 310.164C319.439 306.022 315.879 302.664 311.488 302.664C307.097 302.664 303.538 306.022 303.538 310.164ZM315.893 310.164C315.893 312.459 313.921 314.319 311.488 314.319C309.056 314.319 307.084 312.459 307.084 310.164C307.084 307.869 309.056 306.009 311.488 306.009C313.921 306.009 315.893 307.869 315.893 310.164Z" fill="#4785FF"/>
<path d="M827.111 14.89C823.857 11.6356 823.857 6.35923 827.111 3.10481C830.365 -0.149521 835.642 -0.149521 838.896 3.10481L988.896 153.105C992.151 156.359 992.151 161.636 988.896 164.89C985.642 168.144 980.366 168.144 977.111 164.89L827.111 14.89Z" fill="#4785FF"/>
<path fill-rule="evenodd" clip-rule="evenodd" d="M916.337 38.1641C916.337 58.8747 933.126 75.6641 953.837 75.6641C974.548 75.6641 991.337 58.8747 991.337 38.1641C991.337 17.4534 974.548 0.664062 953.837 0.664062C933.126 0.664062 916.337 17.4534 916.337 38.1641ZM974.613 38.1641C974.613 49.6381 965.311 58.9396 953.837 58.9396C942.363 58.9396 933.062 49.6381 933.062 38.1641C933.062 26.69 942.363 17.3885 953.837 17.3885C965.311 17.3885 974.613 26.69 974.613 38.1641Z" fill="#4785FF"/>
<path fill-rule="evenodd" clip-rule="evenodd" d="M824.673 129.836C824.673 150.547 841.462 167.336 862.173 167.336C882.884 167.336 899.673 150.547 899.673 129.836C899.673 109.125 882.884 92.3359 862.173 92.3359C841.462 92.3359 824.673 109.125 824.673 129.836ZM882.949 129.836C882.949 141.31 873.647 150.612 862.173 150.612C850.699 150.612 841.397 141.31 841.397 129.836C841.397 118.362 850.699 109.06 862.173 109.06C873.647 109.06 882.949 118.362 882.949 129.836Z" fill="#4785FF"/>
<path d="M783.079 42.2678C782.045 41.2915 782.045 39.7085 783.079 38.7322C784.114 37.7559 785.792 37.7559 786.827 38.7322L834.53 83.7322C835.565 84.7085 835.565 86.2915 834.53 87.2677C833.495 88.244 831.817 88.244 830.782 87.2677L783.079 42.2678Z" fill="#4785FF"/>
<path fill-rule="evenodd" clip-rule="evenodd" d="M811.455 49.25C811.455 55.4632 816.794 60.5 823.38 60.5C829.967 60.5 835.306 55.4632 835.306 49.25C835.306 43.0368 829.967 38 823.38 38C816.794 38 811.455 43.0368 811.455 49.25ZM829.987 49.25C829.987 52.6922 827.029 55.4827 823.38 55.4827C819.731 55.4827 816.773 52.6922 816.773 49.25C816.773 45.8078 819.731 43.0173 823.38 43.0173C827.029 43.0173 829.987 45.8078 829.987 49.25Z" fill="#4785FF"/>
<path fill-rule="evenodd" clip-rule="evenodd" d="M782.302 76.75C782.302 82.9632 787.642 88 794.228 88C800.814 88 806.154 82.9632 806.154 76.75C806.154 70.5367 800.814 65.5 794.228 65.5C787.642 65.5 782.302 70.5367 782.302 76.75ZM800.835 76.75C800.835 80.1923 797.877 82.9827 794.228 82.9827C790.579 82.9827 787.621 80.1923 787.621 76.75C787.621 73.3078 790.579 70.5173 794.228 70.5173C797.877 70.5173 800.835 73.3078 800.835 76.75Z" fill="#4785FF"/>
<path d="M626.643 189.087C626.298 188.761 626.298 188.234 626.643 187.908C626.988 187.583 627.547 187.583 627.892 187.908L643.793 202.908C644.138 203.234 644.138 203.761 643.793 204.087C643.448 204.412 642.889 204.412 642.544 204.087L626.643 189.087Z" fill="#4785FF"/>
<path fill-rule="evenodd" clip-rule="evenodd" d="M636.102 191.414C636.102 193.485 637.881 195.164 640.077 195.164C642.272 195.164 644.052 193.485 644.052 191.414C644.052 189.343 642.272 187.664 640.077 187.664C637.881 187.664 636.102 189.343 636.102 191.414ZM642.279 191.414C642.279 192.561 641.293 193.492 640.077 193.492C638.86 193.492 637.874 192.561 637.874 191.414C637.874 190.267 638.86 189.337 640.077 189.337C641.293 189.337 642.279 190.267 642.279 191.414Z" fill="#4785FF"/>
<path fill-rule="evenodd" clip-rule="evenodd" d="M626.383 200.586C626.383 202.657 628.163 204.336 630.358 204.336C632.553 204.336 634.333 202.657 634.333 200.586C634.333 198.515 632.553 196.836 630.358 196.836C628.163 196.836 626.383 198.515 626.383 200.586ZM632.56 200.586C632.56 201.733 631.574 202.664 630.358 202.664C629.142 202.664 628.156 201.733 628.156 200.586C628.156 199.439 629.142 198.508 630.358 198.508C631.574 198.508 632.56 199.439 632.56 200.586Z" fill="#4785FF"/>
<path d="M477.03 29.0867C476.685 28.7612 476.685 28.2336 477.03 27.9081C477.375 27.5827 477.934 27.5827 478.279 27.9081L494.18 42.9081C494.525 43.2336 494.525 43.7612 494.18 44.0866C493.835 44.4121 493.276 44.4121 492.931 44.0866L477.03 29.0867Z" fill="#4785FF"/>
<path fill-rule="evenodd" clip-rule="evenodd" d="M486.488 31.4141C486.488 33.4851 488.268 35.1641 490.463 35.1641C492.659 35.1641 494.439 33.4851 494.439 31.4141C494.439 29.343 492.659 27.6641 490.463 27.6641C488.268 27.6641 486.488 29.343 486.488 31.4141ZM492.666 31.4141C492.666 32.5615 491.68 33.4916 490.463 33.4916C489.247 33.4916 488.261 32.5615 488.261 31.4141C488.261 30.2667 489.247 29.3365 490.463 29.3365C491.68 29.3365 492.666 30.2667 492.666 31.4141Z" fill="#4785FF"/>
<path fill-rule="evenodd" clip-rule="evenodd" d="M476.77 40.5859C476.77 42.657 478.549 44.3359 480.745 44.3359C482.94 44.3359 484.72 42.657 484.72 40.5859C484.72 38.5149 482.94 36.8359 480.745 36.8359C478.549 36.8359 476.77 38.5149 476.77 40.5859ZM482.947 40.5859C482.947 41.7334 481.961 42.6635 480.745 42.6635C479.528 42.6635 478.542 41.7334 478.542 40.5859C478.542 39.4385 479.528 38.5084 480.745 38.5084C481.961 38.5084 482.947 39.4385 482.947 40.5859Z" fill="#4785FF"/>
<path d="M663.648 134.181C662.959 133.53 662.959 132.475 663.648 131.824C664.338 131.173 665.457 131.173 666.147 131.824L697.949 161.824C698.638 162.475 698.638 163.53 697.949 164.181C697.259 164.832 696.14 164.832 695.45 164.181L663.648 134.181Z" fill="#4785FF"/>
<path fill-rule="evenodd" clip-rule="evenodd" d="M682.565 138.836C682.565 142.978 686.125 146.336 690.516 146.336C694.907 146.336 698.466 142.978 698.466 138.836C698.466 134.694 694.907 131.336 690.516 131.336C686.125 131.336 682.565 134.694 682.565 138.836ZM694.92 138.836C694.92 141.131 692.948 142.991 690.516 142.991C688.083 142.991 686.111 141.131 686.111 138.836C686.111 136.541 688.083 134.681 690.516 134.681C692.948 134.681 694.92 136.541 694.92 138.836Z" fill="#4785FF"/>
<path fill-rule="evenodd" clip-rule="evenodd" d="M663.132 157.164C663.132 161.306 666.691 164.664 671.082 164.664C675.473 164.664 679.032 161.306 679.032 157.164C679.032 153.022 675.473 149.664 671.082 149.664C666.691 149.664 663.132 153.022 663.132 157.164ZM675.487 157.164C675.487 159.459 673.515 161.319 671.082 161.319C668.649 161.319 666.677 159.459 666.677 157.164C666.677 154.869 668.649 153.009 671.082 153.009C673.515 153.009 675.487 154.869 675.487 157.164Z" fill="#4785FF"/>
<path d="M751.079 -32.7322C750.045 -33.7086 750.045 -35.2914 751.079 -36.2678C752.114 -37.2441 753.792 -37.2441 754.827 -36.2678L802.53 8.73225C803.565 9.7085 803.565 11.2915 802.53 12.2677C801.495 13.244 799.817 13.244 798.782 12.2677L751.079 -32.7322Z" fill="#4785FF"/>
<path fill-rule="evenodd" clip-rule="evenodd" d="M779.455 -25.75C779.455 -19.5368 784.794 -14.5 791.38 -14.5C797.967 -14.5 803.306 -19.5368 803.306 -25.75C803.306 -31.9632 797.967 -37 791.38 -37C784.794 -37 779.455 -31.9632 779.455 -25.75ZM797.987 -25.75C797.987 -22.3078 795.029 -19.5173 791.38 -19.5173C787.731 -19.5173 784.773 -22.3078 784.773 -25.75C784.773 -29.1922 787.731 -31.9827 791.38 -31.9827C795.029 -31.9827 797.987 -29.1922 797.987 -25.75Z" fill="#4785FF"/>
<path fill-rule="evenodd" clip-rule="evenodd" d="M750.302 1.75C750.302 7.96325 755.642 13 762.228 13C768.814 13 774.154 7.96325 774.154 1.75C774.154 -4.46325 768.814 -9.5 762.228 -9.5C755.642 -9.5 750.302 -4.46325 750.302 1.75ZM768.835 1.75C768.835 5.19225 765.877 7.98275 762.228 7.98275C758.579 7.98275 755.621 5.19225 755.621 1.75C755.621 -1.69225 758.579 -4.48275 762.228 -4.48275C765.877 -4.48275 768.835 -1.69225 768.835 1.75Z" fill="#4785FF"/>
<path d="M853.079 -49.7322C852.045 -50.7086 852.045 -52.2915 853.079 -53.2678C854.114 -54.2441 855.792 -54.2441 856.827 -53.2678L904.53 -8.26775C905.565 -7.2915 905.565 -5.7085 904.53 -4.73225C903.495 -3.756 901.817 -3.756 900.782 -4.73225L853.079 -49.7322Z" fill="#4785FF"/>
<path fill-rule="evenodd" clip-rule="evenodd" d="M881.455 -42.75C881.455 -36.5368 886.794 -31.5 893.38 -31.5C899.967 -31.5 905.306 -36.5368 905.306 -42.75C905.306 -48.9632 899.967 -54 893.38 -54C886.794 -54 881.455 -48.9632 881.455 -42.75ZM899.987 -42.75C899.987 -39.3078 897.029 -36.5173 893.38 -36.5173C889.731 -36.5173 886.773 -39.3078 886.773 -42.75C886.773 -46.1922 889.731 -48.9827 893.38 -48.9827C897.029 -48.9827 899.987 -46.1922 899.987 -42.75Z" fill="#4785FF"/>
<path fill-rule="evenodd" clip-rule="evenodd" d="M852.302 -15.25C852.302 -9.03675 857.642 -4 864.228 -4C870.814 -4 876.154 -9.03675 876.154 -15.25C876.154 -21.4633 870.814 -26.5 864.228 -26.5C857.642 -26.5 852.302 -21.4633 852.302 -15.25ZM870.835 -15.25C870.835 -11.8077 867.877 -9.01725 864.228 -9.01725C860.579 -9.01725 857.621 -11.8077 857.621 -15.25C857.621 -18.6922 860.579 -21.4827 864.228 -21.4827C867.877 -21.4827 870.835 -18.6922 870.835 -15.25Z" fill="#4785FF"/>
<path d="M661.079 -32.7322C660.045 -33.7086 660.045 -35.2914 661.079 -36.2678C662.114 -37.2441 663.792 -37.2441 664.827 -36.2678L712.53 8.73225C713.565 9.7085 713.565 11.2915 712.53 12.2677C711.495 13.244 709.817 13.244 708.782 12.2677L661.079 -32.7322Z" fill="#4785FF"/>
<path fill-rule="evenodd" clip-rule="evenodd" d="M689.455 -25.75C689.455 -19.5368 694.794 -14.5 701.38 -14.5C707.967 -14.5 713.306 -19.5368 713.306 -25.75C713.306 -31.9632 707.967 -37 701.38 -37C694.794 -37 689.455 -31.9632 689.455 -25.75ZM707.987 -25.75C707.987 -22.3078 705.029 -19.5173 701.38 -19.5173C697.731 -19.5173 694.773 -22.3078 694.773 -25.75C694.773 -29.1922 697.731 -31.9827 701.38 -31.9827C705.029 -31.9827 707.987 -29.1922 707.987 -25.75Z" fill="#4785FF"/>
<path fill-rule="evenodd" clip-rule="evenodd" d="M660.302 1.75C660.302 7.96325 665.642 13 672.228 13C678.814 13 684.154 7.96325 684.154 1.75C684.154 -4.46325 678.814 -9.5 672.228 -9.5C665.642 -9.5 660.302 -4.46325 660.302 1.75ZM678.835 1.75C678.835 5.19225 675.877 7.98275 672.228 7.98275C668.579 7.98275 665.621 5.19225 665.621 1.75C665.621 -1.69225 668.579 -4.48275 672.228 -4.48275C675.877 -4.48275 678.835 -1.69225 678.835 1.75Z" fill="#4785FF"/>
<path d="M896.079 254.268C895.045 253.291 895.045 251.709 896.079 250.732C897.114 249.756 898.792 249.756 899.827 250.732L947.53 295.732C948.565 296.708 948.565 298.292 947.53 299.268C946.495 300.244 944.817 300.244 943.782 299.268L896.079 254.268Z" fill="#4785FF"/>
<path fill-rule="evenodd" clip-rule="evenodd" d="M924.455 261.25C924.455 267.463 929.794 272.5 936.38 272.5C942.967 272.5 948.306 267.463 948.306 261.25C948.306 255.037 942.967 250 936.38 250C929.794 250 924.455 255.037 924.455 261.25ZM942.987 261.25C942.987 264.692 940.029 267.483 936.38 267.483C932.731 267.483 929.773 264.692 929.773 261.25C929.773 257.808 932.731 255.017 936.38 255.017C940.029 255.017 942.987 257.808 942.987 261.25Z" fill="#4785FF"/>
<path fill-rule="evenodd" clip-rule="evenodd" d="M895.302 288.75C895.302 294.963 900.642 300 907.228 300C913.814 300 919.154 294.963 919.154 288.75C919.154 282.537 913.814 277.5 907.228 277.5C900.642 277.5 895.302 282.537 895.302 288.75ZM913.835 288.75C913.835 292.192 910.877 294.983 907.228 294.983C903.579 294.983 900.621 292.192 900.621 288.75C900.621 285.308 903.579 282.517 907.228 282.517C910.877 282.517 913.835 285.308 913.835 288.75Z" fill="#4785FF"/>
<path d="M900.051 177.181C899.361 176.53 899.361 175.475 900.051 174.824C900.741 174.173 901.859 174.173 902.549 174.824L934.351 204.824C935.041 205.475 935.041 206.53 934.351 207.181C933.661 207.832 932.542 207.832 931.852 207.181L900.051 177.181Z" fill="#4785FF"/>
<path fill-rule="evenodd" clip-rule="evenodd" d="M918.968 181.836C918.968 185.978 922.527 189.336 926.918 189.336C931.309 189.336 934.868 185.978 934.868 181.836C934.868 177.694 931.309 174.336 926.918 174.336C922.527 174.336 918.968 177.694 918.968 181.836ZM931.323 181.836C931.323 184.131 929.351 185.991 926.918 185.991C924.485 185.991 922.513 184.131 922.513 181.836C922.513 179.541 924.485 177.681 926.918 177.681C929.351 177.681 931.323 179.541 931.323 181.836Z" fill="#4785FF"/>
<path fill-rule="evenodd" clip-rule="evenodd" d="M899.534 200.164C899.534 204.306 903.093 207.664 907.484 207.664C911.875 207.664 915.435 204.306 915.435 200.164C915.435 196.022 911.875 192.664 907.484 192.664C903.093 192.664 899.534 196.022 899.534 200.164ZM911.889 200.164C911.889 202.459 909.917 204.319 907.484 204.319C905.052 204.319 903.08 202.459 903.08 200.164C903.08 197.869 905.052 196.009 907.484 196.009C909.917 196.009 911.889 197.869 911.889 200.164Z" fill="#4785FF"/>
<path d="M712.051 289.181C711.361 288.53 711.361 287.475 712.051 286.824C712.741 286.173 713.859 286.173 714.549 286.824L746.351 316.824C747.041 317.475 747.041 318.53 746.351 319.181C745.661 319.832 744.542 319.832 743.852 319.181L712.051 289.181Z" fill="#4785FF"/>
<path fill-rule="evenodd" clip-rule="evenodd" d="M730.968 293.836C730.968 297.978 734.527 301.336 738.918 301.336C743.309 301.336 746.868 297.978 746.868 293.836C746.868 289.694 743.309 286.336 738.918 286.336C734.527 286.336 730.968 289.694 730.968 293.836ZM743.323 293.836C743.323 296.131 741.351 297.991 738.918 297.991C736.485 297.991 734.513 296.131 734.513 293.836C734.513 291.541 736.485 289.681 738.918 289.681C741.351 289.681 743.323 291.541 743.323 293.836Z" fill="#4785FF"/>
<path fill-rule="evenodd" clip-rule="evenodd" d="M711.534 312.164C711.534 316.306 715.093 319.664 719.484 319.664C723.875 319.664 727.435 316.306 727.435 312.164C727.435 308.022 723.875 304.664 719.484 304.664C715.093 304.664 711.534 308.022 711.534 312.164ZM723.889 312.164C723.889 314.459 721.917 316.319 719.484 316.319C717.052 316.319 715.08 314.459 715.08 312.164C715.08 309.869 717.052 308.009 719.484 308.009C721.917 308.009 723.889 309.869 723.889 312.164Z" fill="#4785FF"/>
<path d="M506.055 -7.81888C505.365 -8.46976 505.365 -9.52503 506.055 -10.1759C506.745 -10.8268 507.863 -10.8268 508.553 -10.1759L540.355 19.8241C541.045 20.4749 541.045 21.5303 540.355 22.1811C539.665 22.8319 538.546 22.8319 537.856 22.1811L506.055 -7.81888Z" fill="#4785FF"/>
<path fill-rule="evenodd" clip-rule="evenodd" d="M524.971 -3.16406C524.971 0.97807 528.531 4.33594 532.922 4.33594C537.313 4.33594 540.872 0.97807 540.872 -3.16406C540.872 -7.3062 537.313 -10.6641 532.922 -10.6641C528.531 -10.6641 524.971 -7.3062 524.971 -3.16406ZM537.327 -3.16406C537.327 -0.869246 535.355 0.991055 532.922 0.991055C530.489 0.991055 528.517 -0.869246 528.517 -3.16406C528.517 -5.45888 530.489 -7.31918 532.922 -7.31918C535.355 -7.31918 537.327 -5.45888 537.327 -3.16406Z" fill="#4785FF"/>
<path fill-rule="evenodd" clip-rule="evenodd" d="M505.538 15.1641C505.538 19.3062 509.097 22.6641 513.488 22.6641C517.879 22.6641 521.439 19.3062 521.439 15.1641C521.439 11.0219 517.879 7.66406 513.488 7.66406C509.097 7.66406 505.538 11.0219 505.538 15.1641ZM517.893 15.1641C517.893 17.4589 515.921 19.3192 513.488 19.3192C511.056 19.3192 509.084 17.4589 509.084 15.1641C509.084 12.8692 511.056 11.0089 513.488 11.0089C515.921 11.0089 517.893 12.8692 517.893 15.1641Z" fill="#4785FF"/>
<path d="M651.055 45.1811C650.365 44.5302 650.365 43.475 651.055 42.8241C651.745 42.1732 652.863 42.1732 653.553 42.8241L685.355 72.8241C686.045 73.4749 686.045 74.5303 685.355 75.1811C684.665 75.8319 683.546 75.8319 682.856 75.1811L651.055 45.1811Z" fill="#4785FF"/>
<path fill-rule="evenodd" clip-rule="evenodd" d="M669.971 49.8359C669.971 53.9781 673.531 57.3359 677.922 57.3359C682.313 57.3359 685.872 53.9781 685.872 49.8359C685.872 45.6938 682.313 42.3359 677.922 42.3359C673.531 42.3359 669.971 45.6938 669.971 49.8359ZM682.327 49.8359C682.327 52.1308 680.355 53.9911 677.922 53.9911C675.489 53.9911 673.517 52.1308 673.517 49.8359C673.517 47.5411 675.489 45.6808 677.922 45.6808C680.355 45.6808 682.327 47.5411 682.327 49.8359Z" fill="#4785FF"/>
<path fill-rule="evenodd" clip-rule="evenodd" d="M650.538 68.1641C650.538 72.3062 654.097 75.6641 658.488 75.6641C662.879 75.6641 666.439 72.3062 666.439 68.1641C666.439 64.0219 662.879 60.6641 658.488 60.6641C654.097 60.6641 650.538 64.0219 650.538 68.1641ZM662.893 68.1641C662.893 70.4589 660.921 72.3192 658.488 72.3192C656.056 72.3192 654.084 70.4589 654.084 68.1641C654.084 65.8692 656.056 64.0089 658.488 64.0089C660.921 64.0089 662.893 65.8692 662.893 68.1641Z" fill="#4785FF"/>
<path d="M522.375 200.449C520.65 198.822 520.65 196.184 522.375 194.556C524.1 192.929 526.897 192.929 528.622 194.556L608.125 269.556C609.85 271.183 609.85 273.822 608.125 275.449C606.401 277.076 603.604 277.076 601.879 275.449L522.375 200.449Z" fill="#4785FF"/>
<path fill-rule="evenodd" clip-rule="evenodd" d="M569.667 212.086C569.667 222.441 578.566 230.836 589.543 230.836C600.52 230.836 609.419 222.441 609.419 212.086C609.419 201.731 600.52 193.336 589.543 193.336C578.566 193.336 569.667 201.731 569.667 212.086ZM600.555 212.086C600.555 217.823 595.625 222.474 589.543 222.474C583.462 222.474 578.532 217.823 578.532 212.086C578.532 206.349 583.462 201.698 589.543 201.698C595.625 201.698 600.555 206.349 600.555 212.086Z" fill="#4785FF"/>
<path fill-rule="evenodd" clip-rule="evenodd" d="M521.081 257.914C521.081 268.269 529.98 276.664 540.957 276.664C551.934 276.664 560.833 268.269 560.833 257.914C560.833 247.559 551.934 239.164 540.957 239.164C529.98 239.164 521.081 247.559 521.081 257.914ZM551.969 257.914C551.969 263.651 547.039 268.302 540.957 268.302C534.876 268.302 529.945 263.651 529.945 257.914C529.945 252.177 534.876 247.526 540.957 247.526C547.039 247.526 551.969 252.177 551.969 257.914Z" fill="#4785FF"/>
<path d="M554.133 -28.5511C552.408 -30.1783 552.408 -32.8165 554.133 -34.4437C555.858 -36.0709 558.655 -36.0709 560.379 -34.4437L639.883 40.5563C641.608 42.1834 641.608 44.8218 639.883 46.4488C638.158 48.0759 635.362 48.0759 633.637 46.4488L554.133 -28.5511Z" fill="#4785FF"/>
<path fill-rule="evenodd" clip-rule="evenodd" d="M601.425 -16.9141C601.425 -6.55873 610.324 1.83594 621.301 1.83594C632.278 1.83594 641.177 -6.55873 641.177 -16.9141C641.177 -27.2694 632.278 -35.6641 621.301 -35.6641C610.324 -35.6641 601.425 -27.2694 601.425 -16.9141ZM632.313 -16.9141C632.313 -11.177 627.383 -6.52628 621.301 -6.52628C615.219 -6.52628 610.289 -11.177 610.289 -16.9141C610.289 -22.6511 615.219 -27.3019 621.301 -27.3019C627.383 -27.3019 632.313 -22.6511 632.313 -16.9141Z" fill="#4785FF"/>
<path fill-rule="evenodd" clip-rule="evenodd" d="M552.839 28.9141C552.839 39.2695 561.738 47.6641 572.715 47.6641C583.692 47.6641 592.591 39.2695 592.591 28.9141C592.591 18.5586 583.692 10.1641 572.715 10.1641C561.738 10.1641 552.839 18.5586 552.839 28.9141ZM583.727 28.9141C583.727 34.6511 578.797 39.302 572.715 39.302C566.633 39.302 561.703 34.6511 561.703 28.9141C561.703 23.177 566.633 18.5261 572.715 18.5261C578.797 18.5261 583.727 23.177 583.727 28.9141Z" fill="#4785FF"/>
<path d="M704.647 53.3544C703.345 52.0527 703.345 49.9421 704.647 48.6404C705.948 47.3386 708.059 47.3386 709.361 48.6404L769.361 108.64C770.663 109.942 770.663 112.053 769.361 113.354C768.059 114.656 765.948 114.656 764.647 113.354L704.647 53.3544Z" fill="#4785FF"/>
<path fill-rule="evenodd" clip-rule="evenodd" d="M740.337 62.6641C740.337 70.9483 747.053 77.6641 755.337 77.6641C763.621 77.6641 770.337 70.9483 770.337 62.6641C770.337 54.3798 763.621 47.6641 755.337 47.6641C747.053 47.6641 740.337 54.3798 740.337 62.6641ZM763.647 62.6641C763.647 67.2537 759.927 70.9743 755.337 70.9743C750.747 70.9743 747.027 67.2537 747.027 62.6641C747.027 58.0744 750.747 54.3538 755.337 54.3538C759.927 54.3538 763.647 58.0744 763.647 62.6641Z" fill="#4785FF"/>
<path fill-rule="evenodd" clip-rule="evenodd" d="M703.673 99.3359C703.673 107.62 710.389 114.336 718.673 114.336C726.957 114.336 733.673 107.62 733.673 99.3359C733.673 91.0516 726.957 84.3359 718.673 84.3359C710.389 84.3359 703.673 91.0516 703.673 99.3359ZM726.983 99.3359C726.983 103.926 723.263 107.646 718.673 107.646C714.083 107.646 710.363 103.926 710.363 99.3359C710.363 94.7463 714.083 91.0256 718.673 91.0256C723.263 91.0256 726.983 94.7463 726.983 99.3359Z" fill="#4785FF"/>
<path d="M348.647 275.354C347.345 274.053 347.345 271.942 348.647 270.64C349.948 269.339 352.059 269.339 353.361 270.64L413.361 330.64C414.663 331.942 414.663 334.053 413.361 335.354C412.059 336.656 409.949 336.656 408.647 335.354L348.647 275.354Z" fill="#4785FF"/>
<path fill-rule="evenodd" clip-rule="evenodd" d="M384.337 284.664C384.337 292.948 391.053 299.664 399.337 299.664C407.621 299.664 414.337 292.948 414.337 284.664C414.337 276.38 407.621 269.664 399.337 269.664C391.053 269.664 384.337 276.38 384.337 284.664ZM407.647 284.664C407.647 289.254 403.927 292.974 399.337 292.974C394.747 292.974 391.027 289.254 391.027 284.664C391.027 280.074 394.747 276.354 399.337 276.354C403.927 276.354 407.647 280.074 407.647 284.664Z" fill="#4785FF"/>
<path fill-rule="evenodd" clip-rule="evenodd" d="M347.673 321.336C347.673 329.62 354.389 336.336 362.673 336.336C370.957 336.336 377.673 329.62 377.673 321.336C377.673 313.052 370.957 306.336 362.673 306.336C354.389 306.336 347.673 313.052 347.673 321.336ZM370.983 321.336C370.983 325.926 367.263 329.646 362.673 329.646C358.083 329.646 354.363 325.926 354.363 321.336C354.363 316.746 358.083 313.026 362.673 313.026C367.263 313.026 370.983 316.746 370.983 321.336Z" fill="#4785FF"/>
<path d="M406.647 197.354C405.345 196.053 405.345 193.942 406.647 192.64C407.948 191.339 410.059 191.339 411.361 192.64L471.361 252.64C472.663 253.942 472.663 256.053 471.361 257.354C470.059 258.656 467.949 258.656 466.647 257.354L406.647 197.354Z" fill="#4785FF"/>
<path fill-rule="evenodd" clip-rule="evenodd" d="M442.337 206.664C442.337 214.948 449.053 221.664 457.337 221.664C465.621 221.664 472.337 214.948 472.337 206.664C472.337 198.38 465.621 191.664 457.337 191.664C449.053 191.664 442.337 198.38 442.337 206.664ZM465.647 206.664C465.647 211.254 461.927 214.974 457.337 214.974C452.747 214.974 449.027 211.254 449.027 206.664C449.027 202.074 452.747 198.354 457.337 198.354C461.927 198.354 465.647 202.074 465.647 206.664Z" fill="#4785FF"/>
<path fill-rule="evenodd" clip-rule="evenodd" d="M405.673 243.336C405.673 251.62 412.389 258.336 420.673 258.336C428.957 258.336 435.673 251.62 435.673 243.336C435.673 235.052 428.957 228.336 420.673 228.336C412.389 228.336 405.673 235.052 405.673 243.336ZM428.983 243.336C428.983 247.926 425.263 251.646 420.673 251.646C416.083 251.646 412.363 247.926 412.363 243.336C412.363 238.746 416.083 235.026 420.673 235.026C425.263 235.026 428.983 238.746 428.983 243.336Z" fill="#4785FF"/>
<path d="M234.647 259.354C233.345 258.053 233.345 255.942 234.647 254.64C235.948 253.339 238.059 253.339 239.361 254.64L299.361 314.64C300.663 315.942 300.663 318.053 299.361 319.354C298.059 320.656 295.949 320.656 294.647 319.354L234.647 259.354Z" fill="#4785FF"/>
<path fill-rule="evenodd" clip-rule="evenodd" d="M270.337 268.664C270.337 276.948 277.053 283.664 285.337 283.664C293.621 283.664 300.337 276.948 300.337 268.664C300.337 260.38 293.621 253.664 285.337 253.664C277.053 253.664 270.337 260.38 270.337 268.664ZM293.647 268.664C293.647 273.254 289.927 276.974 285.337 276.974C280.747 276.974 277.027 273.254 277.027 268.664C277.027 264.074 280.747 260.354 285.337 260.354C289.927 260.354 293.647 264.074 293.647 268.664Z" fill="#4785FF"/>
<path fill-rule="evenodd" clip-rule="evenodd" d="M233.673 305.336C233.673 313.62 240.389 320.336 248.673 320.336C256.957 320.336 263.673 313.62 263.673 305.336C263.673 297.052 256.957 290.336 248.673 290.336C240.389 290.336 233.673 297.052 233.673 305.336ZM256.983 305.336C256.983 309.926 253.263 313.646 248.673 313.646C244.083 313.646 240.363 309.926 240.363 305.336C240.363 300.746 244.083 297.026 248.673 297.026C253.263 297.026 256.983 300.746 256.983 305.336Z" fill="#4785FF"/>
<path d="M106.647 294.354C105.345 293.053 105.345 290.942 106.647 289.64C107.948 288.339 110.059 288.339 111.361 289.64L171.361 349.64C172.663 350.942 172.663 353.053 171.361 354.354C170.059 355.656 167.949 355.656 166.647 354.354L106.647 294.354Z" fill="#4785FF"/>
<path fill-rule="evenodd" clip-rule="evenodd" d="M142.337 303.664C142.337 311.948 149.053 318.664 157.337 318.664C165.621 318.664 172.337 311.948 172.337 303.664C172.337 295.38 165.621 288.664 157.337 288.664C149.053 288.664 142.337 295.38 142.337 303.664ZM165.647 303.664C165.647 308.254 161.927 311.974 157.337 311.974C152.747 311.974 149.027 308.254 149.027 303.664C149.027 299.074 152.747 295.354 157.337 295.354C161.927 295.354 165.647 299.074 165.647 303.664Z" fill="#4785FF"/>
<path fill-rule="evenodd" clip-rule="evenodd" d="M105.673 340.336C105.673 348.62 112.389 355.336 120.673 355.336C128.957 355.336 135.673 348.62 135.673 340.336C135.673 332.052 128.957 325.336 120.673 325.336C112.389 325.336 105.673 332.052 105.673 340.336ZM128.983 340.336C128.983 344.926 125.263 348.646 120.673 348.646C116.083 348.646 112.363 344.926 112.363 340.336C112.363 335.746 116.083 332.026 120.673 332.026C125.263 332.026 128.983 335.746 128.983 340.336Z" fill="#4785FF"/>
<path d="M805.647 217.354C804.345 216.053 804.345 213.942 805.647 212.64C806.948 211.339 809.059 211.339 810.361 212.64L870.361 272.64C871.663 273.942 871.663 276.053 870.361 277.354C869.059 278.656 866.948 278.656 865.647 277.354L805.647 217.354Z" fill="#4785FF"/>
<path fill-rule="evenodd" clip-rule="evenodd" d="M841.337 226.664C841.337 234.948 848.053 241.664 856.337 241.664C864.621 241.664 871.337 234.948 871.337 226.664C871.337 218.38 864.621 211.664 856.337 211.664C848.053 211.664 841.337 218.38 841.337 226.664ZM864.647 226.664C864.647 231.254 860.927 234.974 856.337 234.974C851.747 234.974 848.027 231.254 848.027 226.664C848.027 222.074 851.747 218.354 856.337 218.354C860.927 218.354 864.647 222.074 864.647 226.664Z" fill="#4785FF"/>
<path fill-rule="evenodd" clip-rule="evenodd" d="M804.673 263.336C804.673 271.62 811.389 278.336 819.673 278.336C827.957 278.336 834.673 271.62 834.673 263.336C834.673 255.052 827.957 248.336 819.673 248.336C811.389 248.336 804.673 255.052 804.673 263.336ZM827.983 263.336C827.983 267.926 824.263 271.646 819.673 271.646C815.083 271.646 811.363 267.926 811.363 263.336C811.363 258.746 815.083 255.026 819.673 255.026C824.263 255.026 827.983 258.746 827.983 263.336Z" fill="#4785FF"/>
<path d="M699.788 24.0867C699.443 23.7612 699.443 23.2336 699.788 22.9081C700.133 22.5827 700.692 22.5827 701.037 22.9081L716.938 37.9081C717.283 38.2336 717.283 38.7612 716.938 39.0866C716.593 39.4121 716.033 39.4121 715.688 39.0866L699.788 24.0867Z" fill="#4785FF"/>
<path fill-rule="evenodd" clip-rule="evenodd" d="M709.246 26.4141C709.246 28.4851 711.026 30.1641 713.221 30.1641C715.417 30.1641 717.196 28.4851 717.196 26.4141C717.196 24.343 715.417 22.6641 713.221 22.6641C711.026 22.6641 709.246 24.343 709.246 26.4141ZM715.424 26.4141C715.424 27.5615 714.438 28.4916 713.221 28.4916C712.005 28.4916 711.019 27.5615 711.019 26.4141C711.019 25.2667 712.005 24.3365 713.221 24.3365C714.438 24.3365 715.424 25.2667 715.424 26.4141Z" fill="#4785FF"/>
<path fill-rule="evenodd" clip-rule="evenodd" d="M699.527 35.5859C699.527 37.657 701.307 39.3359 703.503 39.3359C705.698 39.3359 707.478 37.657 707.478 35.5859C707.478 33.5149 705.698 31.8359 703.503 31.8359C701.307 31.8359 699.527 33.5149 699.527 35.5859ZM705.705 35.5859C705.705 36.7334 704.719 37.6635 703.503 37.6635C702.286 37.6635 701.3 36.7334 701.3 35.5859C701.3 34.4385 702.286 33.5084 703.503 33.5084C704.719 33.5084 705.705 34.4385 705.705 35.5859Z" fill="#4785FF"/>
<path d="M796.024 121.087C795.679 120.761 795.679 120.234 796.024 119.908C796.369 119.583 796.928 119.583 797.273 119.908L813.174 134.908C813.519 135.234 813.519 135.761 813.174 136.087C812.829 136.412 812.27 136.412 811.925 136.087L796.024 121.087Z" fill="#4785FF"/>
<path fill-rule="evenodd" clip-rule="evenodd" d="M805.483 123.414C805.483 125.485 807.262 127.164 809.458 127.164C811.653 127.164 813.433 125.485 813.433 123.414C813.433 121.343 811.653 119.664 809.458 119.664C807.262 119.664 805.483 121.343 805.483 123.414ZM811.66 123.414C811.66 124.561 810.674 125.492 809.458 125.492C808.241 125.492 807.255 124.561 807.255 123.414C807.255 122.267 808.241 121.337 809.458 121.337C810.674 121.337 811.66 122.267 811.66 123.414Z" fill="#4785FF"/>
<path fill-rule="evenodd" clip-rule="evenodd" d="M795.764 132.586C795.764 134.657 797.544 136.336 799.739 136.336C801.934 136.336 803.714 134.657 803.714 132.586C803.714 130.515 801.934 128.836 799.739 128.836C797.544 128.836 795.764 130.515 795.764 132.586ZM801.941 132.586C801.941 133.733 800.955 134.664 799.739 134.664C798.523 134.664 797.537 133.733 797.537 132.586C797.537 131.439 798.523 130.508 799.739 130.508C800.955 130.508 801.941 131.439 801.941 132.586Z" fill="#4785FF"/>
<path d="M832.024 294.087C831.679 293.761 831.679 293.234 832.024 292.908C832.369 292.583 832.928 292.583 833.273 292.908L849.174 307.908C849.519 308.234 849.519 308.761 849.174 309.087C848.829 309.412 848.27 309.412 847.925 309.087L832.024 294.087Z" fill="#4785FF"/>
<path fill-rule="evenodd" clip-rule="evenodd" d="M841.483 296.414C841.483 298.485 843.262 300.164 845.458 300.164C847.653 300.164 849.433 298.485 849.433 296.414C849.433 294.343 847.653 292.664 845.458 292.664C843.262 292.664 841.483 294.343 841.483 296.414ZM847.66 296.414C847.66 297.561 846.674 298.492 845.458 298.492C844.241 298.492 843.255 297.561 843.255 296.414C843.255 295.267 844.241 294.337 845.458 294.337C846.674 294.337 847.66 295.267 847.66 296.414Z" fill="#4785FF"/>
<path fill-rule="evenodd" clip-rule="evenodd" d="M831.764 305.586C831.764 307.657 833.544 309.336 835.739 309.336C837.934 309.336 839.714 307.657 839.714 305.586C839.714 303.515 837.934 301.836 835.739 301.836C833.544 301.836 831.764 303.515 831.764 305.586ZM837.941 305.586C837.941 306.733 836.955 307.664 835.739 307.664C834.523 307.664 833.537 306.733 833.537 305.586C833.537 304.439 834.523 303.508 835.739 303.508C836.955 303.508 837.941 304.439 837.941 305.586Z" fill="#4785FF"/>
</svg>
