<svg width="980" height="534" viewBox="0 0 980 534" fill="none" xmlns="http://www.w3.org/2000/svg">
<path d="M536.81 240.186L534.005 227.042C533.505 224.698 532.047 222.66 529.951 221.374C527.856 220.089 525.294 219.662 522.83 220.187L494.962 226.133L493.725 220.337C494.883 218.824 495.418 216.89 495.001 214.937C494.626 213.179 493.532 211.65 491.96 210.686C490.389 209.722 488.468 209.402 486.62 209.796C484.772 210.19 483.149 211.267 482.107 212.788C481.066 214.31 480.692 216.152 481.067 217.91C481.483 219.863 482.76 221.41 484.435 222.319L485.672 228.115L457.803 234.061C455.339 234.587 453.175 236.022 451.787 238.051C450.398 240.08 449.899 242.536 450.399 244.88L453.225 258.125L452.895 258.219C451.741 258.548 450.752 259.28 450.126 260.268C449.501 261.256 449.286 262.427 449.525 263.543L451.41 272.38C451.66 273.551 452.389 274.571 453.437 275.214C454.485 275.856 455.765 276.07 456.997 275.807L461.711 297.898C462.211 300.241 463.669 302.28 465.764 303.565C467.86 304.851 470.422 305.278 472.885 304.752L537.913 290.878C540.376 290.353 542.541 288.918 543.929 286.889C545.318 284.86 545.817 282.404 545.317 280.06L540.604 257.969C541.836 257.706 542.918 256.989 543.612 255.974C544.306 254.96 544.556 253.732 544.306 252.56L542.479 243.997C542.387 243.3 542.125 242.637 541.716 242.059C540.317 240.103 538.196 240.015 536.81 240.186ZM473.974 258.327C472.934 253.449 473.559 247.092 477.405 246.272C481.251 245.451 483.936 251.102 484.977 255.979C486.017 260.857 485.685 266.234 481.839 267.054C477.993 267.875 475.015 263.205 473.974 258.327ZM519.485 272.791C519.879 274.663 518.727 276.659 516.972 277.421C513.428 278.961 507.845 281.492 502.073 282.724C495.643 284.097 489.042 284.234 485.559 284.187C484.074 284.167 482.835 283.102 482.525 281.65C482.064 279.49 483.806 277.457 486.015 277.456C489.714 277.454 495.246 277.21 500.651 276.056C506.43 274.822 512.01 272.235 515.551 270.663C517.3 269.886 519.091 270.919 519.485 272.791ZM514.353 260.117C510.507 260.938 508.022 256.162 506.981 251.285C505.941 246.407 506.073 240.155 509.919 239.335C513.765 238.514 516.943 244.06 517.984 248.937C519.025 253.815 518.199 259.297 514.353 260.117Z" fill="white"/>
<path d="M539.179 139.464L536.575 142.543C536.111 143.092 535.895 143.812 535.975 144.545C536.055 145.279 536.424 145.965 537.001 146.453L543.529 151.973L542.38 153.331C541.809 153.334 541.252 153.562 540.865 154.019C540.517 154.431 540.355 154.971 540.415 155.521C540.475 156.071 540.752 156.586 541.184 156.952C541.617 157.318 542.171 157.505 542.723 157.473C543.275 157.44 543.781 157.191 544.129 156.779C544.516 156.322 544.648 155.735 544.556 155.171L545.705 153.813L552.232 159.333C552.809 159.821 553.547 160.071 554.283 160.028C555.02 159.985 555.694 159.652 556.158 159.103L558.782 156.001L558.865 156.062C559.155 156.275 559.51 156.376 559.859 156.343C560.209 156.31 560.526 156.146 560.747 155.884L562.497 153.814C562.729 153.54 562.837 153.18 562.797 152.813C562.757 152.446 562.573 152.103 562.284 151.859L566.66 146.685C567.124 146.136 567.34 145.416 567.26 144.683C567.181 143.949 566.811 143.263 566.234 142.775L551.003 129.895C550.426 129.407 549.688 129.157 548.952 129.2C548.216 129.243 547.541 129.576 547.077 130.125L542.701 135.299C542.413 135.055 542.044 134.93 541.676 134.951C541.308 134.973 540.97 135.139 540.738 135.414L539.042 137.419C538.894 137.569 538.784 137.753 538.722 137.956C538.515 138.647 538.884 139.167 539.179 139.464ZM555.02 151.041C554.054 152.184 552.431 153.202 551.53 152.441C550.629 151.679 551.477 150.004 552.443 148.862C553.409 147.719 554.746 146.811 555.647 147.573C556.547 148.335 555.986 149.899 555.02 151.041ZM550.096 137.588C550.467 137.151 551.152 137.058 551.655 137.334C552.671 137.892 554.297 138.752 555.649 139.895C557.156 141.169 558.4 142.709 559.028 143.545C559.296 143.901 559.271 144.39 558.983 144.73C558.556 145.236 557.753 145.196 557.348 144.672C556.668 143.795 555.594 142.527 554.328 141.457C552.974 140.312 551.336 139.463 550.313 138.912C549.807 138.64 549.724 138.025 550.096 137.588ZM548.031 141.133C548.932 141.894 548.255 143.361 547.289 144.503C546.323 145.646 544.815 146.762 543.914 146C543.014 145.239 543.746 143.466 544.712 142.324C545.678 141.181 547.13 140.371 548.031 141.133Z" fill="white"/>
<path d="M336.316 287.868L330.467 291.176C329.424 291.766 328.67 292.768 328.371 293.96C328.073 295.152 328.253 296.438 328.873 297.535L335.889 309.936L333.31 311.395C332.414 311.069 331.412 311.104 330.543 311.596C329.761 312.038 329.195 312.789 328.971 313.684C328.747 314.578 328.882 315.542 329.348 316.365C329.813 317.187 330.57 317.8 331.452 318.068C332.334 318.337 333.268 318.239 334.051 317.797C334.919 317.305 335.466 316.464 335.648 315.529L338.228 314.069L345.243 326.47C345.863 327.567 346.872 328.384 348.048 328.742C349.224 329.1 350.471 328.97 351.514 328.38L357.408 325.045L357.502 325.188C357.832 325.69 358.33 326.052 358.895 326.202C359.46 326.352 360.05 326.279 360.547 325.998L364.479 323.773C365 323.478 365.377 322.977 365.527 322.381C365.676 321.785 365.586 321.142 365.276 320.594L375.106 315.033C376.149 314.443 376.902 313.442 377.201 312.249C377.5 311.057 377.319 309.771 376.699 308.675L360.329 279.739C359.709 278.643 358.7 277.826 357.524 277.467C356.348 277.109 355.102 277.24 354.059 277.83L344.229 283.391C343.919 282.843 343.414 282.434 342.826 282.255C342.238 282.076 341.615 282.141 341.094 282.436L337.283 284.592C336.965 284.74 336.687 284.965 336.473 285.247C335.75 286.207 336.026 287.232 336.316 287.868ZM354.392 315.118C352.222 316.346 349.096 317.001 348.128 315.289C347.159 313.578 349.452 311.45 351.622 310.222C353.793 308.994 356.407 308.346 357.375 310.058C358.343 311.769 356.563 313.89 354.392 315.118ZM354.466 291.241C355.3 290.772 356.425 291.023 357.051 291.745C358.317 293.205 360.362 295.488 361.815 298.056C363.434 300.918 364.49 304.046 364.989 305.714C365.203 306.425 364.881 307.176 364.234 307.542C363.273 308.085 362.042 307.559 361.711 306.506C361.155 304.742 360.209 302.14 358.848 299.735C357.393 297.163 355.322 294.89 354.041 293.437C353.408 292.719 353.632 291.71 354.466 291.241ZM349.19 295.59C350.159 297.301 348.253 299.202 346.083 300.43C343.912 301.658 340.911 302.533 339.943 300.821C338.975 299.11 341.143 296.762 343.313 295.535C345.484 294.307 348.222 293.878 349.19 295.59Z" fill="white"/>
<path d="M370.05 291.179C369.36 290.528 369.36 289.472 370.05 288.821C370.74 288.171 371.859 288.171 372.549 288.821L404.35 318.822C405.04 319.472 405.04 320.528 404.35 321.178C403.66 321.829 402.542 321.829 401.852 321.178L370.05 291.179Z" fill="#4785FF"/>
<path fill-rule="evenodd" clip-rule="evenodd" d="M388.967 295.833C388.967 299.975 392.526 303.333 396.917 303.333C401.308 303.333 404.868 299.975 404.868 295.833C404.868 291.691 401.308 288.333 396.917 288.333C392.526 288.333 388.967 291.691 388.967 295.833ZM401.322 295.833C401.322 298.128 399.35 299.988 396.917 299.988C394.485 299.988 392.513 298.128 392.513 295.833C392.513 293.539 394.485 291.678 396.917 291.678C399.35 291.678 401.322 293.539 401.322 295.833Z" fill="#4785FF"/>
<path fill-rule="evenodd" clip-rule="evenodd" d="M369.533 314.167C369.533 318.309 373.092 321.667 377.483 321.667C381.874 321.667 385.433 318.309 385.433 314.167C385.433 310.024 381.874 306.667 377.483 306.667C373.092 306.667 369.533 310.024 369.533 314.167ZM381.888 314.167C381.888 316.461 379.916 318.322 377.483 318.322C375.05 318.322 373.078 316.461 373.078 314.167C373.078 311.872 375.05 310.012 377.483 310.012C379.916 310.012 381.888 311.872 381.888 314.167Z" fill="#4785FF"/>
<path d="M161.052 334.179C160.362 333.528 160.362 332.472 161.052 331.821C161.742 331.171 162.861 331.171 163.55 331.821L195.352 361.822C196.042 362.472 196.042 363.528 195.352 364.178C194.662 364.829 193.543 364.829 192.854 364.178L161.052 334.179Z" fill="#4785FF"/>
<path fill-rule="evenodd" clip-rule="evenodd" d="M179.969 338.833C179.969 342.975 183.528 346.333 187.919 346.333C192.31 346.333 195.87 342.975 195.87 338.833C195.87 334.691 192.31 331.333 187.919 331.333C183.528 331.333 179.969 334.691 179.969 338.833ZM192.324 338.833C192.324 341.128 190.352 342.988 187.919 342.988C185.487 342.988 183.515 341.128 183.515 338.833C183.515 336.539 185.487 334.678 187.919 334.678C190.352 334.678 192.324 336.539 192.324 338.833Z" fill="#4785FF"/>
<path fill-rule="evenodd" clip-rule="evenodd" d="M160.534 357.167C160.534 361.309 164.094 364.667 168.485 364.667C172.876 364.667 176.435 361.309 176.435 357.167C176.435 353.024 172.876 349.667 168.485 349.667C164.094 349.667 160.534 353.024 160.534 357.167ZM172.89 357.167C172.89 359.461 170.918 361.322 168.485 361.322C166.052 361.322 164.08 359.461 164.08 357.167C164.08 354.872 166.052 353.012 168.485 353.012C170.918 353.012 172.89 354.872 172.89 357.167Z" fill="#4785FF"/>
<path d="M25.0519 334.179C24.362 333.528 24.362 332.472 25.0519 331.821C25.7419 331.171 26.8606 331.171 27.5505 331.821L59.3521 361.822C60.042 362.472 60.042 363.528 59.3521 364.178C58.6621 364.829 57.5435 364.829 56.8535 364.178L25.0519 334.179Z" fill="#4785FF"/>
<path fill-rule="evenodd" clip-rule="evenodd" d="M43.9687 338.833C43.9687 342.975 47.5283 346.333 51.9191 346.333C56.31 346.333 59.8695 342.975 59.8695 338.833C59.8695 334.691 56.31 331.333 51.9191 331.333C47.5283 331.333 43.9687 334.691 43.9687 338.833ZM56.3238 338.833C56.3238 341.128 54.3518 342.988 51.9191 342.988C49.4865 342.988 47.5145 341.128 47.5145 338.833C47.5145 336.539 49.4865 334.678 51.9191 334.678C54.3518 334.678 56.3238 336.539 56.3238 338.833Z" fill="#4785FF"/>
<path fill-rule="evenodd" clip-rule="evenodd" d="M24.5345 357.167C24.5345 361.309 28.0939 364.667 32.4848 364.667C36.8758 364.667 40.4352 361.309 40.4352 357.167C40.4352 353.024 36.8758 349.667 32.4848 349.667C28.0939 349.667 24.5345 353.024 24.5345 357.167ZM36.8895 357.167C36.8895 359.461 34.9175 361.322 32.4848 361.322C30.0522 361.322 28.0802 359.461 28.0802 357.167C28.0802 354.872 30.0522 353.012 32.4848 353.012C34.9175 353.012 36.8895 354.872 36.8895 357.167Z" fill="#4785FF"/>
<path d="M293.024 270.089C292.679 269.764 292.679 269.236 293.024 268.911C293.369 268.585 293.929 268.585 294.274 268.911L310.174 283.911C310.519 284.236 310.519 284.764 310.174 285.089C309.829 285.415 309.27 285.415 308.925 285.089L293.024 270.089Z" fill="#4785FF"/>
<path fill-rule="evenodd" clip-rule="evenodd" d="M302.483 272.417C302.483 274.488 304.263 276.167 306.458 276.167C308.653 276.167 310.433 274.488 310.433 272.417C310.433 270.346 308.653 268.667 306.458 268.667C304.263 268.667 302.483 270.346 302.483 272.417ZM308.66 272.417C308.66 273.564 307.674 274.494 306.458 274.494C305.242 274.494 304.256 273.564 304.256 272.417C304.256 271.269 305.242 270.339 306.458 270.339C307.674 270.339 308.66 271.269 308.66 272.417Z" fill="#4785FF"/>
<path fill-rule="evenodd" clip-rule="evenodd" d="M292.766 281.583C292.766 283.654 294.545 285.333 296.741 285.333C298.936 285.333 300.716 283.654 300.716 281.583C300.716 279.512 298.936 277.833 296.741 277.833C294.545 277.833 292.766 279.512 292.766 281.583ZM298.943 281.583C298.943 282.731 297.957 283.661 296.741 283.661C295.524 283.661 294.538 282.731 294.538 281.583C294.538 280.436 295.524 279.506 296.741 279.506C297.957 279.506 298.943 280.436 298.943 281.583Z" fill="#4785FF"/>
<path d="M599.108 203.893C595.854 200.638 595.854 195.362 599.108 192.107C602.362 188.853 607.639 188.853 610.893 192.107L760.893 342.107C764.148 345.362 764.148 350.638 760.893 353.892C757.639 357.147 752.363 357.147 749.108 353.892L599.108 203.893Z" fill="#4785FF"/>
<path fill-rule="evenodd" clip-rule="evenodd" d="M688.334 227.167C688.334 247.877 705.123 264.667 725.834 264.667C746.545 264.667 763.334 247.877 763.334 227.167C763.334 206.456 746.545 189.667 725.834 189.667C705.123 189.667 688.334 206.456 688.334 227.167ZM746.61 227.167C746.61 238.641 737.308 247.942 725.834 247.942C714.36 247.942 705.058 238.641 705.058 227.167C705.058 215.693 714.36 206.391 725.834 206.391C737.308 206.391 746.61 215.693 746.61 227.167Z" fill="#4785FF"/>
<path fill-rule="evenodd" clip-rule="evenodd" d="M596.667 318.833C596.667 339.544 613.457 356.333 634.167 356.333C654.878 356.333 671.667 339.544 671.667 318.833C671.667 298.123 654.878 281.333 634.167 281.333C613.457 281.333 596.667 298.123 596.667 318.833ZM654.943 318.833C654.943 330.308 645.642 339.609 634.167 339.609C622.693 339.609 613.392 330.308 613.392 318.833C613.392 307.359 622.693 298.057 634.167 298.057C645.642 298.057 654.943 307.359 654.943 318.833Z" fill="#4785FF"/>
<path d="M412.106 380.893C408.852 377.638 408.852 372.362 412.106 369.107C415.361 365.853 420.637 365.853 423.891 369.107L573.891 519.107C577.146 522.362 577.146 527.638 573.891 530.893C570.637 534.147 565.361 534.147 562.106 530.893L412.106 380.893Z" fill="#4785FF"/>
<path fill-rule="evenodd" clip-rule="evenodd" d="M501.332 404.167C501.332 424.877 518.122 441.667 538.832 441.667C559.543 441.667 576.332 424.877 576.332 404.167C576.332 383.456 559.543 366.667 538.832 366.667C518.122 366.667 501.332 383.456 501.332 404.167ZM559.608 404.167C559.608 415.641 550.306 424.942 538.832 424.942C527.358 424.942 518.057 415.641 518.057 404.167C518.057 392.693 527.358 383.391 538.832 383.391C550.306 383.391 559.608 392.693 559.608 404.167Z" fill="#4785FF"/>
<path fill-rule="evenodd" clip-rule="evenodd" d="M409.666 495.833C409.666 516.544 426.455 533.333 447.166 533.333C467.876 533.333 484.666 516.544 484.666 495.833C484.666 475.123 467.876 458.333 447.166 458.333C426.455 458.333 409.666 475.123 409.666 495.833ZM467.941 495.833C467.941 507.308 458.64 516.609 447.166 516.609C435.691 516.609 426.39 507.308 426.39 495.833C426.39 484.359 435.691 475.057 447.166 475.057C458.64 475.057 467.941 484.359 467.941 495.833Z" fill="#4785FF"/>
<path d="M467.05 311.179C466.36 310.528 466.36 309.472 467.05 308.821C467.74 308.171 468.859 308.171 469.549 308.821L501.35 338.822C502.04 339.472 502.04 340.528 501.35 341.178C500.66 341.829 499.542 341.829 498.852 341.178L467.05 311.179Z" fill="#4785FF"/>
<path fill-rule="evenodd" clip-rule="evenodd" d="M485.967 315.833C485.967 319.975 489.526 323.333 493.917 323.333C498.308 323.333 501.868 319.975 501.868 315.833C501.868 311.691 498.308 308.333 493.917 308.333C489.526 308.333 485.967 311.691 485.967 315.833ZM498.322 315.833C498.322 318.128 496.35 319.988 493.917 319.988C491.485 319.988 489.513 318.128 489.513 315.833C489.513 313.539 491.485 311.678 493.917 311.678C496.35 311.678 498.322 313.539 498.322 315.833Z" fill="#4785FF"/>
<path fill-rule="evenodd" clip-rule="evenodd" d="M466.533 334.167C466.533 338.309 470.092 341.667 474.483 341.667C478.874 341.667 482.433 338.309 482.433 334.167C482.433 330.024 478.874 326.667 474.483 326.667C470.092 326.667 466.533 330.024 466.533 334.167ZM478.888 334.167C478.888 336.461 476.916 338.322 474.483 338.322C472.05 338.322 470.078 336.461 470.078 334.167C470.078 331.872 472.05 330.012 474.483 330.012C476.916 330.012 478.888 331.872 478.888 334.167Z" fill="#4785FF"/>
<path d="M559.05 202.179C558.36 201.528 558.36 200.472 559.05 199.821C559.74 199.171 560.858 199.171 561.548 199.821L593.35 229.822C594.04 230.472 594.04 231.528 593.35 232.178C592.66 232.829 591.541 232.829 590.851 232.178L559.05 202.179Z" fill="#4785FF"/>
<path fill-rule="evenodd" clip-rule="evenodd" d="M577.967 206.833C577.967 210.975 581.526 214.333 585.917 214.333C590.308 214.333 593.867 210.975 593.867 206.833C593.867 202.691 590.308 199.333 585.917 199.333C581.526 199.333 577.967 202.691 577.967 206.833ZM590.322 206.833C590.322 209.128 588.35 210.988 585.917 210.988C583.484 210.988 581.512 209.128 581.512 206.833C581.512 204.539 583.484 202.678 585.917 202.678C588.35 202.678 590.322 204.539 590.322 206.833Z" fill="#4785FF"/>
<path fill-rule="evenodd" clip-rule="evenodd" d="M558.532 225.167C558.532 229.309 562.092 232.667 566.483 232.667C570.874 232.667 574.433 229.309 574.433 225.167C574.433 221.025 570.874 217.667 566.483 217.667C562.092 217.667 558.532 221.025 558.532 225.167ZM570.887 225.167C570.887 227.462 568.915 229.322 566.483 229.322C564.05 229.322 562.078 227.462 562.078 225.167C562.078 222.872 564.05 221.012 566.483 221.012C568.915 221.012 570.887 222.872 570.887 225.167Z" fill="#4785FF"/>
<path d="M259.024 287.089C258.679 286.764 258.679 286.236 259.024 285.911C259.369 285.585 259.929 285.585 260.274 285.911L276.174 300.911C276.519 301.236 276.519 301.764 276.174 302.089C275.829 302.415 275.27 302.415 274.925 302.089L259.024 287.089Z" fill="#4785FF"/>
<path fill-rule="evenodd" clip-rule="evenodd" d="M268.483 289.417C268.483 291.488 270.263 293.167 272.458 293.167C274.653 293.167 276.433 291.488 276.433 289.417C276.433 287.346 274.653 285.667 272.458 285.667C270.263 285.667 268.483 287.346 268.483 289.417ZM274.66 289.417C274.66 290.564 273.674 291.494 272.458 291.494C271.242 291.494 270.256 290.564 270.256 289.417C270.256 288.269 271.242 287.339 272.458 287.339C273.674 287.339 274.66 288.269 274.66 289.417Z" fill="#4785FF"/>
<path fill-rule="evenodd" clip-rule="evenodd" d="M258.766 298.583C258.766 300.654 260.545 302.333 262.741 302.333C264.936 302.333 266.716 300.654 266.716 298.583C266.716 296.512 264.936 294.833 262.741 294.833C260.545 294.833 258.766 296.512 258.766 298.583ZM264.943 298.583C264.943 299.731 263.957 300.661 262.741 300.661C261.525 300.661 260.538 299.731 260.538 298.583C260.538 297.436 261.525 296.506 262.741 296.506C263.957 296.506 264.943 297.436 264.943 298.583Z" fill="#4785FF"/>
<path d="M183.024 307.089C182.679 306.764 182.679 306.236 183.024 305.911C183.369 305.585 183.929 305.585 184.274 305.911L200.174 320.911C200.519 321.236 200.519 321.764 200.174 322.089C199.829 322.415 199.27 322.415 198.925 322.089L183.024 307.089Z" fill="#4785FF"/>
<path fill-rule="evenodd" clip-rule="evenodd" d="M192.483 309.417C192.483 311.488 194.263 313.167 196.458 313.167C198.653 313.167 200.433 311.488 200.433 309.417C200.433 307.346 198.653 305.667 196.458 305.667C194.263 305.667 192.483 307.346 192.483 309.417ZM198.66 309.417C198.66 310.564 197.674 311.494 196.458 311.494C195.242 311.494 194.256 310.564 194.256 309.417C194.256 308.269 195.242 307.339 196.458 307.339C197.674 307.339 198.66 308.269 198.66 309.417Z" fill="#4785FF"/>
<path fill-rule="evenodd" clip-rule="evenodd" d="M182.766 318.583C182.766 320.654 184.545 322.333 186.741 322.333C188.936 322.333 190.716 320.654 190.716 318.583C190.716 316.512 188.936 314.833 186.741 314.833C184.545 314.833 182.766 316.512 182.766 318.583ZM188.943 318.583C188.943 319.731 187.957 320.661 186.741 320.661C185.525 320.661 184.538 319.731 184.538 318.583C184.538 317.436 185.525 316.506 186.741 316.506C187.957 316.506 188.943 317.436 188.943 318.583Z" fill="#4785FF"/>
<path d="M13.0244 287.089C12.6794 286.764 12.6794 286.236 13.0244 285.911C13.3693 285.585 13.9287 285.585 14.2736 285.911L30.1744 300.911C30.5194 301.236 30.5194 301.764 30.1744 302.089C29.8294 302.415 29.2701 302.415 28.9251 302.089L13.0244 287.089Z" fill="#4785FF"/>
<path fill-rule="evenodd" clip-rule="evenodd" d="M22.4828 289.417C22.4828 291.488 24.2625 293.167 26.458 293.167C28.6534 293.167 30.4332 291.488 30.4332 289.417C30.4332 287.346 28.6534 285.667 26.458 285.667C24.2625 285.667 22.4828 287.346 22.4828 289.417ZM28.6603 289.417C28.6603 290.564 27.6743 291.494 26.458 291.494C25.2417 291.494 24.2556 290.564 24.2556 289.417C24.2556 288.269 25.2417 287.339 26.458 287.339C27.6743 287.339 28.6603 288.269 28.6603 289.417Z" fill="#4785FF"/>
<path fill-rule="evenodd" clip-rule="evenodd" d="M12.7656 298.583C12.7656 300.654 14.5454 302.333 16.7408 302.333C18.9363 302.333 20.716 300.654 20.716 298.583C20.716 296.512 18.9363 294.833 16.7408 294.833C14.5454 294.833 12.7656 296.512 12.7656 298.583ZM18.9432 298.583C18.9432 299.731 17.9571 300.661 16.7408 300.661C15.5245 300.661 14.5385 299.731 14.5385 298.583C14.5385 297.436 15.5245 296.506 16.7408 296.506C17.9571 296.506 18.9432 297.436 18.9432 298.583Z" fill="#4785FF"/>
<path d="M295.052 295.179C294.362 294.528 294.362 293.472 295.052 292.821C295.742 292.171 296.861 292.171 297.551 292.821L329.352 322.822C330.042 323.472 330.042 324.528 329.352 325.178C328.662 325.829 327.543 325.829 326.853 325.178L295.052 295.179Z" fill="#4785FF"/>
<path fill-rule="evenodd" clip-rule="evenodd" d="M313.969 299.833C313.969 303.975 317.528 307.333 321.919 307.333C326.31 307.333 329.87 303.975 329.87 299.833C329.87 295.691 326.31 292.333 321.919 292.333C317.528 292.333 313.969 295.691 313.969 299.833ZM326.324 299.833C326.324 302.128 324.352 303.988 321.919 303.988C319.487 303.988 317.514 302.128 317.514 299.833C317.514 297.539 319.487 295.678 321.919 295.678C324.352 295.678 326.324 297.539 326.324 299.833Z" fill="#4785FF"/>
<path fill-rule="evenodd" clip-rule="evenodd" d="M294.534 318.167C294.534 322.309 298.094 325.667 302.485 325.667C306.876 325.667 310.435 322.309 310.435 318.167C310.435 314.024 306.876 310.667 302.485 310.667C298.094 310.667 294.534 314.024 294.534 318.167ZM306.89 318.167C306.89 320.461 304.918 322.322 302.485 322.322C300.052 322.322 298.08 320.461 298.08 318.167C298.08 315.872 300.052 314.012 302.485 314.012C304.918 314.012 306.89 315.872 306.89 318.167Z" fill="#4785FF"/>
<path d="M276.052 346.179C275.362 345.528 275.362 344.472 276.052 343.821C276.742 343.171 277.861 343.171 278.551 343.821L310.352 373.822C311.042 374.472 311.042 375.528 310.352 376.178C309.662 376.829 308.543 376.829 307.853 376.178L276.052 346.179Z" fill="#4785FF"/>
<path fill-rule="evenodd" clip-rule="evenodd" d="M294.969 350.833C294.969 354.975 298.528 358.333 302.919 358.333C307.31 358.333 310.87 354.975 310.87 350.833C310.87 346.691 307.31 343.333 302.919 343.333C298.528 343.333 294.969 346.691 294.969 350.833ZM307.324 350.833C307.324 353.128 305.352 354.988 302.919 354.988C300.487 354.988 298.514 353.128 298.514 350.833C298.514 348.539 300.487 346.678 302.919 346.678C305.352 346.678 307.324 348.539 307.324 350.833Z" fill="#4785FF"/>
<path fill-rule="evenodd" clip-rule="evenodd" d="M275.534 369.167C275.534 373.309 279.094 376.667 283.485 376.667C287.876 376.667 291.435 373.309 291.435 369.167C291.435 365.024 287.876 361.667 283.485 361.667C279.094 361.667 275.534 365.024 275.534 369.167ZM287.89 369.167C287.89 371.461 285.918 373.322 283.485 373.322C281.052 373.322 279.08 371.461 279.08 369.167C279.08 366.872 281.052 365.012 283.485 365.012C285.918 365.012 287.89 366.872 287.89 369.167Z" fill="#4785FF"/>
<path d="M799.108 73.8926C795.854 70.6382 795.854 65.3618 799.108 62.1074C802.362 58.8531 807.639 58.8531 810.893 62.1074L960.893 212.107C964.148 215.362 964.148 220.638 960.893 223.893C957.639 227.147 952.363 227.147 949.108 223.893L799.108 73.8926Z" fill="#4785FF"/>
<path fill-rule="evenodd" clip-rule="evenodd" d="M888.334 97.1667C888.334 117.877 905.123 134.667 925.834 134.667C946.545 134.667 963.334 117.877 963.334 97.1667C963.334 76.456 946.545 59.6667 925.834 59.6667C905.123 59.6667 888.334 76.456 888.334 97.1667ZM946.61 97.1667C946.61 108.641 937.308 117.942 925.834 117.942C914.36 117.942 905.058 108.641 905.058 97.1667C905.058 85.6926 914.36 76.3911 925.834 76.3911C937.308 76.3911 946.61 85.6926 946.61 97.1667Z" fill="#4785FF"/>
<path fill-rule="evenodd" clip-rule="evenodd" d="M796.667 188.833C796.667 209.544 813.457 226.333 834.167 226.333C854.878 226.333 871.667 209.544 871.667 188.833C871.667 168.122 854.878 151.333 834.167 151.333C813.457 151.333 796.667 168.122 796.667 188.833ZM854.943 188.833C854.943 200.307 845.642 209.609 834.167 209.609C822.693 209.609 813.392 200.307 813.392 188.833C813.392 177.359 822.693 168.057 834.167 168.057C845.642 168.057 854.943 177.359 854.943 188.833Z" fill="#4785FF"/>
<path d="M755.076 101.268C754.041 100.291 754.041 98.7085 755.076 97.7322C756.111 96.7559 757.789 96.7559 758.823 97.7322L806.526 142.732C807.561 143.708 807.561 145.291 806.526 146.268C805.491 147.244 803.813 147.244 802.778 146.268L755.076 101.268Z" fill="#4785FF"/>
<path fill-rule="evenodd" clip-rule="evenodd" d="M783.451 108.25C783.451 114.463 788.79 119.5 795.376 119.5C801.963 119.5 807.302 114.463 807.302 108.25C807.302 102.037 801.963 97 795.376 97C788.79 97 783.451 102.037 783.451 108.25ZM801.983 108.25C801.983 111.692 799.025 114.483 795.376 114.483C791.727 114.483 788.769 111.692 788.769 108.25C788.769 104.808 791.727 102.017 795.376 102.017C799.025 102.017 801.983 104.808 801.983 108.25Z" fill="#4785FF"/>
<path fill-rule="evenodd" clip-rule="evenodd" d="M754.299 135.75C754.299 141.963 759.639 147 766.225 147C772.811 147 778.151 141.963 778.151 135.75C778.151 129.537 772.811 124.5 766.225 124.5C759.639 124.5 754.299 129.537 754.299 135.75ZM772.832 135.75C772.832 139.192 769.874 141.983 766.225 141.983C762.576 141.983 759.618 139.192 759.618 135.75C759.618 132.308 762.576 129.517 766.225 129.517C769.874 129.517 772.832 132.308 772.832 135.75Z" fill="#4785FF"/>
<path d="M598.638 248.089C598.293 247.764 598.293 247.236 598.638 246.911C598.983 246.585 599.542 246.585 599.887 246.911L615.788 261.911C616.133 262.236 616.133 262.764 615.788 263.089C615.443 263.415 614.883 263.415 614.538 263.089L598.638 248.089Z" fill="#4785FF"/>
<path fill-rule="evenodd" clip-rule="evenodd" d="M608.096 250.417C608.096 252.488 609.876 254.167 612.071 254.167C614.267 254.167 616.046 252.488 616.046 250.417C616.046 248.346 614.267 246.667 612.071 246.667C609.876 246.667 608.096 248.346 608.096 250.417ZM614.274 250.417C614.274 251.564 613.288 252.494 612.071 252.494C610.855 252.494 609.869 251.564 609.869 250.417C609.869 249.269 610.855 248.339 612.071 248.339C613.288 248.339 614.274 249.269 614.274 250.417Z" fill="#4785FF"/>
<path fill-rule="evenodd" clip-rule="evenodd" d="M598.379 259.583C598.379 261.654 600.159 263.333 602.354 263.333C604.55 263.333 606.329 261.654 606.329 259.583C606.329 257.512 604.55 255.833 602.354 255.833C600.159 255.833 598.379 257.512 598.379 259.583ZM604.556 259.583C604.556 260.731 603.57 261.661 602.354 261.661C601.138 261.661 600.152 260.731 600.152 259.583C600.152 258.436 601.138 257.506 602.354 257.506C603.57 257.506 604.556 258.436 604.556 259.583Z" fill="#4785FF"/>
<path d="M454.023 83.0893C453.678 82.7638 453.678 82.2362 454.023 81.9107C454.368 81.5853 454.927 81.5853 455.272 81.9107L471.173 96.9108C471.518 97.2362 471.518 97.7638 471.173 98.0892C470.828 98.4147 470.268 98.4147 469.923 98.0892L454.023 83.0893Z" fill="#4785FF"/>
<path fill-rule="evenodd" clip-rule="evenodd" d="M463.481 85.4167C463.481 87.4877 465.261 89.1667 467.456 89.1667C469.652 89.1667 471.431 87.4877 471.431 85.4167C471.431 83.3456 469.652 81.6667 467.456 81.6667C465.261 81.6667 463.481 83.3456 463.481 85.4167ZM469.658 85.4167C469.658 86.5641 468.672 87.4942 467.456 87.4942C466.24 87.4942 465.254 86.5641 465.254 85.4167C465.254 84.2693 466.24 83.3391 467.456 83.3391C468.672 83.3391 469.658 84.2693 469.658 85.4167Z" fill="#4785FF"/>
<path fill-rule="evenodd" clip-rule="evenodd" d="M453.764 94.5833C453.764 96.6544 455.544 98.3333 457.739 98.3333C459.934 98.3333 461.714 96.6544 461.714 94.5833C461.714 92.5123 459.934 90.8333 457.739 90.8333C455.544 90.8333 453.764 92.5123 453.764 94.5833ZM459.941 94.5833C459.941 95.7308 458.955 96.6609 457.739 96.6609C456.523 96.6609 455.537 95.7308 455.537 94.5833C455.537 93.4359 456.523 92.5058 457.739 92.5058C458.955 92.5058 459.941 93.4359 459.941 94.5833Z" fill="#4785FF"/>
<path d="M635.646 193.179C634.956 192.528 634.956 191.472 635.646 190.821C636.336 190.171 637.454 190.171 638.144 190.821L669.946 220.822C670.636 221.472 670.636 222.528 669.946 223.178C669.256 223.829 668.137 223.829 667.447 223.178L635.646 193.179Z" fill="#4785FF"/>
<path fill-rule="evenodd" clip-rule="evenodd" d="M654.562 197.833C654.562 201.975 658.122 205.333 662.513 205.333C666.904 205.333 670.463 201.975 670.463 197.833C670.463 193.691 666.904 190.333 662.513 190.333C658.122 190.333 654.562 193.691 654.562 197.833ZM666.918 197.833C666.918 200.128 664.946 201.988 662.513 201.988C660.08 201.988 658.108 200.128 658.108 197.833C658.108 195.539 660.08 193.678 662.513 193.678C664.946 193.678 666.918 195.539 666.918 197.833Z" fill="#4785FF"/>
<path fill-rule="evenodd" clip-rule="evenodd" d="M635.128 216.167C635.128 220.309 638.688 223.667 643.079 223.667C647.47 223.667 651.029 220.309 651.029 216.167C651.029 212.025 647.47 208.667 643.079 208.667C638.688 208.667 635.128 212.025 635.128 216.167ZM647.483 216.167C647.483 218.462 645.511 220.322 643.079 220.322C640.646 220.322 638.674 218.462 638.674 216.167C638.674 213.872 640.646 212.012 643.079 212.012C645.511 212.012 647.483 213.872 647.483 216.167Z" fill="#4785FF"/>
<path d="M723.076 26.2678C722.041 25.2914 722.041 23.7086 723.076 22.7322C724.111 21.7559 725.789 21.7559 726.823 22.7322L774.526 67.7322C775.561 68.7085 775.561 70.2915 774.526 71.2677C773.491 72.244 771.813 72.244 770.778 71.2677L723.076 26.2678Z" fill="#4785FF"/>
<path fill-rule="evenodd" clip-rule="evenodd" d="M751.451 33.25C751.451 39.4632 756.79 44.5 763.376 44.5C769.963 44.5 775.302 39.4632 775.302 33.25C775.302 27.0368 769.963 22 763.376 22C756.79 22 751.451 27.0368 751.451 33.25ZM769.983 33.25C769.983 36.6922 767.025 39.4827 763.376 39.4827C759.727 39.4827 756.769 36.6922 756.769 33.25C756.769 29.8078 759.727 27.0173 763.376 27.0173C767.025 27.0173 769.983 29.8078 769.983 33.25Z" fill="#4785FF"/>
<path fill-rule="evenodd" clip-rule="evenodd" d="M722.299 60.75C722.299 66.9632 727.639 72 734.225 72C740.811 72 746.151 66.9632 746.151 60.75C746.151 54.5367 740.811 49.5 734.225 49.5C727.639 49.5 722.299 54.5367 722.299 60.75ZM740.832 60.75C740.832 64.1923 737.874 66.9827 734.225 66.9827C730.576 66.9827 727.618 64.1923 727.618 60.75C727.618 57.3078 730.576 54.5173 734.225 54.5173C737.874 54.5173 740.832 57.3078 740.832 60.75Z" fill="#4785FF"/>
<path d="M825.076 9.26777C824.041 8.29145 824.041 6.70855 825.076 5.73222C826.111 4.75593 827.789 4.75593 828.823 5.73222L876.526 50.7322C877.561 51.7085 877.561 53.2915 876.526 54.2677C875.491 55.244 873.813 55.244 872.778 54.2677L825.076 9.26777Z" fill="#4785FF"/>
<path fill-rule="evenodd" clip-rule="evenodd" d="M853.451 16.25C853.451 22.4632 858.79 27.5 865.376 27.5C871.963 27.5 877.302 22.4632 877.302 16.25C877.302 10.0368 871.963 5 865.376 5C858.79 5 853.451 10.0368 853.451 16.25ZM871.983 16.25C871.983 19.6922 869.025 22.4827 865.376 22.4827C861.727 22.4827 858.769 19.6922 858.769 16.25C858.769 12.8078 861.727 10.0173 865.376 10.0173C869.025 10.0173 871.983 12.8078 871.983 16.25Z" fill="#4785FF"/>
<path fill-rule="evenodd" clip-rule="evenodd" d="M824.299 43.75C824.299 49.9632 829.639 55 836.225 55C842.811 55 848.151 49.9632 848.151 43.75C848.151 37.5367 842.811 32.5 836.225 32.5C829.639 32.5 824.299 37.5367 824.299 43.75ZM842.832 43.75C842.832 47.1923 839.874 49.9827 836.225 49.9827C832.576 49.9827 829.618 47.1923 829.618 43.75C829.618 40.3078 832.576 37.5173 836.225 37.5173C839.874 37.5173 842.832 40.3078 842.832 43.75Z" fill="#4785FF"/>
<path d="M633.076 26.2678C632.041 25.2914 632.041 23.7086 633.076 22.7322C634.111 21.7559 635.789 21.7559 636.823 22.7322L684.526 67.7322C685.561 68.7085 685.561 70.2915 684.526 71.2677C683.491 72.244 681.813 72.244 680.778 71.2677L633.076 26.2678Z" fill="#4785FF"/>
<path fill-rule="evenodd" clip-rule="evenodd" d="M661.451 33.25C661.451 39.4632 666.79 44.5 673.376 44.5C679.963 44.5 685.302 39.4632 685.302 33.25C685.302 27.0368 679.963 22 673.376 22C666.79 22 661.451 27.0368 661.451 33.25ZM679.983 33.25C679.983 36.6922 677.025 39.4827 673.376 39.4827C669.727 39.4827 666.769 36.6922 666.769 33.25C666.769 29.8078 669.727 27.0173 673.376 27.0173C677.025 27.0173 679.983 29.8078 679.983 33.25Z" fill="#4785FF"/>
<path fill-rule="evenodd" clip-rule="evenodd" d="M632.299 60.75C632.299 66.9632 637.639 72 644.225 72C650.811 72 656.151 66.9632 656.151 60.75C656.151 54.5367 650.811 49.5 644.225 49.5C637.639 49.5 632.299 54.5367 632.299 60.75ZM650.832 60.75C650.832 64.1923 647.874 66.9827 644.225 66.9827C640.576 66.9827 637.618 64.1923 637.618 60.75C637.618 57.3078 640.576 54.5173 644.225 54.5173C647.874 54.5173 650.832 57.3078 650.832 60.75Z" fill="#4785FF"/>
<path d="M868.076 313.268C867.041 312.291 867.041 310.709 868.076 309.732C869.111 308.756 870.789 308.756 871.823 309.732L919.526 354.732C920.561 355.708 920.561 357.292 919.526 358.268C918.491 359.244 916.813 359.244 915.778 358.268L868.076 313.268Z" fill="#4785FF"/>
<path fill-rule="evenodd" clip-rule="evenodd" d="M896.451 320.25C896.451 326.463 901.79 331.5 908.376 331.5C914.963 331.5 920.302 326.463 920.302 320.25C920.302 314.037 914.963 309 908.376 309C901.79 309 896.451 314.037 896.451 320.25ZM914.983 320.25C914.983 323.692 912.025 326.483 908.376 326.483C904.727 326.483 901.769 323.692 901.769 320.25C901.769 316.808 904.727 314.017 908.376 314.017C912.025 314.017 914.983 316.808 914.983 320.25Z" fill="#4785FF"/>
<path fill-rule="evenodd" clip-rule="evenodd" d="M867.299 347.75C867.299 353.963 872.639 359 879.225 359C885.811 359 891.151 353.963 891.151 347.75C891.151 341.537 885.811 336.5 879.225 336.5C872.639 336.5 867.299 341.537 867.299 347.75ZM885.832 347.75C885.832 351.192 882.874 353.983 879.225 353.983C875.576 353.983 872.618 351.192 872.618 347.75C872.618 344.308 875.576 341.517 879.225 341.517C882.874 341.517 885.832 344.308 885.832 347.75Z" fill="#4785FF"/>
<path d="M872.05 236.179C871.36 235.528 871.36 234.472 872.05 233.821C872.74 233.171 873.859 233.171 874.549 233.821L906.35 263.822C907.04 264.472 907.04 265.528 906.35 266.178C905.66 266.829 904.542 266.829 903.852 266.178L872.05 236.179Z" fill="#4785FF"/>
<path fill-rule="evenodd" clip-rule="evenodd" d="M890.967 240.833C890.967 244.975 894.526 248.333 898.917 248.333C903.308 248.333 906.868 244.975 906.868 240.833C906.868 236.691 903.308 233.333 898.917 233.333C894.526 233.333 890.967 236.691 890.967 240.833ZM903.322 240.833C903.322 243.128 901.35 244.988 898.917 244.988C896.485 244.988 894.513 243.128 894.513 240.833C894.513 238.539 896.485 236.678 898.917 236.678C901.35 236.678 903.322 238.539 903.322 240.833Z" fill="#4785FF"/>
<path fill-rule="evenodd" clip-rule="evenodd" d="M871.533 259.167C871.533 263.309 875.092 266.667 879.483 266.667C883.874 266.667 887.433 263.309 887.433 259.167C887.433 255.025 883.874 251.667 879.483 251.667C875.092 251.667 871.533 255.025 871.533 259.167ZM883.888 259.167C883.888 261.462 881.916 263.322 879.483 263.322C877.05 263.322 875.078 261.462 875.078 259.167C875.078 256.872 877.05 255.012 879.483 255.012C881.916 255.012 883.888 256.872 883.888 259.167Z" fill="#4785FF"/>
<path d="M684.05 348.179C683.36 347.528 683.36 346.472 684.05 345.821C684.74 345.171 685.859 345.171 686.549 345.821L718.35 375.822C719.04 376.472 719.04 377.528 718.35 378.178C717.66 378.829 716.542 378.829 715.852 378.178L684.05 348.179Z" fill="#4785FF"/>
<path fill-rule="evenodd" clip-rule="evenodd" d="M702.967 352.833C702.967 356.975 706.526 360.333 710.917 360.333C715.308 360.333 718.868 356.975 718.868 352.833C718.868 348.691 715.308 345.333 710.917 345.333C706.526 345.333 702.967 348.691 702.967 352.833ZM715.322 352.833C715.322 355.128 713.35 356.988 710.917 356.988C708.485 356.988 706.513 355.128 706.513 352.833C706.513 350.539 708.485 348.678 710.917 348.678C713.35 348.678 715.322 350.539 715.322 352.833Z" fill="#4785FF"/>
<path fill-rule="evenodd" clip-rule="evenodd" d="M683.533 371.167C683.533 375.309 687.092 378.667 691.483 378.667C695.874 378.667 699.433 375.309 699.433 371.167C699.433 367.024 695.874 363.667 691.483 363.667C687.092 363.667 683.533 367.024 683.533 371.167ZM695.888 371.167C695.888 373.461 693.916 375.322 691.483 375.322C689.05 375.322 687.078 373.461 687.078 371.167C687.078 368.872 689.05 367.012 691.483 367.012C693.916 367.012 695.888 368.872 695.888 371.167Z" fill="#4785FF"/>
<path d="M478.052 51.1785C477.362 50.5276 477.362 49.4724 478.052 48.8215C478.742 48.1706 479.861 48.1706 480.551 48.8215L512.352 78.8215C513.042 79.4723 513.042 80.5277 512.352 81.1785C511.662 81.8293 510.543 81.8293 509.853 81.1785L478.052 51.1785Z" fill="#4785FF"/>
<path fill-rule="evenodd" clip-rule="evenodd" d="M496.969 55.8333C496.969 59.9755 500.528 63.3333 504.919 63.3333C509.31 63.3333 512.87 59.9755 512.87 55.8333C512.87 51.6912 509.31 48.3333 504.919 48.3333C500.528 48.3333 496.969 51.6912 496.969 55.8333ZM509.324 55.8333C509.324 58.1281 507.352 59.9884 504.919 59.9884C502.487 59.9884 500.514 58.1281 500.514 55.8333C500.514 53.5385 502.487 51.6782 504.919 51.6782C507.352 51.6782 509.324 53.5385 509.324 55.8333Z" fill="#4785FF"/>
<path fill-rule="evenodd" clip-rule="evenodd" d="M477.534 74.1667C477.534 78.3088 481.094 81.6667 485.485 81.6667C489.876 81.6667 493.435 78.3088 493.435 74.1667C493.435 70.0245 489.876 66.6667 485.485 66.6667C481.094 66.6667 477.534 70.0245 477.534 74.1667ZM489.89 74.1667C489.89 76.4615 487.918 78.3218 485.485 78.3218C483.052 78.3218 481.08 76.4615 481.08 74.1667C481.08 71.8718 483.052 70.0115 485.485 70.0115C487.918 70.0115 489.89 71.8718 489.89 74.1667Z" fill="#4785FF"/>
<path d="M623.052 104.179C622.362 103.528 622.362 102.472 623.052 101.821C623.742 101.171 624.861 101.171 625.55 101.821L657.352 131.822C658.042 132.472 658.042 133.528 657.352 134.178C656.662 134.829 655.543 134.829 654.854 134.178L623.052 104.179Z" fill="#4785FF"/>
<path fill-rule="evenodd" clip-rule="evenodd" d="M641.969 108.833C641.969 112.975 645.528 116.333 649.919 116.333C654.31 116.333 657.87 112.975 657.87 108.833C657.87 104.691 654.31 101.333 649.919 101.333C645.528 101.333 641.969 104.691 641.969 108.833ZM654.324 108.833C654.324 111.128 652.352 112.988 649.919 112.988C647.487 112.988 645.515 111.128 645.515 108.833C645.515 106.539 647.487 104.678 649.919 104.678C652.352 104.678 654.324 106.539 654.324 108.833Z" fill="#4785FF"/>
<path fill-rule="evenodd" clip-rule="evenodd" d="M622.534 127.167C622.534 131.309 626.094 134.667 630.485 134.667C634.876 134.667 638.435 131.309 638.435 127.167C638.435 123.024 634.876 119.667 630.485 119.667C626.094 119.667 622.534 123.024 622.534 127.167ZM634.89 127.167C634.89 129.461 632.918 131.322 630.485 131.322C628.052 131.322 626.08 129.461 626.08 127.167C626.08 124.872 628.052 123.011 630.485 123.011C632.918 123.011 634.89 124.872 634.89 127.167Z" fill="#4785FF"/>
<path d="M494.371 289.446C492.646 287.819 492.646 285.181 494.371 283.554C496.096 281.927 498.893 281.927 500.617 283.554L580.121 358.554C581.846 360.181 581.846 362.819 580.121 364.446C578.397 366.073 575.6 366.073 573.875 364.446L494.371 289.446Z" fill="#4785FF"/>
<path fill-rule="evenodd" clip-rule="evenodd" d="M541.663 301.083C541.663 311.439 550.562 319.833 561.539 319.833C572.516 319.833 581.415 311.439 581.415 301.083C581.415 290.728 572.516 282.333 561.539 282.333C550.562 282.333 541.663 290.728 541.663 301.083ZM572.551 301.083C572.551 306.82 567.621 311.471 561.539 311.471C555.458 311.471 550.528 306.82 550.528 301.083C550.528 295.346 555.458 290.696 561.539 290.696C567.621 290.696 572.551 295.346 572.551 301.083Z" fill="#4785FF"/>
<path fill-rule="evenodd" clip-rule="evenodd" d="M493.077 346.917C493.077 357.272 501.976 365.667 512.953 365.667C523.931 365.667 532.829 357.272 532.829 346.917C532.829 336.561 523.931 328.167 512.953 328.167C501.976 328.167 493.077 336.561 493.077 346.917ZM523.965 346.917C523.965 352.654 519.035 357.305 512.953 357.305C506.872 357.305 501.942 352.654 501.942 346.917C501.942 341.18 506.872 336.529 512.953 336.529C519.035 336.529 523.965 341.18 523.965 346.917Z" fill="#4785FF"/>
<path d="M526.127 30.4463C524.402 28.8191 524.402 26.1809 526.127 24.5537C527.852 22.9265 530.648 22.9265 532.373 24.5537L611.877 99.5537C613.602 101.181 613.602 103.819 611.877 105.446C610.152 107.073 607.356 107.073 605.631 105.446L526.127 30.4463Z" fill="#4785FF"/>
<path fill-rule="evenodd" clip-rule="evenodd" d="M573.419 42.0833C573.419 52.4387 582.318 60.8333 593.295 60.8333C604.272 60.8333 613.171 52.4387 613.171 42.0833C613.171 31.728 604.272 23.3333 593.295 23.3333C582.318 23.3333 573.419 31.728 573.419 42.0833ZM604.306 42.0833C604.306 47.8204 599.376 52.4711 593.295 52.4711C587.213 52.4711 582.283 47.8204 582.283 42.0833C582.283 36.3463 587.213 31.6955 593.295 31.6955C599.376 31.6955 604.306 36.3463 604.306 42.0833Z" fill="#4785FF"/>
<path fill-rule="evenodd" clip-rule="evenodd" d="M524.833 87.9167C524.833 98.2721 533.732 106.667 544.709 106.667C555.686 106.667 564.585 98.2721 564.585 87.9167C564.585 77.5612 555.686 69.1667 544.709 69.1667C533.732 69.1667 524.833 77.5612 524.833 87.9167ZM555.721 87.9167C555.721 93.6537 550.791 98.3046 544.709 98.3046C538.628 98.3046 533.697 93.6537 533.697 87.9167C533.697 82.1796 538.628 77.5287 544.709 77.5287C550.791 77.5287 555.721 82.1796 555.721 87.9167Z" fill="#4785FF"/>
<path d="M676.644 112.357C675.342 111.055 675.342 108.945 676.644 107.643C677.945 106.341 680.056 106.341 681.358 107.643L741.358 167.643C742.659 168.945 742.659 171.055 741.358 172.357C740.056 173.659 737.945 173.659 736.644 172.357L676.644 112.357Z" fill="#4785FF"/>
<path fill-rule="evenodd" clip-rule="evenodd" d="M712.334 121.667C712.334 129.951 719.05 136.667 727.334 136.667C735.618 136.667 742.334 129.951 742.334 121.667C742.334 113.382 735.618 106.667 727.334 106.667C719.05 106.667 712.334 113.382 712.334 121.667ZM735.644 121.667C735.644 126.256 731.924 129.977 727.334 129.977C722.744 129.977 719.024 126.256 719.024 121.667C719.024 117.077 722.744 113.356 727.334 113.356C731.924 113.356 735.644 117.077 735.644 121.667Z" fill="#4785FF"/>
<path fill-rule="evenodd" clip-rule="evenodd" d="M675.667 158.333C675.667 166.618 682.383 173.333 690.667 173.333C698.952 173.333 705.667 166.618 705.667 158.333C705.667 150.049 698.952 143.333 690.667 143.333C682.383 143.333 675.667 150.049 675.667 158.333ZM698.978 158.333C698.978 162.923 695.257 166.644 690.667 166.644C686.078 166.644 682.357 162.923 682.357 158.333C682.357 153.744 686.078 150.023 690.667 150.023C695.257 150.023 698.978 153.744 698.978 158.333Z" fill="#4785FF"/>
<path d="M320.644 334.357C319.342 333.055 319.342 330.945 320.644 329.643C321.945 328.341 324.056 328.341 325.358 329.643L385.358 389.643C386.659 390.945 386.659 393.055 385.358 394.357C384.056 395.659 381.945 395.659 380.644 394.357L320.644 334.357Z" fill="#4785FF"/>
<path fill-rule="evenodd" clip-rule="evenodd" d="M356.334 343.667C356.334 351.951 363.05 358.667 371.334 358.667C379.618 358.667 386.334 351.951 386.334 343.667C386.334 335.382 379.618 328.667 371.334 328.667C363.05 328.667 356.334 335.382 356.334 343.667ZM379.644 343.667C379.644 348.256 375.924 351.977 371.334 351.977C366.744 351.977 363.024 348.256 363.024 343.667C363.024 339.077 366.744 335.356 371.334 335.356C375.924 335.356 379.644 339.077 379.644 343.667Z" fill="#4785FF"/>
<path fill-rule="evenodd" clip-rule="evenodd" d="M319.667 380.333C319.667 388.618 326.383 395.333 334.667 395.333C342.952 395.333 349.667 388.618 349.667 380.333C349.667 372.049 342.952 365.333 334.667 365.333C326.383 365.333 319.667 372.049 319.667 380.333ZM342.978 380.333C342.978 384.923 339.257 388.644 334.667 388.644C330.078 388.644 326.357 384.923 326.357 380.333C326.357 375.744 330.078 372.023 334.667 372.023C339.257 372.023 342.978 375.744 342.978 380.333Z" fill="#4785FF"/>
<path d="M398.642 316.357C397.34 315.055 397.34 312.945 398.642 311.643C399.944 310.341 402.054 310.341 403.356 311.643L463.356 371.643C464.658 372.945 464.658 375.055 463.356 376.357C462.054 377.659 459.944 377.659 458.642 376.357L398.642 316.357Z" fill="#4785FF"/>
<path fill-rule="evenodd" clip-rule="evenodd" d="M434.332 325.667C434.332 333.951 441.048 340.667 449.332 340.667C457.616 340.667 464.332 333.951 464.332 325.667C464.332 317.382 457.616 310.667 449.332 310.667C441.048 310.667 434.332 317.382 434.332 325.667ZM457.642 325.667C457.642 330.256 453.922 333.977 449.332 333.977C444.743 333.977 441.022 330.256 441.022 325.667C441.022 321.077 444.743 317.356 449.332 317.356C453.922 317.356 457.642 321.077 457.642 325.667Z" fill="#4785FF"/>
<path fill-rule="evenodd" clip-rule="evenodd" d="M397.666 362.333C397.666 370.618 404.381 377.333 412.666 377.333C420.95 377.333 427.666 370.618 427.666 362.333C427.666 354.049 420.95 347.333 412.666 347.333C404.381 347.333 397.666 354.049 397.666 362.333ZM420.976 362.333C420.976 366.923 417.255 370.644 412.666 370.644C408.076 370.644 404.355 366.923 404.355 362.333C404.355 357.744 408.076 354.023 412.666 354.023C417.255 354.023 420.976 357.744 420.976 362.333Z" fill="#4785FF"/>
<path d="M206.644 318.357C205.342 317.055 205.342 314.945 206.644 313.643C207.945 312.341 210.056 312.341 211.358 313.643L271.358 373.643C272.659 374.945 272.659 377.055 271.358 378.357C270.056 379.659 267.945 379.659 266.644 378.357L206.644 318.357Z" fill="#4785FF"/>
<path fill-rule="evenodd" clip-rule="evenodd" d="M242.334 327.667C242.334 335.951 249.05 342.667 257.334 342.667C265.618 342.667 272.334 335.951 272.334 327.667C272.334 319.382 265.618 312.667 257.334 312.667C249.05 312.667 242.334 319.382 242.334 327.667ZM265.644 327.667C265.644 332.256 261.924 335.977 257.334 335.977C252.744 335.977 249.024 332.256 249.024 327.667C249.024 323.077 252.744 319.356 257.334 319.356C261.924 319.356 265.644 323.077 265.644 327.667Z" fill="#4785FF"/>
<path fill-rule="evenodd" clip-rule="evenodd" d="M205.667 364.333C205.667 372.618 212.383 379.333 220.667 379.333C228.952 379.333 235.667 372.618 235.667 364.333C235.667 356.049 228.952 349.333 220.667 349.333C212.383 349.333 205.667 356.049 205.667 364.333ZM228.978 364.333C228.978 368.923 225.257 372.644 220.667 372.644C216.078 372.644 212.357 368.923 212.357 364.333C212.357 359.744 216.078 356.023 220.667 356.023C225.257 356.023 228.978 359.744 228.978 364.333Z" fill="#4785FF"/>
<path d="M78.6437 353.357C77.342 352.055 77.342 349.945 78.6437 348.643C79.9454 347.341 82.056 347.341 83.3577 348.643L143.358 408.643C144.659 409.945 144.659 412.055 143.358 413.357C142.056 414.659 139.945 414.659 138.644 413.357L78.6437 353.357Z" fill="#4785FF"/>
<path fill-rule="evenodd" clip-rule="evenodd" d="M114.334 362.667C114.334 370.951 121.05 377.667 129.334 377.667C137.618 377.667 144.334 370.951 144.334 362.667C144.334 354.382 137.618 347.667 129.334 347.667C121.05 347.667 114.334 354.382 114.334 362.667ZM137.644 362.667C137.644 367.256 133.924 370.977 129.334 370.977C124.744 370.977 121.024 367.256 121.024 362.667C121.024 358.077 124.744 354.356 129.334 354.356C133.924 354.356 137.644 358.077 137.644 362.667Z" fill="#4785FF"/>
<path fill-rule="evenodd" clip-rule="evenodd" d="M77.6674 399.333C77.6674 407.618 84.383 414.333 92.6674 414.333C100.952 414.333 107.667 407.618 107.667 399.333C107.667 391.049 100.952 384.333 92.6674 384.333C84.383 384.333 77.6674 391.049 77.6674 399.333ZM100.978 399.333C100.978 403.923 97.257 407.644 92.6674 407.644C88.0777 407.644 84.357 403.923 84.357 399.333C84.357 394.744 88.0777 391.023 92.6674 391.023C97.257 391.023 100.978 394.744 100.978 399.333Z" fill="#4785FF"/>
<path d="M777.644 276.357C776.342 275.055 776.342 272.945 777.644 271.643C778.945 270.341 781.056 270.341 782.358 271.643L842.358 331.643C843.659 332.945 843.659 335.055 842.358 336.357C841.056 337.659 838.945 337.659 837.644 336.357L777.644 276.357Z" fill="#4785FF"/>
<path fill-rule="evenodd" clip-rule="evenodd" d="M813.334 285.667C813.334 293.951 820.05 300.667 828.334 300.667C836.618 300.667 843.334 293.951 843.334 285.667C843.334 277.382 836.618 270.667 828.334 270.667C820.05 270.667 813.334 277.382 813.334 285.667ZM836.644 285.667C836.644 290.256 832.924 293.977 828.334 293.977C823.744 293.977 820.024 290.256 820.024 285.667C820.024 281.077 823.744 277.356 828.334 277.356C832.924 277.356 836.644 281.077 836.644 285.667Z" fill="#4785FF"/>
<path fill-rule="evenodd" clip-rule="evenodd" d="M776.667 322.333C776.667 330.618 783.383 337.333 791.667 337.333C799.952 337.333 806.667 330.618 806.667 322.333C806.667 314.049 799.952 307.333 791.667 307.333C783.383 307.333 776.667 314.049 776.667 322.333ZM799.978 322.333C799.978 326.923 796.257 330.644 791.667 330.644C787.078 330.644 783.357 326.923 783.357 322.333C783.357 317.744 787.078 314.023 791.667 314.023C796.257 314.023 799.978 317.744 799.978 322.333Z" fill="#4785FF"/>
<path d="M671.782 83.0893C671.437 82.7638 671.437 82.2362 671.782 81.9107C672.127 81.5853 672.686 81.5853 673.031 81.9107L688.932 96.9108C689.277 97.2362 689.277 97.7638 688.932 98.0892C688.587 98.4147 688.028 98.4147 687.683 98.0892L671.782 83.0893Z" fill="#4785FF"/>
<path fill-rule="evenodd" clip-rule="evenodd" d="M681.241 85.4167C681.241 87.4877 683.02 89.1667 685.216 89.1667C687.411 89.1667 689.191 87.4877 689.191 85.4167C689.191 83.3456 687.411 81.6667 685.216 81.6667C683.02 81.6667 681.241 83.3456 681.241 85.4167ZM687.418 85.4167C687.418 86.5641 686.432 87.4942 685.216 87.4942C683.999 87.4942 683.013 86.5641 683.013 85.4167C683.013 84.2693 683.999 83.3391 685.216 83.3391C686.432 83.3391 687.418 84.2693 687.418 85.4167Z" fill="#4785FF"/>
<path fill-rule="evenodd" clip-rule="evenodd" d="M671.523 94.5833C671.523 96.6544 673.303 98.3333 675.499 98.3333C677.694 98.3333 679.474 96.6544 679.474 94.5833C679.474 92.5123 677.694 90.8333 675.499 90.8333C673.303 90.8333 671.523 92.5123 671.523 94.5833ZM677.701 94.5833C677.701 95.7308 676.715 96.6609 675.499 96.6609C674.282 96.6609 673.296 95.7308 673.296 94.5833C673.296 93.4359 674.282 92.5058 675.499 92.5058C676.715 92.5058 677.701 93.4359 677.701 94.5833Z" fill="#4785FF"/>
<path d="M768.023 180.089C767.678 179.764 767.678 179.236 768.023 178.911C768.367 178.585 768.927 178.585 769.272 178.911L785.173 193.911C785.518 194.236 785.518 194.764 785.173 195.089C784.828 195.415 784.268 195.415 783.923 195.089L768.023 180.089Z" fill="#4785FF"/>
<path fill-rule="evenodd" clip-rule="evenodd" d="M777.481 182.417C777.481 184.488 779.261 186.167 781.456 186.167C783.652 186.167 785.431 184.488 785.431 182.417C785.431 180.346 783.652 178.667 781.456 178.667C779.261 178.667 777.481 180.346 777.481 182.417ZM783.658 182.417C783.658 183.564 782.672 184.494 781.456 184.494C780.24 184.494 779.254 183.564 779.254 182.417C779.254 181.269 780.24 180.339 781.456 180.339C782.672 180.339 783.658 181.269 783.658 182.417Z" fill="#4785FF"/>
<path fill-rule="evenodd" clip-rule="evenodd" d="M767.764 191.583C767.764 193.654 769.544 195.333 771.739 195.333C773.934 195.333 775.714 193.654 775.714 191.583C775.714 189.512 773.934 187.833 771.739 187.833C769.544 187.833 767.764 189.512 767.764 191.583ZM773.941 191.583C773.941 192.731 772.955 193.661 771.739 193.661C770.523 193.661 769.537 192.731 769.537 191.583C769.537 190.436 770.523 189.506 771.739 189.506C772.955 189.506 773.941 190.436 773.941 191.583Z" fill="#4785FF"/>
<path d="M804.023 353.089C803.678 352.764 803.678 352.236 804.023 351.911C804.367 351.585 804.927 351.585 805.272 351.911L821.173 366.911C821.518 367.236 821.518 367.764 821.173 368.089C820.828 368.415 820.268 368.415 819.923 368.089L804.023 353.089Z" fill="#4785FF"/>
<path fill-rule="evenodd" clip-rule="evenodd" d="M813.481 355.417C813.481 357.488 815.261 359.167 817.456 359.167C819.652 359.167 821.431 357.488 821.431 355.417C821.431 353.346 819.652 351.667 817.456 351.667C815.261 351.667 813.481 353.346 813.481 355.417ZM819.658 355.417C819.658 356.564 818.672 357.494 817.456 357.494C816.24 357.494 815.254 356.564 815.254 355.417C815.254 354.269 816.24 353.339 817.456 353.339C818.672 353.339 819.658 354.269 819.658 355.417Z" fill="#4785FF"/>
<path fill-rule="evenodd" clip-rule="evenodd" d="M803.764 364.583C803.764 366.654 805.544 368.333 807.739 368.333C809.934 368.333 811.714 366.654 811.714 364.583C811.714 362.512 809.934 360.833 807.739 360.833C805.544 360.833 803.764 362.512 803.764 364.583ZM809.941 364.583C809.941 365.731 808.955 366.661 807.739 366.661C806.523 366.661 805.537 365.731 805.537 364.583C805.537 363.436 806.523 362.506 807.739 362.506C808.955 362.506 809.941 363.436 809.941 364.583Z" fill="#4785FF"/>
</svg>
