<svg width="663" height="300" viewBox="0 0 663 300" fill="none" xmlns="http://www.w3.org/2000/svg">
  <g filter="url(#filter0_f_7058_373520)">
    <path d="M293 327.774C293 420.767 269.128 463 176.23 463C83.3313 463 0 368.376 0 275.382C0 182.389 69.4548 224.521 162.353 224.521C255.252 224.521 293 327.774 293 327.774Z" fill="#017BFF"/>
  </g>
  <g filter="url(#filter1_f_7058_373520)">
    <path d="M337.391 266.175C409.605 257.278 438.484 261.289 447.372 333.429C427.501 402.492 386.486 434.348 314.272 443.245C300.428 369.271 279.41 422.628 270.522 350.488C261.634 278.348 337.391 266.175 337.391 266.175Z" fill="#DB01FF"/>
  </g>
  <defs>
    <filter id="filter0_f_7058_373520" x="-215" y="0" width="723" height="678" filterUnits="userSpaceOnUse" color-interpolation-filters="sRGB">
    <feFlood flood-opacity="0" result="BackgroundImageFix"/>
    <feBlend mode="normal" in="SourceGraphic" in2="BackgroundImageFix" result="shape"/>
    <feGaussianBlur stdDeviation="107.5" result="effect1_foregroundBlur_7058_373520"/>
  </filter>
  <filter id="filter1_f_7058_373520" x="54.7969" y="47.7578" width="607.574" height="610.488" filterUnits="userSpaceOnUse" color-interpolation-filters="sRGB">
    <feFlood flood-opacity="0" result="BackgroundImageFix"/>
    <feBlend mode="normal" in="SourceGraphic" in2="BackgroundImageFix" result="shape"/>
    <feGaussianBlur stdDeviation="107.5" result="effect1_foregroundBlur_7058_373520"/>
  </filter>
  </defs>
</svg>

