<svg width="630" height="244" viewBox="0 0 630 244" fill="none" xmlns="http://www.w3.org/2000/svg">
<g clip-path="url(#clip0_54_179)">
<path d="M-373.165 739H-374V-264H-373.165V739ZM-373.999 736.934H-373.166V-261.929H-373.999V736.934Z" fill="url(#paint0_linear_54_179)"/>
<path d="M1228 686.887H-372.963V688.958H1228V686.887Z" fill="url(#paint1_linear_54_179)"/>
<path d="M1228 636.84H-372.963V638.912H1228V636.84Z" fill="url(#paint2_linear_54_179)"/>
<path d="M1228 586.794H-372.963V588.865H1228V586.794Z" fill="url(#paint3_linear_54_179)"/>
<path d="M1228 536.747H-372.963V538.818H1228V536.747Z" fill="url(#paint4_linear_54_179)"/>
<path d="M1228 486.7H-372.963V487.535H1228V486.7Z" fill="url(#paint5_linear_54_179)"/>
<path d="M1228 436.653H-372.963V437.488H1228V436.653Z" fill="url(#paint6_linear_54_179)"/>
<path d="M1228 386.607H-372.963V387.441H1228V386.607Z" fill="url(#paint7_linear_54_179)"/>
<path d="M1228 336.56H-372.963V337.395H1228V336.56Z" fill="url(#paint8_linear_54_179)"/>
<path d="M1228 286.513H-372.963V287.348H1228V286.513Z" fill="url(#paint9_linear_54_179)"/>
<path d="M1228 236.467H-372.963V237.301H1228V236.467Z" fill="url(#paint10_linear_54_179)"/>
<path d="M1228 186.42H-372.963V187.255H1228V186.42Z" fill="url(#paint11_linear_54_179)"/>
<path d="M1228 136.373H-372.963V137.208H1228V136.373Z" fill="url(#paint12_linear_54_179)"/>
<path d="M1228 86.3267H-372.963V87.1612H1228V86.3267Z" fill="url(#paint13_linear_54_179)"/>
<path d="M1228 36.2801H-372.963V37.1145H1228V36.2801Z" fill="url(#paint14_linear_54_179)"/>
<path d="M1228 -13.7666H-372.963V-12.9322H1228V-13.7666Z" fill="url(#paint15_linear_54_179)"/>
<path d="M1228 -63.8133H-372.963V-62.9789H1228V-63.8133Z" fill="url(#paint16_linear_54_179)"/>
<path d="M1228 -113.86H-372.963V-113.026H1228V-113.86Z" fill="url(#paint17_linear_54_179)"/>
<path d="M1228 -163.907H-372.963V-163.072H1228V-163.907Z" fill="url(#paint18_linear_54_179)"/>
<path d="M1228 -213.953H-372.963V-213.119H1228V-213.953Z" fill="url(#paint19_linear_54_179)"/>
<path d="M1179.28 -262.964H1178.45V737.969H1179.28V-262.964Z" fill="url(#paint20_linear_54_179)"/>
<path d="M1130.77 -262.964H1129.94V737.969H1130.77V-262.964Z" fill="url(#paint21_linear_54_179)"/>
<path d="M1082.26 -262.964H1081.42V737.969H1082.26V-262.964Z" fill="url(#paint22_linear_54_179)"/>
<path d="M1033.74 -262.964H1032.91V737.969H1033.74V-262.964Z" fill="url(#paint23_linear_54_179)"/>
<path d="M985.225 -262.964H984.39V737.969H985.225V-262.964Z" fill="url(#paint24_linear_54_179)"/>
<path d="M936.712 -262.964H935.877V737.969H936.712V-262.964Z" fill="url(#paint25_linear_54_179)"/>
<path d="M888.198 -262.964H887.363V737.969H888.198V-262.964Z" fill="url(#paint26_linear_54_179)"/>
<path d="M839.684 -262.964H838.85V737.969H839.684V-262.964Z" fill="url(#paint27_linear_54_179)"/>
<path d="M791.171 -262.964H790.336V737.969H791.171V-262.964Z" fill="url(#paint28_linear_54_179)"/>
<path d="M742.657 -262.964H741.822V737.969H742.657V-262.964Z" fill="url(#paint29_linear_54_179)"/>
<path d="M694.144 -262.964H693.309V737.969H694.144V-262.964Z" fill="url(#paint30_linear_54_179)"/>
<path d="M645.63 -262.964H644.795V737.969H645.63V-262.964Z" fill="url(#paint31_linear_54_179)"/>
<path d="M597.117 -262.964H596.282V737.969H597.117V-262.964Z" fill="url(#paint32_linear_54_179)"/>
<path d="M548.603 -262.964H547.768V737.969H548.603V-262.964Z" fill="url(#paint33_linear_54_179)"/>
<path d="M500.089 -262.964H499.255V737.969H500.089V-262.964Z" fill="url(#paint34_linear_54_179)"/>
<path d="M451.576 -262.964H450.741V737.969H451.576V-262.964Z" fill="url(#paint35_linear_54_179)"/>
<path d="M403.057 -262.964H402.222V737.969H403.057V-262.964Z" fill="url(#paint36_linear_54_179)"/>
<path d="M354.544 -262.964H353.709V737.969H354.544V-262.964Z" fill="url(#paint37_linear_54_179)"/>
<path d="M306.03 -262.964H305.195V737.969H306.03V-262.964Z" fill="url(#paint38_linear_54_179)"/>
<path d="M257.517 -262.964H256.682V737.969H257.517V-262.964Z" fill="url(#paint39_linear_54_179)"/>
<path d="M209.003 -262.964H208.168V737.969H209.003V-262.964Z" fill="url(#paint40_linear_54_179)"/>
<path d="M160.489 -262.964H159.654V737.969H160.489V-262.964Z" fill="url(#paint41_linear_54_179)"/>
<path d="M111.976 -262.964H111.141V737.969H111.976V-262.964Z" fill="url(#paint42_linear_54_179)"/>
<path d="M63.4622 -262.964H62.6273V737.969H63.4622V-262.964Z" fill="url(#paint43_linear_54_179)"/>
<path d="M14.9486 -262.964H14.1136V737.969H14.9486V-262.964Z" fill="url(#paint44_linear_54_179)"/>
<path d="M-33.565 -262.964H-34.3999V737.969H-33.565V-262.964Z" fill="url(#paint45_linear_54_179)"/>
<path d="M-82.0786 -262.964H-82.9135V737.969H-82.0786V-262.964Z" fill="url(#paint46_linear_54_179)"/>
<path d="M-130.592 -262.964H-131.427V737.969H-130.592V-262.964Z" fill="url(#paint47_linear_54_179)"/>
<path d="M-179.106 -262.964H-179.941V737.969H-179.106V-262.964Z" fill="url(#paint48_linear_54_179)"/>
<path d="M-227.624 -262.964H-228.459V737.969H-227.624V-262.964Z" fill="url(#paint49_linear_54_179)"/>
<path d="M-276.138 -262.964H-276.973V737.969H-276.138V-262.964Z" fill="url(#paint50_linear_54_179)"/>
<path d="M-324.651 -262.964H-325.486V737.969H-324.651V-262.964Z" fill="url(#paint51_linear_54_179)"/>
<rect x="209" y="188" width="47" height="48" fill="#122243"/>
<rect x="16" y="138" width="46" height="47" fill="#122243"/>
<rect x="306" y="238" width="47" height="48" fill="#122243"/>
<rect x="452" y="188" width="47" height="48" fill="#122243"/>
<rect x="598" y="138" width="46" height="48" fill="#122243"/>
<rect x="306" y="138" width="47" height="48" fill="#122243"/>
</g>
<defs>
<linearGradient id="paint0_linear_54_179" x1="427" y1="56.4691" x2="427" y2="405.576" gradientUnits="userSpaceOnUse">
<stop stop-color="#0F2141" stop-opacity="0"/>
<stop offset="0.529918" stop-color="#173160"/>
<stop offset="0.940321" stop-color="#0F2141" stop-opacity="0"/>
</linearGradient>
<linearGradient id="paint1_linear_54_179" x1="427" y1="56.4691" x2="427" y2="405.576" gradientUnits="userSpaceOnUse">
<stop stop-color="#0F2141" stop-opacity="0"/>
<stop offset="0.529918" stop-color="#173160"/>
<stop offset="0.940321" stop-color="#0F2141" stop-opacity="0"/>
</linearGradient>
<linearGradient id="paint2_linear_54_179" x1="427" y1="56.4691" x2="427" y2="405.576" gradientUnits="userSpaceOnUse">
<stop stop-color="#0F2141" stop-opacity="0"/>
<stop offset="0.529918" stop-color="#173160"/>
<stop offset="0.940321" stop-color="#0F2141" stop-opacity="0"/>
</linearGradient>
<linearGradient id="paint3_linear_54_179" x1="427" y1="56.4691" x2="427" y2="405.576" gradientUnits="userSpaceOnUse">
<stop stop-color="#0F2141" stop-opacity="0"/>
<stop offset="0.529918" stop-color="#173160"/>
<stop offset="0.940321" stop-color="#0F2141" stop-opacity="0"/>
</linearGradient>
<linearGradient id="paint4_linear_54_179" x1="427" y1="56.4691" x2="427" y2="405.576" gradientUnits="userSpaceOnUse">
<stop stop-color="#0F2141" stop-opacity="0"/>
<stop offset="0.529918" stop-color="#173160"/>
<stop offset="0.940321" stop-color="#0F2141" stop-opacity="0"/>
</linearGradient>
<linearGradient id="paint5_linear_54_179" x1="427" y1="56.4691" x2="427" y2="405.576" gradientUnits="userSpaceOnUse">
<stop stop-color="#0F2141" stop-opacity="0"/>
<stop offset="0.529918" stop-color="#173160"/>
<stop offset="0.940321" stop-color="#0F2141" stop-opacity="0"/>
</linearGradient>
<linearGradient id="paint6_linear_54_179" x1="427" y1="56.4691" x2="427" y2="405.576" gradientUnits="userSpaceOnUse">
<stop stop-color="#0F2141" stop-opacity="0"/>
<stop offset="0.529918" stop-color="#173160"/>
<stop offset="0.940321" stop-color="#0F2141" stop-opacity="0"/>
</linearGradient>
<linearGradient id="paint7_linear_54_179" x1="427" y1="56.4691" x2="427" y2="405.576" gradientUnits="userSpaceOnUse">
<stop stop-color="#0F2141" stop-opacity="0"/>
<stop offset="0.529918" stop-color="#173160"/>
<stop offset="0.940321" stop-color="#0F2141" stop-opacity="0"/>
</linearGradient>
<linearGradient id="paint8_linear_54_179" x1="427" y1="56.4691" x2="427" y2="405.576" gradientUnits="userSpaceOnUse">
<stop stop-color="#0F2141" stop-opacity="0"/>
<stop offset="0.529918" stop-color="#173160"/>
<stop offset="0.940321" stop-color="#0F2141" stop-opacity="0"/>
</linearGradient>
<linearGradient id="paint9_linear_54_179" x1="427" y1="56.4691" x2="427" y2="405.576" gradientUnits="userSpaceOnUse">
<stop stop-color="#0F2141" stop-opacity="0"/>
<stop offset="0.529918" stop-color="#173160"/>
<stop offset="0.940321" stop-color="#0F2141" stop-opacity="0"/>
</linearGradient>
<linearGradient id="paint10_linear_54_179" x1="427" y1="56.4691" x2="427" y2="405.576" gradientUnits="userSpaceOnUse">
<stop stop-color="#0F2141" stop-opacity="0"/>
<stop offset="0.529918" stop-color="#173160"/>
<stop offset="0.940321" stop-color="#0F2141" stop-opacity="0"/>
</linearGradient>
<linearGradient id="paint11_linear_54_179" x1="427" y1="56.4691" x2="427" y2="405.576" gradientUnits="userSpaceOnUse">
<stop stop-color="#0F2141" stop-opacity="0"/>
<stop offset="0.529918" stop-color="#173160"/>
<stop offset="0.940321" stop-color="#0F2141" stop-opacity="0"/>
</linearGradient>
<linearGradient id="paint12_linear_54_179" x1="427" y1="56.4691" x2="427" y2="405.576" gradientUnits="userSpaceOnUse">
<stop stop-color="#0F2141" stop-opacity="0"/>
<stop offset="0.529918" stop-color="#173160"/>
<stop offset="0.940321" stop-color="#0F2141" stop-opacity="0"/>
</linearGradient>
<linearGradient id="paint13_linear_54_179" x1="427" y1="56.4691" x2="427" y2="405.576" gradientUnits="userSpaceOnUse">
<stop stop-color="#0F2141" stop-opacity="0"/>
<stop offset="0.529918" stop-color="#173160"/>
<stop offset="0.940321" stop-color="#0F2141" stop-opacity="0"/>
</linearGradient>
<linearGradient id="paint14_linear_54_179" x1="427" y1="56.4691" x2="427" y2="405.576" gradientUnits="userSpaceOnUse">
<stop stop-color="#0F2141" stop-opacity="0"/>
<stop offset="0.529918" stop-color="#173160"/>
<stop offset="0.940321" stop-color="#0F2141" stop-opacity="0"/>
</linearGradient>
<linearGradient id="paint15_linear_54_179" x1="427" y1="56.4691" x2="427" y2="405.576" gradientUnits="userSpaceOnUse">
<stop stop-color="#0F2141" stop-opacity="0"/>
<stop offset="0.529918" stop-color="#173160"/>
<stop offset="0.940321" stop-color="#0F2141" stop-opacity="0"/>
</linearGradient>
<linearGradient id="paint16_linear_54_179" x1="427" y1="56.4691" x2="427" y2="405.576" gradientUnits="userSpaceOnUse">
<stop stop-color="#0F2141" stop-opacity="0"/>
<stop offset="0.529918" stop-color="#173160"/>
<stop offset="0.940321" stop-color="#0F2141" stop-opacity="0"/>
</linearGradient>
<linearGradient id="paint17_linear_54_179" x1="427" y1="56.4691" x2="427" y2="405.576" gradientUnits="userSpaceOnUse">
<stop stop-color="#0F2141" stop-opacity="0"/>
<stop offset="0.529918" stop-color="#173160"/>
<stop offset="0.940321" stop-color="#0F2141" stop-opacity="0"/>
</linearGradient>
<linearGradient id="paint18_linear_54_179" x1="427" y1="56.4691" x2="427" y2="405.576" gradientUnits="userSpaceOnUse">
<stop stop-color="#0F2141" stop-opacity="0"/>
<stop offset="0.529918" stop-color="#173160"/>
<stop offset="0.940321" stop-color="#0F2141" stop-opacity="0"/>
</linearGradient>
<linearGradient id="paint19_linear_54_179" x1="427" y1="56.4691" x2="427" y2="405.576" gradientUnits="userSpaceOnUse">
<stop stop-color="#0F2141" stop-opacity="0"/>
<stop offset="0.529918" stop-color="#173160"/>
<stop offset="0.940321" stop-color="#0F2141" stop-opacity="0"/>
</linearGradient>
<linearGradient id="paint20_linear_54_179" x1="427" y1="56.4691" x2="427" y2="405.576" gradientUnits="userSpaceOnUse">
<stop stop-color="#0F2141" stop-opacity="0"/>
<stop offset="0.529918" stop-color="#173160"/>
<stop offset="0.940321" stop-color="#0F2141" stop-opacity="0"/>
</linearGradient>
<linearGradient id="paint21_linear_54_179" x1="427" y1="56.4691" x2="427" y2="405.576" gradientUnits="userSpaceOnUse">
<stop stop-color="#0F2141" stop-opacity="0"/>
<stop offset="0.529918" stop-color="#173160"/>
<stop offset="0.940321" stop-color="#0F2141" stop-opacity="0"/>
</linearGradient>
<linearGradient id="paint22_linear_54_179" x1="427" y1="56.4691" x2="427" y2="405.576" gradientUnits="userSpaceOnUse">
<stop stop-color="#0F2141" stop-opacity="0"/>
<stop offset="0.529918" stop-color="#173160"/>
<stop offset="0.940321" stop-color="#0F2141" stop-opacity="0"/>
</linearGradient>
<linearGradient id="paint23_linear_54_179" x1="427" y1="56.4691" x2="427" y2="405.576" gradientUnits="userSpaceOnUse">
<stop stop-color="#0F2141" stop-opacity="0"/>
<stop offset="0.529918" stop-color="#173160"/>
<stop offset="0.940321" stop-color="#0F2141" stop-opacity="0"/>
</linearGradient>
<linearGradient id="paint24_linear_54_179" x1="427" y1="56.4691" x2="427" y2="405.576" gradientUnits="userSpaceOnUse">
<stop stop-color="#0F2141" stop-opacity="0"/>
<stop offset="0.529918" stop-color="#173160"/>
<stop offset="0.940321" stop-color="#0F2141" stop-opacity="0"/>
</linearGradient>
<linearGradient id="paint25_linear_54_179" x1="427" y1="56.4691" x2="427" y2="405.576" gradientUnits="userSpaceOnUse">
<stop stop-color="#0F2141" stop-opacity="0"/>
<stop offset="0.529918" stop-color="#173160"/>
<stop offset="0.940321" stop-color="#0F2141" stop-opacity="0"/>
</linearGradient>
<linearGradient id="paint26_linear_54_179" x1="427" y1="56.4691" x2="427" y2="405.576" gradientUnits="userSpaceOnUse">
<stop stop-color="#0F2141" stop-opacity="0"/>
<stop offset="0.529918" stop-color="#173160"/>
<stop offset="0.940321" stop-color="#0F2141" stop-opacity="0"/>
</linearGradient>
<linearGradient id="paint27_linear_54_179" x1="427" y1="56.4691" x2="427" y2="405.576" gradientUnits="userSpaceOnUse">
<stop stop-color="#0F2141" stop-opacity="0"/>
<stop offset="0.529918" stop-color="#173160"/>
<stop offset="0.940321" stop-color="#0F2141" stop-opacity="0"/>
</linearGradient>
<linearGradient id="paint28_linear_54_179" x1="427" y1="56.4691" x2="427" y2="405.576" gradientUnits="userSpaceOnUse">
<stop stop-color="#0F2141" stop-opacity="0"/>
<stop offset="0.529918" stop-color="#173160"/>
<stop offset="0.940321" stop-color="#0F2141" stop-opacity="0"/>
</linearGradient>
<linearGradient id="paint29_linear_54_179" x1="427" y1="56.4691" x2="427" y2="405.576" gradientUnits="userSpaceOnUse">
<stop stop-color="#0F2141" stop-opacity="0"/>
<stop offset="0.529918" stop-color="#173160"/>
<stop offset="0.940321" stop-color="#0F2141" stop-opacity="0"/>
</linearGradient>
<linearGradient id="paint30_linear_54_179" x1="427" y1="56.4691" x2="427" y2="405.576" gradientUnits="userSpaceOnUse">
<stop stop-color="#0F2141" stop-opacity="0"/>
<stop offset="0.529918" stop-color="#173160"/>
<stop offset="0.940321" stop-color="#0F2141" stop-opacity="0"/>
</linearGradient>
<linearGradient id="paint31_linear_54_179" x1="427" y1="56.4691" x2="427" y2="405.576" gradientUnits="userSpaceOnUse">
<stop stop-color="#0F2141" stop-opacity="0"/>
<stop offset="0.529918" stop-color="#173160"/>
<stop offset="0.940321" stop-color="#0F2141" stop-opacity="0"/>
</linearGradient>
<linearGradient id="paint32_linear_54_179" x1="427" y1="56.4691" x2="427" y2="405.576" gradientUnits="userSpaceOnUse">
<stop stop-color="#0F2141" stop-opacity="0"/>
<stop offset="0.529918" stop-color="#173160"/>
<stop offset="0.940321" stop-color="#0F2141" stop-opacity="0"/>
</linearGradient>
<linearGradient id="paint33_linear_54_179" x1="427" y1="56.4691" x2="427" y2="405.576" gradientUnits="userSpaceOnUse">
<stop stop-color="#0F2141" stop-opacity="0"/>
<stop offset="0.529918" stop-color="#173160"/>
<stop offset="0.940321" stop-color="#0F2141" stop-opacity="0"/>
</linearGradient>
<linearGradient id="paint34_linear_54_179" x1="427" y1="56.4691" x2="427" y2="405.576" gradientUnits="userSpaceOnUse">
<stop stop-color="#0F2141" stop-opacity="0"/>
<stop offset="0.529918" stop-color="#173160"/>
<stop offset="0.940321" stop-color="#0F2141" stop-opacity="0"/>
</linearGradient>
<linearGradient id="paint35_linear_54_179" x1="427" y1="56.4691" x2="427" y2="405.576" gradientUnits="userSpaceOnUse">
<stop stop-color="#0F2141" stop-opacity="0"/>
<stop offset="0.529918" stop-color="#173160"/>
<stop offset="0.940321" stop-color="#0F2141" stop-opacity="0"/>
</linearGradient>
<linearGradient id="paint36_linear_54_179" x1="427" y1="56.4691" x2="427" y2="405.576" gradientUnits="userSpaceOnUse">
<stop stop-color="#0F2141" stop-opacity="0"/>
<stop offset="0.529918" stop-color="#173160"/>
<stop offset="0.940321" stop-color="#0F2141" stop-opacity="0"/>
</linearGradient>
<linearGradient id="paint37_linear_54_179" x1="427" y1="56.4691" x2="427" y2="405.576" gradientUnits="userSpaceOnUse">
<stop stop-color="#0F2141" stop-opacity="0"/>
<stop offset="0.529918" stop-color="#173160"/>
<stop offset="0.940321" stop-color="#0F2141" stop-opacity="0"/>
</linearGradient>
<linearGradient id="paint38_linear_54_179" x1="427" y1="56.4691" x2="427" y2="405.576" gradientUnits="userSpaceOnUse">
<stop stop-color="#0F2141" stop-opacity="0"/>
<stop offset="0.529918" stop-color="#173160"/>
<stop offset="0.940321" stop-color="#0F2141" stop-opacity="0"/>
</linearGradient>
<linearGradient id="paint39_linear_54_179" x1="427" y1="56.4691" x2="427" y2="405.576" gradientUnits="userSpaceOnUse">
<stop stop-color="#0F2141" stop-opacity="0"/>
<stop offset="0.529918" stop-color="#173160"/>
<stop offset="0.940321" stop-color="#0F2141" stop-opacity="0"/>
</linearGradient>
<linearGradient id="paint40_linear_54_179" x1="427" y1="56.4691" x2="427" y2="405.576" gradientUnits="userSpaceOnUse">
<stop stop-color="#0F2141" stop-opacity="0"/>
<stop offset="0.529918" stop-color="#173160"/>
<stop offset="0.940321" stop-color="#0F2141" stop-opacity="0"/>
</linearGradient>
<linearGradient id="paint41_linear_54_179" x1="427" y1="56.4691" x2="427" y2="405.576" gradientUnits="userSpaceOnUse">
<stop stop-color="#0F2141" stop-opacity="0"/>
<stop offset="0.529918" stop-color="#173160"/>
<stop offset="0.940321" stop-color="#0F2141" stop-opacity="0"/>
</linearGradient>
<linearGradient id="paint42_linear_54_179" x1="427" y1="56.4691" x2="427" y2="405.576" gradientUnits="userSpaceOnUse">
<stop stop-color="#0F2141" stop-opacity="0"/>
<stop offset="0.529918" stop-color="#173160"/>
<stop offset="0.940321" stop-color="#0F2141" stop-opacity="0"/>
</linearGradient>
<linearGradient id="paint43_linear_54_179" x1="427" y1="56.4691" x2="427" y2="405.576" gradientUnits="userSpaceOnUse">
<stop stop-color="#0F2141" stop-opacity="0"/>
<stop offset="0.529918" stop-color="#173160"/>
<stop offset="0.940321" stop-color="#0F2141" stop-opacity="0"/>
</linearGradient>
<linearGradient id="paint44_linear_54_179" x1="427" y1="56.4691" x2="427" y2="405.576" gradientUnits="userSpaceOnUse">
<stop stop-color="#0F2141" stop-opacity="0"/>
<stop offset="0.529918" stop-color="#173160"/>
<stop offset="0.940321" stop-color="#0F2141" stop-opacity="0"/>
</linearGradient>
<linearGradient id="paint45_linear_54_179" x1="427" y1="56.4691" x2="427" y2="405.576" gradientUnits="userSpaceOnUse">
<stop stop-color="#0F2141" stop-opacity="0"/>
<stop offset="0.529918" stop-color="#173160"/>
<stop offset="0.940321" stop-color="#0F2141" stop-opacity="0"/>
</linearGradient>
<linearGradient id="paint46_linear_54_179" x1="427" y1="56.4691" x2="427" y2="405.576" gradientUnits="userSpaceOnUse">
<stop stop-color="#0F2141" stop-opacity="0"/>
<stop offset="0.529918" stop-color="#173160"/>
<stop offset="0.940321" stop-color="#0F2141" stop-opacity="0"/>
</linearGradient>
<linearGradient id="paint47_linear_54_179" x1="427" y1="56.4691" x2="427" y2="405.576" gradientUnits="userSpaceOnUse">
<stop stop-color="#0F2141" stop-opacity="0"/>
<stop offset="0.529918" stop-color="#173160"/>
<stop offset="0.940321" stop-color="#0F2141" stop-opacity="0"/>
</linearGradient>
<linearGradient id="paint48_linear_54_179" x1="427" y1="56.4691" x2="427" y2="405.576" gradientUnits="userSpaceOnUse">
<stop stop-color="#0F2141" stop-opacity="0"/>
<stop offset="0.529918" stop-color="#173160"/>
<stop offset="0.940321" stop-color="#0F2141" stop-opacity="0"/>
</linearGradient>
<linearGradient id="paint49_linear_54_179" x1="427" y1="56.4691" x2="427" y2="405.576" gradientUnits="userSpaceOnUse">
<stop stop-color="#0F2141" stop-opacity="0"/>
<stop offset="0.529918" stop-color="#173160"/>
<stop offset="0.940321" stop-color="#0F2141" stop-opacity="0"/>
</linearGradient>
<linearGradient id="paint50_linear_54_179" x1="427" y1="56.4691" x2="427" y2="405.576" gradientUnits="userSpaceOnUse">
<stop stop-color="#0F2141" stop-opacity="0"/>
<stop offset="0.529918" stop-color="#173160"/>
<stop offset="0.940321" stop-color="#0F2141" stop-opacity="0"/>
</linearGradient>
<linearGradient id="paint51_linear_54_179" x1="427" y1="56.4691" x2="427" y2="405.576" gradientUnits="userSpaceOnUse">
<stop stop-color="#0F2141" stop-opacity="0"/>
<stop offset="0.529918" stop-color="#173160"/>
<stop offset="0.940321" stop-color="#0F2141" stop-opacity="0"/>
</linearGradient>
<clipPath id="clip0_54_179">
<rect width="630" height="244" rx="12" fill="white"/>
</clipPath>
</defs>
</svg>
