<svg width="75" height="87" viewBox="0 0 75 87" fill="none" xmlns="http://www.w3.org/2000/svg">
<path d="M0.894444 86.5L53.7795 0.5H74.1143L22.2177 86.5H0.894444Z" fill="#0E0C15" stroke="#EE1CF2"/>
<path d="M52.416 18.676L53.3218 19.2232L51.6289 22.0257L50.7231 21.4785L52.416 18.676ZM56.5419 19.9019L55.7273 19.4098L54.9141 15.9689C54.8303 15.6361 54.7489 15.3519 54.67 15.1162C54.5912 14.8804 54.4965 14.6822 54.3862 14.5215C54.2758 14.3608 54.1345 14.2284 53.9623 14.1244C53.7657 14.0057 53.5706 13.9486 53.3769 13.9533C53.1812 13.9568 52.9977 14.0133 52.8265 14.1228C52.6552 14.2324 52.5096 14.3864 52.3896 14.585C52.266 14.7897 52.2002 14.9947 52.1923 15.2001C52.1824 15.4043 52.2287 15.5955 52.3313 15.7736C52.4351 15.9497 52.5934 16.1021 52.8062 16.2306L52.158 17.3036C51.7629 17.0649 51.4739 16.7672 51.291 16.4106C51.1081 16.054 51.0321 15.6693 51.063 15.2564C51.0951 14.8416 51.2354 14.4285 51.4839 14.0171C51.736 13.5997 52.0356 13.28 52.3826 13.0582C52.7296 12.8363 53.0915 12.7202 53.4683 12.71C53.8463 12.6977 54.2096 12.7969 54.5582 13.0074C54.7912 13.1482 54.9933 13.3311 55.1643 13.5561C55.3354 13.7811 55.4898 14.0887 55.6275 14.4789C55.7664 14.8671 55.9086 15.3803 56.0541 16.0186L56.4972 17.7507L56.5397 17.7764L58.1775 15.0651L59.1198 15.6343L56.5419 19.9019ZM61.2617 12.3562C60.9594 12.8568 60.5732 13.2099 60.1033 13.4155C59.6325 13.6179 59.0989 13.6703 58.5023 13.5727C57.905 13.4719 57.2669 13.2164 56.588 12.8064C55.9104 12.3943 55.391 11.9492 55.0299 11.471C54.6679 10.9896 54.469 10.4947 54.4332 9.9863C54.3986 9.47584 54.5318 8.97136 54.833 8.47286C55.1341 7.97437 55.5186 7.62167 55.9865 7.41478C56.4545 7.2079 56.9851 7.15365 57.5784 7.25205C58.1729 7.34842 58.8086 7.60103 59.4854 8.00987C60.1663 8.42116 60.6897 8.86872 61.0557 9.35256C61.4209 9.83315 61.6218 10.3293 61.6585 10.841C61.6963 11.3506 61.5641 11.8557 61.2617 12.3562ZM60.3103 11.7815C60.5454 11.3925 60.5393 10.9698 60.2922 10.5135C60.0443 10.054 59.5464 9.59837 58.7987 9.14668C58.3043 8.84801 57.8576 8.64875 57.4588 8.5489C57.06 8.44905 56.7186 8.44194 56.4345 8.52758C56.1484 8.61199 55.9277 8.78287 55.7722 9.04022C55.5384 9.42727 55.5461 9.84954 55.7952 10.307C56.0423 10.7633 56.5361 11.2165 57.2766 11.6665C57.7718 11.9685 58.2192 12.171 58.6189 12.2741C59.0197 12.3751 59.3632 12.3835 59.6492 12.2991C59.9333 12.2134 60.1537 12.0409 60.3103 11.7815ZM64.0453 4.84301L63.717 4.64471C63.4758 4.49905 63.2846 4.31435 63.1431 4.09062C63.0029 3.86487 62.9304 3.61638 62.9255 3.34515C62.9206 3.07392 63.0026 2.79848 63.1716 2.51884C63.3454 2.23108 63.5528 2.02728 63.794 1.90741C64.0331 1.78632 64.2839 1.73733 64.5465 1.76044C64.8104 1.78153 65.0639 1.86552 65.3071 2.01241L65.6353 2.21071C65.8765 2.35637 66.0678 2.54107 66.2092 2.7648C66.3506 2.98852 66.4238 3.236 66.4287 3.50723C66.4348 3.77644 66.3521 4.05289 66.1808 4.33659C66.0094 4.62028 65.8025 4.82308 65.5602 4.94497C65.3179 5.06686 65.0648 5.11727 64.8009 5.09618C64.5383 5.07307 64.2864 4.98868 64.0453 4.84301ZM64.1962 3.85137L64.5245 4.04967C64.6846 4.14638 64.8547 4.19662 65.035 4.2004C65.2153 4.20419 65.3641 4.10881 65.4817 3.91428C65.6004 3.71772 65.6159 3.54318 65.5283 3.39066C65.4398 3.2349 65.3146 3.10805 65.1524 3.01013L64.8242 2.81183C64.662 2.7139 64.4927 2.66 64.3161 2.65014C64.1375 2.63905 63.987 2.73483 63.8646 2.93747C63.7495 3.12795 63.736 3.30371 63.824 3.46476C63.91 3.62458 64.0341 3.75345 64.1962 3.85137ZM58.5714 5.85533L58.2432 5.65703C58 5.51014 57.8083 5.32382 57.6681 5.09807C57.5279 4.87231 57.4563 4.62443 57.4535 4.35443C57.4486 4.0832 57.5306 3.80776 57.6996 3.52811C57.8722 3.24239 58.079 3.0396 58.3201 2.91973C58.5605 2.79661 58.8119 2.74661 59.0746 2.76972C59.3372 2.79284 59.5901 2.87784 59.8332 3.02473L60.1615 3.22303C60.4047 3.36991 60.597 3.55522 60.7384 3.77895C60.8791 3.99943 60.9508 4.24467 60.9537 4.51468C60.9565 4.78468 60.8729 5.06052 60.7027 5.34219C60.5301 5.62792 60.3237 5.83234 60.0833 5.95545C59.8442 6.07655 59.5928 6.12655 59.3289 6.10546C59.0651 6.08437 58.8126 6.001 58.5714 5.85533ZM58.7261 4.85761L59.0543 5.05591C59.2165 5.15384 59.387 5.20571 59.5661 5.21152C59.7443 5.21408 59.8922 5.11809 60.0097 4.92356C60.1272 4.72902 60.1421 4.5555 60.0545 4.40298C59.966 4.24722 59.8407 4.12037 59.6786 4.02244L59.3503 3.82414C59.1882 3.72622 59.0189 3.67232 58.8423 3.66246C58.6637 3.65137 58.5138 3.74613 58.3926 3.94675C58.2763 4.13926 58.2628 4.31502 58.3521 4.47404C58.4413 4.63305 58.566 4.76091 58.7261 4.85761ZM63.5104 8.3658L59.8705 0.32567L60.3295 -0.434233L63.9694 7.6059L63.5104 8.3658Z" fill="#EE1CF2"/>
<path d="M33.416 50.0588L34.3218 50.606L32.6289 53.4085L31.7231 52.8613L33.416 50.0588ZM37.5419 51.2847L36.7273 50.7926L35.9141 47.3517C35.8303 47.0189 35.7489 46.7347 35.67 46.499C35.5912 46.2632 35.4965 46.065 35.3862 45.9043C35.2758 45.7436 35.1345 45.6112 34.9623 45.5072C34.7657 45.3885 34.5706 45.3314 34.3769 45.3362C34.1812 45.3396 33.9977 45.3961 33.8265 45.5056C33.6552 45.6152 33.5096 45.7692 33.3896 45.9678C33.266 46.1725 33.2002 46.3775 33.1923 46.5829C33.1824 46.7871 33.2287 46.9783 33.3313 47.1564C33.4351 47.3325 33.5934 47.4849 33.8062 47.6134L33.158 48.6864C32.7629 48.4477 32.4739 48.15 32.291 47.7934C32.1081 47.4368 32.0321 47.0521 32.063 46.6393C32.0951 46.2244 32.2354 45.8113 32.4839 45.3999C32.736 44.9825 33.0356 44.6628 33.3826 44.441C33.7296 44.2191 34.0915 44.1031 34.4683 44.0928C34.8463 44.0805 35.2096 44.1797 35.5582 44.3902C35.7912 44.531 35.9933 44.7139 36.1643 44.9389C36.3354 45.164 36.4898 45.4716 36.6275 45.8617C36.7664 46.2499 36.9086 46.7631 37.0541 47.4014L37.4972 49.1335L37.5397 49.1592L39.1775 46.4479L40.1198 47.0171L37.5419 51.2847ZM42.2617 43.7391C41.9594 44.2396 41.5732 44.5927 41.1033 44.7983C40.6325 45.0007 40.0989 45.0532 39.5023 44.9556C38.905 44.8547 38.2669 44.5993 37.588 44.1892C36.9104 43.7771 36.391 43.332 36.0299 42.8538C35.6679 42.3725 35.469 41.8775 35.4332 41.3691C35.3986 40.8587 35.5318 40.3542 35.833 39.8557C36.1341 39.3572 36.5186 39.0045 36.9865 38.7976C37.4545 38.5907 37.9851 38.5365 38.5784 38.6349C39.1729 38.7312 39.8086 38.9838 40.4854 39.3927C41.1663 39.804 41.6897 40.2515 42.0557 40.7354C42.4209 41.216 42.6218 41.7121 42.6585 42.2238C42.6963 42.7334 42.5641 43.2385 42.2617 43.7391ZM41.3103 43.1643C41.5454 42.7753 41.5393 42.3526 41.2922 41.8963C41.0443 41.4368 40.5464 40.9812 39.7987 40.5295C39.3043 40.2308 38.8576 40.0316 38.4588 39.9317C38.06 39.8319 37.7186 39.8248 37.4345 39.9104C37.1484 39.9948 36.9277 40.1657 36.7722 40.423C36.5384 40.8101 36.5461 41.2324 36.7952 41.6899C37.0423 42.1461 37.5361 42.5993 38.2766 43.0493C38.7718 43.3513 39.2192 43.5538 39.6189 43.6569C40.0197 43.7579 40.3632 43.7663 40.6492 43.6819C40.9333 43.5962 41.1537 43.4237 41.3103 43.1643ZM45.0453 36.2258L44.717 36.0275C44.4758 35.8819 44.2846 35.6972 44.1431 35.4734C44.0029 35.2477 43.9304 34.9992 43.9255 34.728C43.9206 34.4567 44.0026 34.1813 44.1716 33.9016C44.3454 33.6139 44.5528 33.4101 44.794 33.2902C45.0331 33.1691 45.2839 33.1201 45.5465 33.1433C45.8104 33.1643 46.0639 33.2483 46.3071 33.3952L46.6353 33.5935C46.8765 33.7392 47.0678 33.9239 47.2092 34.1476C47.3506 34.3713 47.4238 34.6188 47.4287 34.89C47.4348 35.1592 47.3521 35.4357 47.1808 35.7194C47.0094 36.0031 46.8025 36.2059 46.5602 36.3278C46.3179 36.4497 46.0648 36.5001 45.8009 36.479C45.5383 36.4559 45.2864 36.3715 45.0453 36.2258ZM45.1962 35.2342L45.5245 35.4325C45.6846 35.5292 45.8547 35.5794 46.035 35.5832C46.2153 35.587 46.3641 35.4916 46.4817 35.2971C46.6004 35.1005 46.6159 34.926 46.5283 34.7735C46.4398 34.6177 46.3146 34.4909 46.1524 34.3929L45.8242 34.1946C45.662 34.0967 45.4927 34.0428 45.3161 34.033C45.1375 34.0219 44.987 34.1176 44.8646 34.3203C44.7495 34.5108 44.736 34.6865 44.824 34.8476C44.91 35.0074 45.0341 35.1363 45.1962 35.2342ZM39.5714 37.2381L39.2432 37.0398C39 36.893 38.8083 36.7066 38.6681 36.4809C38.5279 36.2551 38.4563 36.0072 38.4535 35.7372C38.4486 35.466 38.5306 35.1906 38.6996 34.9109C38.8722 34.6252 39.079 34.4224 39.3201 34.3025C39.5605 34.1794 39.8119 34.1294 40.0746 34.1525C40.3372 34.1756 40.5901 34.2606 40.8332 34.4075L41.1615 34.6058C41.4047 34.7527 41.597 34.938 41.7384 35.1618C41.8791 35.3822 41.9508 35.6275 41.9537 35.8975C41.9565 36.1675 41.8729 36.4433 41.7027 36.725C41.5301 37.0107 41.3237 37.2151 41.0833 37.3383C40.8442 37.4594 40.5928 37.5094 40.3289 37.4883C40.0651 37.4672 39.8126 37.3838 39.5714 37.2381ZM39.7261 36.2404L40.0543 36.4387C40.2165 36.5367 40.387 36.5885 40.5661 36.5943C40.7443 36.5969 40.8922 36.5009 41.0097 36.3064C41.1272 36.1118 41.1421 35.9383 41.0545 35.7858C40.966 35.63 40.8407 35.5032 40.6786 35.4053L40.3503 35.207C40.1882 35.109 40.0189 35.0551 39.8423 35.0453C39.6637 35.0342 39.5138 35.1289 39.3926 35.3296C39.2763 35.5221 39.2628 35.6978 39.3521 35.8568C39.4413 36.0159 39.566 36.1437 39.7261 36.2404ZM44.5104 39.7486L40.8705 31.7085L41.3295 30.9486L44.9694 38.9887L44.5104 39.7486Z" fill="#EE1CF2"/>
<path d="M14.416 81.4338L15.3218 81.981L13.6289 84.7835L12.7231 84.2363L14.416 81.4338ZM18.5419 82.6597L17.7273 82.1676L16.9141 78.7267C16.8303 78.3939 16.7489 78.1097 16.67 77.874C16.5912 77.6382 16.4965 77.44 16.3862 77.2793C16.2758 77.1186 16.1345 76.9862 15.9623 76.8822C15.7657 76.7635 15.5706 76.7064 15.3769 76.7112C15.1812 76.7146 14.9977 76.7711 14.8265 76.8806C14.6552 76.9902 14.5096 77.1442 14.3896 77.3428C14.266 77.5475 14.2002 77.7525 14.1923 77.9579C14.1824 78.1621 14.2287 78.3533 14.3313 78.5314C14.4351 78.7075 14.5934 78.8599 14.8062 78.9884L14.158 80.0614C13.7629 79.8227 13.4739 79.525 13.291 79.1684C13.1081 78.8118 13.0321 78.4271 13.063 78.0143C13.0951 77.5994 13.2354 77.1863 13.4839 76.7749C13.736 76.3575 14.0356 76.0378 14.3826 75.816C14.7296 75.5941 15.0915 75.4781 15.4683 75.4678C15.8463 75.4555 16.2096 75.5547 16.5582 75.7652C16.7912 75.906 16.9933 76.0889 17.1643 76.3139C17.3354 76.539 17.4898 76.8466 17.6275 77.2367C17.7664 77.6249 17.9086 78.1381 18.0541 78.7764L18.4972 80.5085L18.5397 80.5342L20.1775 77.8229L21.1198 78.3921L18.5419 82.6597ZM23.2617 75.1141C22.9594 75.6146 22.5732 75.9677 22.1033 76.1733C21.6325 76.3757 21.0989 76.4282 20.5023 76.3306C19.905 76.2297 19.2669 75.9743 18.588 75.5642C17.9104 75.1521 17.391 74.707 17.0299 74.2288C16.6679 73.7475 16.469 73.2525 16.4332 72.7441C16.3986 72.2337 16.5318 71.7292 16.833 71.2307C17.1341 70.7322 17.5186 70.3795 17.9865 70.1726C18.4545 69.9657 18.9851 69.9115 19.5784 70.0099C20.1729 70.1062 20.8086 70.3588 21.4854 70.7677C22.1663 71.179 22.6897 71.6265 23.0557 72.1104C23.4209 72.591 23.6218 73.0871 23.6585 73.5988C23.6963 74.1084 23.5641 74.6135 23.2617 75.1141ZM22.3103 74.5393C22.5454 74.1503 22.5393 73.7276 22.2922 73.2713C22.0443 72.8118 21.5464 72.3562 20.7987 71.9045C20.3043 71.6058 19.8576 71.4066 19.4588 71.3067C19.06 71.2069 18.7186 71.1998 18.4345 71.2854C18.1484 71.3698 17.9277 71.5407 17.7722 71.798C17.5384 72.1851 17.5461 72.6074 17.7952 73.0649C18.0423 73.5211 18.5361 73.9743 19.2766 74.4243C19.7718 74.7263 20.2192 74.9288 20.6189 75.0319C21.0197 75.1329 21.3632 75.1413 21.6492 75.0569C21.9333 74.9712 22.1537 74.7987 22.3103 74.5393ZM26.0453 67.6008L25.717 67.4025C25.4758 67.2569 25.2846 67.0722 25.1431 66.8484C25.0029 66.6227 24.9304 66.3742 24.9255 66.103C24.9206 65.8317 25.0026 65.5563 25.1716 65.2766C25.3454 64.9889 25.5528 64.7851 25.794 64.6652C26.0331 64.5441 26.2839 64.4951 26.5465 64.5183C26.8104 64.5393 27.0639 64.6233 27.3071 64.7702L27.6353 64.9685C27.8765 65.1142 28.0678 65.2989 28.2092 65.5226C28.3506 65.7463 28.4238 65.9938 28.4287 66.265C28.4348 66.5342 28.3521 66.8107 28.1808 67.0944C28.0094 67.3781 27.8025 67.5809 27.5602 67.7028C27.3179 67.8247 27.0648 67.8751 26.8009 67.854C26.5383 67.8309 26.2864 67.7465 26.0453 67.6008ZM26.1962 66.6092L26.5245 66.8075C26.6846 66.9042 26.8547 66.9544 27.035 66.9582C27.2153 66.962 27.3641 66.8666 27.4817 66.6721C27.6004 66.4755 27.6159 66.301 27.5283 66.1485C27.4398 65.9927 27.3146 65.8659 27.1524 65.7679L26.8242 65.5696C26.662 65.4717 26.4927 65.4178 26.3161 65.408C26.1375 65.3969 25.987 65.4926 25.8646 65.6953C25.7495 65.8858 25.736 66.0615 25.824 66.2226C25.91 66.3824 26.0341 66.5113 26.1962 66.6092ZM20.5714 68.6131L20.2432 68.4148C20 68.268 19.8083 68.0816 19.6681 67.8559C19.5279 67.6301 19.4563 67.3822 19.4535 67.1122C19.4486 66.841 19.5306 66.5656 19.6996 66.2859C19.8722 66.0002 20.079 65.7974 20.3201 65.6775C20.5605 65.5544 20.8119 65.5044 21.0746 65.5275C21.3372 65.5506 21.5901 65.6356 21.8332 65.7825L22.1615 65.9808C22.4047 66.1277 22.597 66.313 22.7384 66.5368C22.8791 66.7572 22.9508 67.0025 22.9537 67.2725C22.9565 67.5425 22.8729 67.8183 22.7027 68.1C22.5301 68.3857 22.3237 68.5901 22.0833 68.7133C21.8442 68.8344 21.5928 68.8844 21.3289 68.8633C21.0651 68.8422 20.8126 68.7588 20.5714 68.6131ZM20.7261 67.6154L21.0543 67.8137C21.2165 67.9117 21.387 67.9635 21.5661 67.9693C21.7443 67.9719 21.8922 67.8759 22.0097 67.6814C22.1272 67.4868 22.1421 67.3133 22.0545 67.1608C21.966 67.005 21.8407 66.8782 21.6786 66.7803L21.3503 66.582C21.1882 66.484 21.0189 66.4301 20.8423 66.4203C20.6637 66.4092 20.5138 66.5039 20.3926 66.7046C20.2763 66.8971 20.2628 67.0728 20.3521 67.2318C20.4413 67.3909 20.566 67.5187 20.7261 67.6154ZM25.5104 71.1236L21.8705 63.0835L22.3295 62.3236L25.9694 70.3637L25.5104 71.1236Z" fill="#EE1CF2"/>
</svg>
