<svg width="910" height="200" viewBox="0 0 910 200" fill="none" xmlns="http://www.w3.org/2000/svg">
<g clip-path="url(#clip0_5940_86376)">
<path d="M345.75 58.5221L342.105 41.4348C341.455 38.3882 339.559 35.7378 336.834 34.0668C334.11 32.3957 330.78 31.8408 327.577 32.5241L291.348 40.2538L289.74 32.7182C291.246 30.7515 291.941 28.2373 291.399 25.6986C290.911 23.4137 289.49 21.4259 287.446 20.1726C285.403 18.9193 282.906 18.5031 280.503 19.0156C278.101 19.5281 275.991 20.9273 274.637 22.9054C273.283 24.8835 272.797 27.2785 273.284 29.5635C273.826 32.1022 275.486 34.1139 277.664 35.2948L279.271 42.8304L243.042 50.5601C239.839 51.2435 237.026 53.1091 235.22 55.7466C233.415 58.384 232.766 61.5773 233.416 64.6239L237.09 81.8434L236.662 81.9648C235.161 82.3928 233.875 83.345 233.062 84.6294C232.249 85.9139 231.969 87.4352 232.28 88.8868L234.731 100.374C235.056 101.897 236.004 103.223 237.366 104.058C238.728 104.894 240.393 105.171 241.994 104.829L248.121 133.548C248.771 136.594 250.667 139.245 253.392 140.916C256.116 142.587 259.446 143.142 262.649 142.458L347.184 124.422C350.387 123.739 353.201 121.873 355.006 119.236C356.811 116.598 357.46 113.405 356.81 110.358L350.683 81.6403C352.284 81.2986 353.691 80.3658 354.593 79.047C355.496 77.7283 355.82 76.1317 355.495 74.6083L353.121 63.4772C353 62.5709 352.661 61.708 352.128 60.9566C350.31 58.4139 347.553 58.2998 345.75 58.5221ZM264.064 82.1054C262.712 75.7644 263.525 67.5005 268.525 66.4338C273.524 65.3671 277.015 72.7128 278.368 79.0538C279.72 85.3947 279.288 92.3841 274.289 93.4508C269.289 94.5175 265.417 88.4464 264.064 82.1054ZM323.228 100.909C323.74 103.342 322.242 105.937 319.962 106.928C315.354 108.929 308.096 112.22 300.593 113.822C292.233 115.607 283.652 115.785 279.124 115.724C277.194 115.697 275.583 114.314 275.18 112.425C274.581 109.617 276.846 106.974 279.717 106.973C284.526 106.971 291.717 106.653 298.744 105.153C306.257 103.55 313.511 100.186 318.114 98.1418C320.388 97.1321 322.716 98.4746 323.228 100.909ZM316.556 84.4328C311.557 85.4995 308.327 79.2915 306.974 72.9505C305.621 66.6095 305.793 58.4826 310.792 57.4159C315.792 56.3492 319.924 63.5579 321.277 69.8989C322.63 76.2399 321.556 83.3661 316.556 84.4328Z" fill="white"/>
</g>
<g clip-path="url(#clip1_5940_86376)">
<path d="M558.52 38.9273L550.447 31.8256C549.007 30.5594 547.098 29.9461 545.139 30.1207C543.18 30.2954 541.332 31.2436 540.001 32.7568L524.943 49.8731L521.383 46.7411C521.405 45.217 520.825 43.7202 519.626 42.6651C518.546 41.7154 517.114 41.2555 515.645 41.3864C514.176 41.5174 512.789 42.2286 511.791 43.3634C510.793 44.4983 510.264 45.964 510.321 47.438C510.379 48.912 511.018 50.2736 512.097 51.2232C513.296 52.2783 514.855 52.6626 516.364 52.4466L519.924 55.5785L504.867 72.6948C503.535 74.208 502.83 76.1622 502.907 78.1275C502.983 80.0928 503.835 81.9083 505.274 83.1745L513.41 90.3311L513.242 90.5485C512.659 91.3106 512.373 92.253 512.443 93.1859C512.512 94.1188 512.933 94.9728 513.619 95.5758L519.046 100.35C519.766 100.983 520.72 101.29 521.7 101.202C522.679 101.115 523.604 100.641 524.269 99.8845L537.837 111.82C539.276 113.086 541.185 113.7 543.144 113.525C545.103 113.35 546.952 112.402 548.283 110.889L583.417 70.9509C584.748 69.4377 585.453 67.4835 585.377 65.5182C585.3 63.5529 584.449 61.7374 583.009 60.4712L569.442 48.5355C570.107 47.7789 570.46 46.8018 570.421 45.8192C570.383 44.8365 569.957 43.9288 569.238 43.2957L563.979 38.6694C563.587 38.2659 563.102 37.9643 562.563 37.7887C560.732 37.2 559.328 38.1559 558.52 38.9273ZM526.829 80.5594C523.833 77.924 521.202 73.5437 523.28 71.1816C525.358 68.8196 529.778 71.1666 532.774 73.802C535.769 76.4374 538.122 80.0482 536.044 82.4103C533.966 84.7723 529.825 83.1948 526.829 80.5594ZM562.954 68.1304C564.1 69.1443 564.313 70.9758 563.55 72.3023C562.009 74.982 559.632 79.2713 556.514 82.8168C553.04 86.7672 548.867 90.0048 546.607 91.6365C545.644 92.3321 544.341 92.2398 543.449 91.455C542.122 90.288 542.27 88.1514 543.688 87.0969C546.063 85.3307 549.498 82.5341 552.418 79.214C555.541 75.664 557.889 71.3398 559.412 68.6407C560.165 67.3073 561.807 67.116 562.954 68.1304ZM553.611 62.4412C551.533 64.8033 547.659 62.9226 544.663 60.2872C541.667 57.6518 538.769 53.5747 540.847 51.2126C542.925 48.8506 547.612 50.8945 550.607 53.5299C553.603 56.1653 555.689 60.0792 553.611 62.4412Z" fill="white"/>
</g>
<g clip-path="url(#clip2_5940_86376)">
<path d="M135.908 149.459L130.059 152.768C129.016 153.358 128.263 154.36 127.964 155.552C127.665 156.744 127.846 158.03 128.466 159.126L135.481 171.528L132.902 172.987C132.007 172.661 131.004 172.696 130.135 173.188C129.353 173.63 128.788 174.381 128.564 175.276C128.339 176.17 128.475 177.134 128.94 177.957C129.405 178.779 130.162 179.392 131.044 179.66C131.926 179.929 132.861 179.831 133.643 179.388C134.512 178.897 135.059 178.056 135.241 177.12L137.82 175.661L144.836 188.062C145.456 189.159 146.465 189.976 147.641 190.334C148.817 190.692 150.063 190.562 151.106 189.972L157 186.637L157.094 186.78C157.424 187.281 157.922 187.644 158.487 187.794C159.052 187.944 159.643 187.871 160.14 187.59L164.072 185.365C164.593 185.07 164.97 184.569 165.119 183.973C165.269 183.377 165.178 182.734 164.868 182.186L174.698 176.625C175.741 176.035 176.495 175.034 176.794 173.841C177.093 172.649 176.912 171.363 176.292 170.267L159.922 141.331C159.302 140.235 158.293 139.417 157.117 139.059C155.941 138.701 154.694 138.832 153.651 139.422L143.821 144.983C143.511 144.435 143.007 144.026 142.419 143.847C141.831 143.668 141.207 143.733 140.686 144.028L136.876 146.184C136.557 146.332 136.28 146.556 136.066 146.839C135.342 147.799 135.619 148.824 135.908 149.459ZM153.985 176.71C151.814 177.938 148.688 178.593 147.72 176.881C146.752 175.17 149.044 173.042 151.215 171.814C153.385 170.586 156 169.938 156.968 171.65C157.936 173.361 156.155 175.482 153.985 176.71ZM154.058 152.833C154.892 152.364 156.017 152.615 156.644 153.337C157.909 154.797 159.954 157.08 161.407 159.648C163.027 162.51 164.082 165.637 164.582 167.306C164.795 168.017 164.473 168.768 163.827 169.133C162.866 169.677 161.635 169.151 161.303 168.098C160.748 166.334 159.801 163.732 158.44 161.327C156.985 158.755 154.914 156.482 153.633 155.029C153 154.311 153.224 153.302 154.058 152.833ZM148.783 157.182C149.751 158.893 147.846 160.794 145.675 162.022C143.505 163.25 140.503 164.125 139.535 162.413C138.567 160.702 140.735 158.354 142.906 157.126C145.076 155.899 147.815 155.47 148.783 157.182Z" fill="white"/>
</g>
<path d="M333.05 102.181C332.36 101.53 332.36 100.475 333.05 99.8241C333.74 99.1732 334.858 99.1732 335.548 99.8241L367.35 129.824C368.04 130.475 368.04 131.53 367.35 132.181C366.66 132.832 365.541 132.832 364.851 132.181L333.05 102.181Z" fill="#4785FF"/>
<path fill-rule="evenodd" clip-rule="evenodd" d="M351.966 106.836C351.966 110.978 355.526 114.336 359.917 114.336C364.308 114.336 367.867 110.978 367.867 106.836C367.867 102.694 364.308 99.3359 359.917 99.3359C355.526 99.3359 351.966 102.694 351.966 106.836ZM364.321 106.836C364.321 109.131 362.349 110.991 359.917 110.991C357.484 110.991 355.512 109.131 355.512 106.836C355.512 104.541 357.484 102.681 359.917 102.681C362.349 102.681 364.321 104.541 364.321 106.836Z" fill="#4785FF"/>
<path fill-rule="evenodd" clip-rule="evenodd" d="M332.533 125.164C332.533 129.306 336.092 132.664 340.483 132.664C344.874 132.664 348.434 129.306 348.434 125.164C348.434 121.022 344.874 117.664 340.483 117.664C336.092 117.664 332.533 121.022 332.533 125.164ZM344.888 125.164C344.888 127.459 342.916 129.319 340.483 129.319C338.051 129.319 336.079 127.459 336.079 125.164C336.079 122.869 338.051 121.009 340.483 121.009C342.916 121.009 344.888 122.869 344.888 125.164Z" fill="#4785FF"/>
<path d="M161.05 175.181C160.36 174.53 160.36 173.475 161.05 172.824C161.74 172.173 162.858 172.173 163.548 172.824L195.35 202.824C196.04 203.475 196.04 204.53 195.35 205.181C194.66 205.832 193.541 205.832 192.851 205.181L161.05 175.181Z" fill="#4785FF"/>
<path fill-rule="evenodd" clip-rule="evenodd" d="M179.966 179.836C179.966 183.978 183.526 187.336 187.917 187.336C192.308 187.336 195.867 183.978 195.867 179.836C195.867 175.694 192.308 172.336 187.917 172.336C183.526 172.336 179.966 175.694 179.966 179.836ZM192.321 179.836C192.321 182.131 190.349 183.991 187.917 183.991C185.484 183.991 183.512 182.131 183.512 179.836C183.512 177.541 185.484 175.681 187.917 175.681C190.349 175.681 192.321 177.541 192.321 179.836Z" fill="#4785FF"/>
<path fill-rule="evenodd" clip-rule="evenodd" d="M160.533 198.164C160.533 202.306 164.092 205.664 168.483 205.664C172.874 205.664 176.434 202.306 176.434 198.164C176.434 194.022 172.874 190.664 168.483 190.664C164.092 190.664 160.533 194.022 160.533 198.164ZM172.888 198.164C172.888 200.459 170.916 202.319 168.483 202.319C166.051 202.319 164.079 200.459 164.079 198.164C164.079 195.869 166.051 194.009 168.483 194.009C170.916 194.009 172.888 195.869 172.888 198.164Z" fill="#4785FF"/>
<path d="M25.0496 175.181C24.3597 174.53 24.3597 173.475 25.0496 172.824C25.7395 172.173 26.8582 172.173 27.5481 172.824L59.3497 202.824C60.0397 203.475 60.0397 204.53 59.3497 205.181C58.6598 205.832 57.5411 205.832 56.8511 205.181L25.0496 175.181Z" fill="#4785FF"/>
<path fill-rule="evenodd" clip-rule="evenodd" d="M43.9664 179.836C43.9664 183.978 47.5259 187.336 51.9168 187.336C56.3077 187.336 59.8672 183.978 59.8672 179.836C59.8672 175.694 56.3077 172.336 51.9168 172.336C47.5259 172.336 43.9664 175.694 43.9664 179.836ZM56.3214 179.836C56.3214 182.131 54.3494 183.991 51.9168 183.991C49.4842 183.991 47.5122 182.131 47.5122 179.836C47.5122 177.541 49.4842 175.681 51.9168 175.681C54.3494 175.681 56.3214 177.541 56.3214 179.836Z" fill="#4785FF"/>
<path fill-rule="evenodd" clip-rule="evenodd" d="M24.5328 198.164C24.5328 202.306 28.0923 205.664 32.4832 205.664C36.8741 205.664 40.4336 202.306 40.4336 198.164C40.4336 194.022 36.8741 190.664 32.4832 190.664C28.0923 190.664 24.5328 194.022 24.5328 198.164ZM36.8879 198.164C36.8879 200.459 34.9158 202.319 32.4832 202.319C30.0506 202.319 28.0785 200.459 28.0785 198.164C28.0785 195.869 30.0506 194.009 32.4832 194.009C34.9158 194.009 36.8879 195.869 36.8879 198.164Z" fill="#4785FF"/>
<path d="M293.025 111.087C292.68 110.761 292.68 110.234 293.025 109.908C293.37 109.583 293.929 109.583 294.274 109.908L310.175 124.908C310.52 125.234 310.52 125.761 310.175 126.087C309.83 126.412 309.271 126.412 308.926 126.087L293.025 111.087Z" fill="#4785FF"/>
<path fill-rule="evenodd" clip-rule="evenodd" d="M302.483 113.414C302.483 115.485 304.263 117.164 306.458 117.164C308.654 117.164 310.434 115.485 310.434 113.414C310.434 111.343 308.654 109.664 306.458 109.664C304.263 109.664 302.483 111.343 302.483 113.414ZM308.661 113.414C308.661 114.561 307.675 115.492 306.458 115.492C305.242 115.492 304.256 114.561 304.256 113.414C304.256 112.267 305.242 111.337 306.458 111.337C307.675 111.337 308.661 112.267 308.661 113.414Z" fill="#4785FF"/>
<path fill-rule="evenodd" clip-rule="evenodd" d="M292.764 122.586C292.764 124.657 294.544 126.336 296.74 126.336C298.935 126.336 300.715 124.657 300.715 122.586C300.715 120.515 298.935 118.836 296.74 118.836C294.544 118.836 292.764 120.515 292.764 122.586ZM298.942 122.586C298.942 123.733 297.956 124.664 296.74 124.664C295.523 124.664 294.537 123.733 294.537 122.586C294.537 121.439 295.523 120.508 296.74 120.508C297.956 120.508 298.942 121.439 298.942 122.586Z" fill="#4785FF"/>
<path d="M599.106 44.89C595.852 41.6356 595.852 36.3592 599.106 33.1048C602.36 29.8505 607.637 29.8505 610.891 33.1048L760.891 183.105C764.146 186.359 764.146 191.636 760.891 194.89C757.637 198.144 752.361 198.144 749.106 194.89L599.106 44.89Z" fill="#4785FF"/>
<path fill-rule="evenodd" clip-rule="evenodd" d="M688.332 68.1641C688.332 88.8747 705.121 105.664 725.832 105.664C746.543 105.664 763.332 88.8747 763.332 68.1641C763.332 47.4534 746.543 30.6641 725.832 30.6641C705.121 30.6641 688.332 47.4534 688.332 68.1641ZM746.608 68.1641C746.608 79.6381 737.306 88.9396 725.832 88.9396C714.358 88.9396 705.056 79.6381 705.056 68.1641C705.056 56.69 714.358 47.3885 725.832 47.3885C737.306 47.3885 746.608 56.69 746.608 68.1641Z" fill="#4785FF"/>
<path fill-rule="evenodd" clip-rule="evenodd" d="M596.668 159.836C596.668 180.547 613.457 197.336 634.168 197.336C654.879 197.336 671.668 180.547 671.668 159.836C671.668 139.125 654.879 122.336 634.168 122.336C613.457 122.336 596.668 139.125 596.668 159.836ZM654.944 159.836C654.944 171.31 645.642 180.612 634.168 180.612C622.694 180.612 613.392 171.31 613.392 159.836C613.392 148.362 622.694 139.06 634.168 139.06C645.642 139.06 654.944 148.362 654.944 159.836Z" fill="#4785FF"/>
<path d="M730.05 116.181C729.36 115.53 729.36 114.475 730.05 113.824C730.74 113.173 731.858 113.173 732.548 113.824L764.35 143.824C765.04 144.475 765.04 145.53 764.35 146.181C763.66 146.832 762.541 146.832 761.851 146.181L730.05 116.181Z" fill="#4785FF"/>
<path fill-rule="evenodd" clip-rule="evenodd" d="M748.966 120.836C748.966 124.978 752.526 128.336 756.917 128.336C761.308 128.336 764.867 124.978 764.867 120.836C764.867 116.694 761.308 113.336 756.917 113.336C752.526 113.336 748.966 116.694 748.966 120.836ZM761.321 120.836C761.321 123.131 759.349 124.991 756.917 124.991C754.484 124.991 752.512 123.131 752.512 120.836C752.512 118.541 754.484 116.681 756.917 116.681C759.349 116.681 761.321 118.541 761.321 120.836Z" fill="#4785FF"/>
<path fill-rule="evenodd" clip-rule="evenodd" d="M729.533 139.164C729.533 143.306 733.092 146.664 737.483 146.664C741.874 146.664 745.434 143.306 745.434 139.164C745.434 135.022 741.874 131.664 737.483 131.664C733.092 131.664 729.533 135.022 729.533 139.164ZM741.888 139.164C741.888 141.459 739.916 143.319 737.483 143.319C735.051 143.319 733.079 141.459 733.079 139.164C733.079 136.869 735.051 135.009 737.483 135.009C739.916 135.009 741.888 136.869 741.888 139.164Z" fill="#4785FF"/>
<path d="M412.106 201.89C408.852 198.636 408.852 193.359 412.106 190.105C415.36 186.85 420.637 186.85 423.891 190.105L573.891 340.105C577.146 343.359 577.146 348.636 573.891 351.89C570.637 355.144 565.361 355.144 562.106 351.89L412.106 201.89Z" fill="#4785FF"/>
<path fill-rule="evenodd" clip-rule="evenodd" d="M501.332 225.164C501.332 245.875 518.121 262.664 538.832 262.664C559.543 262.664 576.332 245.875 576.332 225.164C576.332 204.453 559.543 187.664 538.832 187.664C518.121 187.664 501.332 204.453 501.332 225.164ZM559.608 225.164C559.608 236.638 550.306 245.94 538.832 245.94C527.358 245.94 518.056 236.638 518.056 225.164C518.056 213.69 527.358 204.388 538.832 204.388C550.306 204.388 559.608 213.69 559.608 225.164Z" fill="#4785FF"/>
<path d="M339.025 145.087C338.68 144.761 338.68 144.234 339.025 143.908C339.37 143.583 339.929 143.583 340.274 143.908L356.175 158.908C356.52 159.234 356.52 159.761 356.175 160.087C355.83 160.412 355.271 160.412 354.926 160.087L339.025 145.087Z" fill="#4785FF"/>
<path fill-rule="evenodd" clip-rule="evenodd" d="M348.483 147.414C348.483 149.485 350.263 151.164 352.458 151.164C354.654 151.164 356.434 149.485 356.434 147.414C356.434 145.343 354.654 143.664 352.458 143.664C350.263 143.664 348.483 145.343 348.483 147.414ZM354.661 147.414C354.661 148.561 353.675 149.492 352.458 149.492C351.242 149.492 350.256 148.561 350.256 147.414C350.256 146.267 351.242 145.337 352.458 145.337C353.675 145.337 354.661 146.267 354.661 147.414Z" fill="#4785FF"/>
<path fill-rule="evenodd" clip-rule="evenodd" d="M338.764 156.586C338.764 158.657 340.544 160.336 342.74 160.336C344.935 160.336 346.715 158.657 346.715 156.586C346.715 154.515 344.935 152.836 342.74 152.836C340.544 152.836 338.764 154.515 338.764 156.586ZM344.942 156.586C344.942 157.733 343.956 158.664 342.74 158.664C341.523 158.664 340.537 157.733 340.537 156.586C340.537 155.439 341.523 154.508 342.74 154.508C343.956 154.508 344.942 155.439 344.942 156.586Z" fill="#4785FF"/>
<path d="M451.05 146.181C450.36 145.53 450.36 144.475 451.05 143.824C451.74 143.173 452.858 143.173 453.548 143.824L485.35 173.824C486.04 174.475 486.04 175.53 485.35 176.181C484.66 176.832 483.541 176.832 482.851 176.181L451.05 146.181Z" fill="#4785FF"/>
<path fill-rule="evenodd" clip-rule="evenodd" d="M469.966 150.836C469.966 154.978 473.526 158.336 477.917 158.336C482.308 158.336 485.867 154.978 485.867 150.836C485.867 146.694 482.308 143.336 477.917 143.336C473.526 143.336 469.966 146.694 469.966 150.836ZM482.321 150.836C482.321 153.131 480.349 154.991 477.917 154.991C475.484 154.991 473.512 153.131 473.512 150.836C473.512 148.541 475.484 146.681 477.917 146.681C480.349 146.681 482.321 148.541 482.321 150.836Z" fill="#4785FF"/>
<path fill-rule="evenodd" clip-rule="evenodd" d="M450.533 169.164C450.533 173.306 454.092 176.664 458.483 176.664C462.874 176.664 466.434 173.306 466.434 169.164C466.434 165.022 462.874 161.664 458.483 161.664C454.092 161.664 450.533 165.022 450.533 169.164ZM462.888 169.164C462.888 171.459 460.916 173.319 458.483 173.319C456.051 173.319 454.079 171.459 454.079 169.164C454.079 166.869 456.051 165.009 458.483 165.009C460.916 165.009 462.888 166.869 462.888 169.164Z" fill="#4785FF"/>
<path d="M259.025 128.087C258.68 127.761 258.68 127.234 259.025 126.908C259.37 126.583 259.929 126.583 260.274 126.908L276.175 141.908C276.52 142.234 276.52 142.761 276.175 143.087C275.83 143.412 275.271 143.412 274.926 143.087L259.025 128.087Z" fill="#4785FF"/>
<path fill-rule="evenodd" clip-rule="evenodd" d="M268.483 130.414C268.483 132.485 270.263 134.164 272.458 134.164C274.654 134.164 276.434 132.485 276.434 130.414C276.434 128.343 274.654 126.664 272.458 126.664C270.263 126.664 268.483 128.343 268.483 130.414ZM274.661 130.414C274.661 131.561 273.675 132.492 272.458 132.492C271.242 132.492 270.256 131.561 270.256 130.414C270.256 129.267 271.242 128.337 272.458 128.337C273.675 128.337 274.661 129.267 274.661 130.414Z" fill="#4785FF"/>
<path fill-rule="evenodd" clip-rule="evenodd" d="M258.764 139.586C258.764 141.657 260.544 143.336 262.74 143.336C264.935 143.336 266.715 141.657 266.715 139.586C266.715 137.515 264.935 135.836 262.74 135.836C260.544 135.836 258.764 137.515 258.764 139.586ZM264.942 139.586C264.942 140.733 263.956 141.664 262.74 141.664C261.523 141.664 260.537 140.733 260.537 139.586C260.537 138.439 261.523 137.508 262.74 137.508C263.956 137.508 264.942 138.439 264.942 139.586Z" fill="#4785FF"/>
<path d="M183.025 148.087C182.68 147.761 182.68 147.234 183.025 146.908C183.37 146.583 183.929 146.583 184.274 146.908L200.175 161.908C200.52 162.234 200.52 162.761 200.175 163.087C199.83 163.412 199.271 163.412 198.926 163.087L183.025 148.087Z" fill="#4785FF"/>
<path fill-rule="evenodd" clip-rule="evenodd" d="M192.483 150.414C192.483 152.485 194.263 154.164 196.458 154.164C198.654 154.164 200.434 152.485 200.434 150.414C200.434 148.343 198.654 146.664 196.458 146.664C194.263 146.664 192.483 148.343 192.483 150.414ZM198.661 150.414C198.661 151.561 197.675 152.492 196.458 152.492C195.242 152.492 194.256 151.561 194.256 150.414C194.256 149.267 195.242 148.337 196.458 148.337C197.675 148.337 198.661 149.267 198.661 150.414Z" fill="#4785FF"/>
<path fill-rule="evenodd" clip-rule="evenodd" d="M182.764 159.586C182.764 161.657 184.544 163.336 186.74 163.336C188.935 163.336 190.715 161.657 190.715 159.586C190.715 157.515 188.935 155.836 186.74 155.836C184.544 155.836 182.764 157.515 182.764 159.586ZM188.942 159.586C188.942 160.733 187.956 161.664 186.74 161.664C185.523 161.664 184.537 160.733 184.537 159.586C184.537 158.439 185.523 157.508 186.74 157.508C187.956 157.508 188.942 158.439 188.942 159.586Z" fill="#4785FF"/>
<path d="M2.0248 119.087C1.67984 118.761 1.67984 118.234 2.0248 117.908C2.36976 117.583 2.92911 117.583 3.27407 117.908L19.1749 132.908C19.5198 133.234 19.5198 133.761 19.1749 134.087C18.8299 134.412 18.2706 134.412 17.9256 134.087L2.0248 119.087Z" fill="#4785FF"/>
<path fill-rule="evenodd" clip-rule="evenodd" d="M11.4832 121.414C11.4832 123.485 13.263 125.164 15.4584 125.164C17.6538 125.164 19.4336 123.485 19.4336 121.414C19.4336 119.343 17.6538 117.664 15.4584 117.664C13.263 117.664 11.4832 119.343 11.4832 121.414ZM17.6607 121.414C17.6607 122.561 16.6747 123.492 15.4584 123.492C14.2421 123.492 13.2561 122.561 13.2561 121.414C13.2561 120.267 14.2421 119.337 15.4584 119.337C16.6747 119.337 17.6607 120.267 17.6607 121.414Z" fill="#4785FF"/>
<path fill-rule="evenodd" clip-rule="evenodd" d="M1.76445 130.586C1.76445 132.657 3.54419 134.336 5.73965 134.336C7.9351 134.336 9.71484 132.657 9.71484 130.586C9.71484 128.515 7.9351 126.836 5.73965 126.836C3.54419 126.836 1.76445 128.515 1.76445 130.586ZM7.94199 130.586C7.94199 131.733 6.95597 132.664 5.73965 132.664C4.52333 132.664 3.5373 131.733 3.5373 130.586C3.5373 129.439 4.52333 128.508 5.73965 128.508C6.95597 128.508 7.94199 129.439 7.94199 130.586Z" fill="#4785FF"/>
<path d="M295.05 136.181C294.36 135.53 294.36 134.475 295.05 133.824C295.74 133.173 296.858 133.173 297.548 133.824L329.35 163.824C330.04 164.475 330.04 165.53 329.35 166.181C328.66 166.832 327.541 166.832 326.851 166.181L295.05 136.181Z" fill="#4785FF"/>
<path fill-rule="evenodd" clip-rule="evenodd" d="M313.966 140.836C313.966 144.978 317.526 148.336 321.917 148.336C326.308 148.336 329.867 144.978 329.867 140.836C329.867 136.694 326.308 133.336 321.917 133.336C317.526 133.336 313.966 136.694 313.966 140.836ZM326.321 140.836C326.321 143.131 324.349 144.991 321.917 144.991C319.484 144.991 317.512 143.131 317.512 140.836C317.512 138.541 319.484 136.681 321.917 136.681C324.349 136.681 326.321 138.541 326.321 140.836Z" fill="#4785FF"/>
<path fill-rule="evenodd" clip-rule="evenodd" d="M294.533 159.164C294.533 163.306 298.092 166.664 302.483 166.664C306.874 166.664 310.434 163.306 310.434 159.164C310.434 155.022 306.874 151.664 302.483 151.664C298.092 151.664 294.533 155.022 294.533 159.164ZM306.888 159.164C306.888 161.459 304.916 163.319 302.483 163.319C300.051 163.319 298.079 161.459 298.079 159.164C298.079 156.869 300.051 155.009 302.483 155.009C304.916 155.009 306.888 156.869 306.888 159.164Z" fill="#4785FF"/>
<path d="M276.05 187.181C275.36 186.53 275.36 185.475 276.05 184.824C276.74 184.173 277.858 184.173 278.548 184.824L310.35 214.824C311.04 215.475 311.04 216.53 310.35 217.181C309.66 217.832 308.541 217.832 307.851 217.181L276.05 187.181Z" fill="#4785FF"/>
<path fill-rule="evenodd" clip-rule="evenodd" d="M294.966 191.836C294.966 195.978 298.526 199.336 302.917 199.336C307.308 199.336 310.867 195.978 310.867 191.836C310.867 187.694 307.308 184.336 302.917 184.336C298.526 184.336 294.966 187.694 294.966 191.836ZM307.321 191.836C307.321 194.131 305.349 195.991 302.917 195.991C300.484 195.991 298.512 194.131 298.512 191.836C298.512 189.541 300.484 187.681 302.917 187.681C305.349 187.681 307.321 189.541 307.321 191.836Z" fill="#4785FF"/>
<path d="M799.106 -85.11C795.852 -88.3644 795.852 -93.6408 799.106 -96.8952C802.36 -100.15 807.637 -100.15 810.891 -96.8952L960.891 53.1049C964.146 56.3591 964.146 61.6357 960.891 64.8899C957.637 68.1441 952.361 68.1441 949.106 64.8899L799.106 -85.11Z" fill="#4785FF"/>
<path fill-rule="evenodd" clip-rule="evenodd" d="M796.668 29.8359C796.668 50.5468 813.457 67.3359 834.168 67.3359C854.879 67.3359 871.668 50.5468 871.668 29.8359C871.668 9.1251 854.879 -7.66406 834.168 -7.66406C813.457 -7.66406 796.668 9.1251 796.668 29.8359ZM854.944 29.8359C854.944 41.3101 845.642 50.6118 834.168 50.6118C822.694 50.6118 813.392 41.3101 813.392 29.8359C813.392 18.3618 822.694 9.0601 834.168 9.0601C845.642 9.0601 854.944 18.3618 854.944 29.8359Z" fill="#4785FF"/>
<path d="M598.638 89.0867C598.293 88.7612 598.293 88.2336 598.638 87.9081C598.983 87.5827 599.542 87.5827 599.887 87.9081L615.788 102.908C616.133 103.234 616.133 103.761 615.788 104.087C615.443 104.412 614.884 104.412 614.539 104.087L598.638 89.0867Z" fill="#4785FF"/>
<path fill-rule="evenodd" clip-rule="evenodd" d="M608.096 91.4141C608.096 93.4851 609.876 95.1641 612.072 95.1641C614.267 95.1641 616.047 93.4851 616.047 91.4141C616.047 89.343 614.267 87.6641 612.072 87.6641C609.876 87.6641 608.096 89.343 608.096 91.4141ZM614.274 91.4141C614.274 92.5615 613.288 93.4916 612.072 93.4916C610.855 93.4916 609.869 92.5615 609.869 91.4141C609.869 90.2667 610.855 89.3365 612.072 89.3365C613.288 89.3365 614.274 90.2667 614.274 91.4141Z" fill="#4785FF"/>
<path fill-rule="evenodd" clip-rule="evenodd" d="M598.378 100.586C598.378 102.657 600.157 104.336 602.353 104.336C604.548 104.336 606.328 102.657 606.328 100.586C606.328 98.5149 604.548 96.8359 602.353 96.8359C600.157 96.8359 598.378 98.5149 598.378 100.586ZM604.555 100.586C604.555 101.733 603.569 102.664 602.353 102.664C601.137 102.664 600.151 101.733 600.151 100.586C600.151 99.4385 601.137 98.5084 602.353 98.5084C603.569 98.5084 604.555 99.4385 604.555 100.586Z" fill="#4785FF"/>
<path d="M635.643 34.1811C634.953 33.5302 634.953 32.475 635.643 31.8241C636.333 31.1732 637.452 31.1732 638.142 31.8241L669.943 61.8241C670.633 62.4749 670.633 63.5303 669.943 64.1811C669.254 64.8319 668.135 64.8319 667.445 64.1811L635.643 34.1811Z" fill="#4785FF"/>
<path fill-rule="evenodd" clip-rule="evenodd" d="M654.56 38.8359C654.56 42.9781 658.12 46.3359 662.511 46.3359C666.901 46.3359 670.461 42.9781 670.461 38.8359C670.461 34.6938 666.901 31.3359 662.511 31.3359C658.12 31.3359 654.56 34.6938 654.56 38.8359ZM666.915 38.8359C666.915 41.1308 664.943 42.9911 662.511 42.9911C660.078 42.9911 658.106 41.1308 658.106 38.8359C658.106 36.5411 660.078 34.6808 662.511 34.6808C664.943 34.6808 666.915 36.5411 666.915 38.8359Z" fill="#4785FF"/>
<path fill-rule="evenodd" clip-rule="evenodd" d="M635.127 57.1641C635.127 61.3062 638.686 64.6641 643.077 64.6641C647.468 64.6641 651.027 61.3062 651.027 57.1641C651.027 53.0219 647.468 49.6641 643.077 49.6641C638.686 49.6641 635.127 53.0219 635.127 57.1641ZM647.482 57.1641C647.482 59.4589 645.51 61.3192 643.077 61.3192C640.644 61.3192 638.672 59.4589 638.672 57.1641C638.672 54.8692 640.644 53.0089 643.077 53.0089C645.51 53.0089 647.482 54.8692 647.482 57.1641Z" fill="#4785FF"/>
<path d="M868.074 154.268C867.04 153.291 867.04 151.709 868.074 150.732C869.109 149.756 870.787 149.756 871.822 150.732L919.525 195.732C920.56 196.708 920.56 198.291 919.525 199.268C918.49 200.244 916.812 200.244 915.777 199.268L868.074 154.268Z" fill="#4785FF"/>
<path fill-rule="evenodd" clip-rule="evenodd" d="M896.45 161.25C896.45 167.463 901.789 172.5 908.375 172.5C914.962 172.5 920.301 167.463 920.301 161.25C920.301 155.037 914.962 150 908.375 150C901.789 150 896.45 155.037 896.45 161.25ZM914.982 161.25C914.982 164.692 912.024 167.483 908.375 167.483C904.726 167.483 901.768 164.692 901.768 161.25C901.768 157.808 904.726 155.017 908.375 155.017C912.024 155.017 914.982 157.808 914.982 161.25Z" fill="#4785FF"/>
<path fill-rule="evenodd" clip-rule="evenodd" d="M867.297 188.75C867.297 194.963 872.636 200 879.223 200C885.809 200 891.148 194.963 891.148 188.75C891.148 182.537 885.809 177.5 879.223 177.5C872.636 177.5 867.297 182.537 867.297 188.75ZM885.83 188.75C885.83 192.192 882.872 194.983 879.223 194.983C875.574 194.983 872.616 192.192 872.616 188.75C872.616 185.308 875.574 182.517 879.223 182.517C882.872 182.517 885.83 185.308 885.83 188.75Z" fill="#4785FF"/>
<path d="M872.05 77.1811C871.36 76.5302 871.36 75.475 872.05 74.8241C872.74 74.1732 873.858 74.1732 874.548 74.8241L906.35 104.824C907.04 105.475 907.04 106.53 906.35 107.181C905.66 107.832 904.541 107.832 903.851 107.181L872.05 77.1811Z" fill="#4785FF"/>
<path fill-rule="evenodd" clip-rule="evenodd" d="M890.966 81.8359C890.966 85.9781 894.526 89.3359 898.917 89.3359C903.308 89.3359 906.867 85.9781 906.867 81.8359C906.867 77.6938 903.308 74.3359 898.917 74.3359C894.526 74.3359 890.966 77.6938 890.966 81.8359ZM903.321 81.8359C903.321 84.1308 901.349 85.9911 898.917 85.9911C896.484 85.9911 894.512 84.1308 894.512 81.8359C894.512 79.5411 896.484 77.6808 898.917 77.6808C901.349 77.6808 903.321 79.5411 903.321 81.8359Z" fill="#4785FF"/>
<path fill-rule="evenodd" clip-rule="evenodd" d="M871.533 100.164C871.533 104.306 875.092 107.664 879.483 107.664C883.874 107.664 887.434 104.306 887.434 100.164C887.434 96.0219 883.874 92.6641 879.483 92.6641C875.092 92.6641 871.533 96.0219 871.533 100.164ZM883.888 100.164C883.888 102.459 881.916 104.319 879.483 104.319C877.051 104.319 875.079 102.459 875.079 100.164C875.079 97.8692 877.051 96.0089 879.483 96.0089C881.916 96.0089 883.888 97.8692 883.888 100.164Z" fill="#4785FF"/>
<path d="M784.05 73.1811C783.36 72.5302 783.36 71.475 784.05 70.8241C784.74 70.1732 785.858 70.1732 786.548 70.8241L818.35 100.824C819.04 101.475 819.04 102.53 818.35 103.181C817.66 103.832 816.541 103.832 815.851 103.181L784.05 73.1811Z" fill="#4785FF"/>
<path fill-rule="evenodd" clip-rule="evenodd" d="M802.966 77.8359C802.966 81.9781 806.526 85.3359 810.917 85.3359C815.308 85.3359 818.867 81.9781 818.867 77.8359C818.867 73.6938 815.308 70.3359 810.917 70.3359C806.526 70.3359 802.966 73.6938 802.966 77.8359ZM815.321 77.8359C815.321 80.1308 813.349 81.9911 810.917 81.9911C808.484 81.9911 806.512 80.1308 806.512 77.8359C806.512 75.5411 808.484 73.6808 810.917 73.6808C813.349 73.6808 815.321 75.5411 815.321 77.8359Z" fill="#4785FF"/>
<path fill-rule="evenodd" clip-rule="evenodd" d="M783.533 96.1641C783.533 100.306 787.092 103.664 791.483 103.664C795.874 103.664 799.434 100.306 799.434 96.1641C799.434 92.0219 795.874 88.6641 791.483 88.6641C787.092 88.6641 783.533 92.0219 783.533 96.1641ZM795.888 96.1641C795.888 98.4589 793.916 100.319 791.483 100.319C789.051 100.319 787.079 98.4589 787.079 96.1641C787.079 93.8692 789.051 92.0089 791.483 92.0089C793.916 92.0089 795.888 93.8692 795.888 96.1641Z" fill="#4785FF"/>
<path d="M684.05 189.181C683.36 188.53 683.36 187.475 684.05 186.824C684.74 186.173 685.858 186.173 686.548 186.824L718.35 216.824C719.04 217.475 719.04 218.53 718.35 219.181C717.66 219.832 716.541 219.832 715.851 219.181L684.05 189.181Z" fill="#4785FF"/>
<path fill-rule="evenodd" clip-rule="evenodd" d="M702.966 193.836C702.966 197.978 706.526 201.336 710.917 201.336C715.308 201.336 718.867 197.978 718.867 193.836C718.867 189.694 715.308 186.336 710.917 186.336C706.526 186.336 702.966 189.694 702.966 193.836ZM715.321 193.836C715.321 196.131 713.349 197.991 710.917 197.991C708.484 197.991 706.512 196.131 706.512 193.836C706.512 191.541 708.484 189.681 710.917 189.681C713.349 189.681 715.321 191.541 715.321 193.836Z" fill="#4785FF"/>
<path d="M494.374 100.449C492.649 98.8217 492.649 96.1835 494.374 94.5563C496.099 92.9291 498.896 92.9291 500.62 94.5563L580.124 169.556C581.849 171.183 581.849 173.822 580.124 175.449C578.399 177.076 575.603 177.076 573.878 175.449L494.374 100.449Z" fill="#4785FF"/>
<path fill-rule="evenodd" clip-rule="evenodd" d="M541.666 112.086C541.666 122.441 550.565 130.836 561.542 130.836C572.519 130.836 581.418 122.441 581.418 112.086C581.418 101.731 572.519 93.3359 561.542 93.3359C550.565 93.3359 541.666 101.731 541.666 112.086ZM572.554 112.086C572.554 117.823 567.624 122.474 561.542 122.474C555.46 122.474 550.53 117.823 550.53 112.086C550.53 106.349 555.46 101.698 561.542 101.698C567.624 101.698 572.554 106.349 572.554 112.086Z" fill="#4785FF"/>
<path fill-rule="evenodd" clip-rule="evenodd" d="M493.08 157.914C493.08 168.269 501.979 176.664 512.956 176.664C523.933 176.664 532.832 168.269 532.832 157.914C532.832 147.559 523.933 139.164 512.956 139.164C501.979 139.164 493.08 147.559 493.08 157.914ZM523.968 157.914C523.968 163.651 519.038 168.302 512.956 168.302C506.874 168.302 501.944 163.651 501.944 157.914C501.944 152.177 506.874 147.526 512.956 147.526C519.038 147.526 523.968 152.177 523.968 157.914Z" fill="#4785FF"/>
<path d="M676.642 -46.6456C675.34 -47.9473 675.34 -50.0579 676.642 -51.3596C677.943 -52.6614 680.054 -52.6614 681.356 -51.3596L741.356 8.6404C742.657 9.94206 742.657 12.0527 741.356 13.3544C740.054 14.6561 737.943 14.6561 736.642 13.3544L676.642 -46.6456Z" fill="#4785FF"/>
<path fill-rule="evenodd" clip-rule="evenodd" d="M675.668 -0.664062C675.668 7.62027 682.384 14.3359 690.668 14.3359C698.952 14.3359 705.668 7.62027 705.668 -0.664062C705.668 -8.9484 698.952 -15.6641 690.668 -15.6641C682.384 -15.6641 675.668 -8.9484 675.668 -0.664062ZM698.978 -0.664062C698.978 3.9256 695.258 7.64627 690.668 7.64627C686.078 7.64627 682.358 3.9256 682.358 -0.664062C682.358 -5.25373 686.078 -8.9744 690.668 -8.9744C695.258 -8.9744 698.978 -5.25373 698.978 -0.664062Z" fill="#4785FF"/>
<path d="M320.642 175.354C319.34 174.053 319.34 171.942 320.642 170.64C321.943 169.339 324.054 169.339 325.356 170.64L385.356 230.64C386.657 231.942 386.657 234.053 385.356 235.354C384.054 236.656 381.943 236.656 380.642 235.354L320.642 175.354Z" fill="#4785FF"/>
<path fill-rule="evenodd" clip-rule="evenodd" d="M356.332 184.664C356.332 192.948 363.048 199.664 371.332 199.664C379.616 199.664 386.332 192.948 386.332 184.664C386.332 176.38 379.616 169.664 371.332 169.664C363.048 169.664 356.332 176.38 356.332 184.664ZM379.642 184.664C379.642 189.254 375.922 192.974 371.332 192.974C366.742 192.974 363.022 189.254 363.022 184.664C363.022 180.074 366.742 176.354 371.332 176.354C375.922 176.354 379.642 180.074 379.642 184.664Z" fill="#4785FF"/>
<path d="M378.642 97.3544C377.34 96.0527 377.34 93.9421 378.642 92.6404C379.943 91.3386 382.054 91.3386 383.356 92.6404L443.356 152.64C444.657 153.942 444.657 156.053 443.356 157.354C442.054 158.656 439.943 158.656 438.642 157.354L378.642 97.3544Z" fill="#4785FF"/>
<path fill-rule="evenodd" clip-rule="evenodd" d="M414.332 106.664C414.332 114.948 421.048 121.664 429.332 121.664C437.616 121.664 444.332 114.948 444.332 106.664C444.332 98.3798 437.616 91.6641 429.332 91.6641C421.048 91.6641 414.332 98.3798 414.332 106.664ZM437.642 106.664C437.642 111.254 433.922 114.974 429.332 114.974C424.742 114.974 421.022 111.254 421.022 106.664C421.022 102.074 424.742 98.3538 429.332 98.3538C433.922 98.3538 437.642 102.074 437.642 106.664Z" fill="#4785FF"/>
<path fill-rule="evenodd" clip-rule="evenodd" d="M377.668 143.336C377.668 151.62 384.384 158.336 392.668 158.336C400.952 158.336 407.668 151.62 407.668 143.336C407.668 135.052 400.952 128.336 392.668 128.336C384.384 128.336 377.668 135.052 377.668 143.336ZM400.978 143.336C400.978 147.926 397.258 151.646 392.668 151.646C388.078 151.646 384.358 147.926 384.358 143.336C384.358 138.746 388.078 135.026 392.668 135.026C397.258 135.026 400.978 138.746 400.978 143.336Z" fill="#4785FF"/>
<path d="M206.642 159.354C205.34 158.053 205.34 155.942 206.642 154.64C207.943 153.339 210.054 153.339 211.356 154.64L271.356 214.64C272.657 215.942 272.657 218.053 271.356 219.354C270.054 220.656 267.943 220.656 266.642 219.354L206.642 159.354Z" fill="#4785FF"/>
<path fill-rule="evenodd" clip-rule="evenodd" d="M242.332 168.664C242.332 176.948 249.048 183.664 257.332 183.664C265.616 183.664 272.332 176.948 272.332 168.664C272.332 160.38 265.616 153.664 257.332 153.664C249.048 153.664 242.332 160.38 242.332 168.664ZM265.642 168.664C265.642 173.254 261.922 176.974 257.332 176.974C252.742 176.974 249.022 173.254 249.022 168.664C249.022 164.074 252.742 160.354 257.332 160.354C261.922 160.354 265.642 164.074 265.642 168.664Z" fill="#4785FF"/>
<path fill-rule="evenodd" clip-rule="evenodd" d="M205.668 205.336C205.668 213.62 212.384 220.336 220.668 220.336C228.952 220.336 235.668 213.62 235.668 205.336C235.668 197.052 228.952 190.336 220.668 190.336C212.384 190.336 205.668 197.052 205.668 205.336ZM228.978 205.336C228.978 209.926 225.258 213.646 220.668 213.646C216.078 213.646 212.358 209.926 212.358 205.336C212.358 200.746 216.078 197.026 220.668 197.026C225.258 197.026 228.978 200.746 228.978 205.336Z" fill="#4785FF"/>
<path d="M78.6417 194.354C77.34 193.053 77.34 190.942 78.6417 189.64C79.9434 188.339 82.054 188.339 83.3557 189.64L143.356 249.64C144.657 250.942 144.657 253.053 143.356 254.354C142.054 255.656 139.943 255.656 138.642 254.354L78.6417 194.354Z" fill="#4785FF"/>
<path fill-rule="evenodd" clip-rule="evenodd" d="M114.332 203.664C114.332 211.948 121.048 218.664 129.332 218.664C137.616 218.664 144.332 211.948 144.332 203.664C144.332 195.38 137.616 188.664 129.332 188.664C121.048 188.664 114.332 195.38 114.332 203.664ZM137.642 203.664C137.642 208.254 133.922 211.974 129.332 211.974C124.742 211.974 121.022 208.254 121.022 203.664C121.022 199.074 124.742 195.354 129.332 195.354C133.922 195.354 137.642 199.074 137.642 203.664Z" fill="#4785FF"/>
<path d="M777.642 117.354C776.34 116.053 776.34 113.942 777.642 112.64C778.943 111.339 781.054 111.339 782.356 112.64L842.356 172.64C843.657 173.942 843.657 176.053 842.356 177.354C841.054 178.656 838.943 178.656 837.642 177.354L777.642 117.354Z" fill="#4785FF"/>
<path fill-rule="evenodd" clip-rule="evenodd" d="M813.332 126.664C813.332 134.948 820.048 141.664 828.332 141.664C836.616 141.664 843.332 134.948 843.332 126.664C843.332 118.38 836.616 111.664 828.332 111.664C820.048 111.664 813.332 118.38 813.332 126.664ZM836.642 126.664C836.642 131.254 832.922 134.974 828.332 134.974C823.742 134.974 820.022 131.254 820.022 126.664C820.022 122.074 823.742 118.354 828.332 118.354C832.922 118.354 836.642 122.074 836.642 126.664Z" fill="#4785FF"/>
<path fill-rule="evenodd" clip-rule="evenodd" d="M776.668 163.336C776.668 171.62 783.384 178.336 791.668 178.336C799.952 178.336 806.668 171.62 806.668 163.336C806.668 155.052 799.952 148.336 791.668 148.336C783.384 148.336 776.668 155.052 776.668 163.336ZM799.978 163.336C799.978 167.926 796.258 171.646 791.668 171.646C787.078 171.646 783.358 167.926 783.358 163.336C783.358 158.746 787.078 155.026 791.668 155.026C796.258 155.026 799.978 158.746 799.978 163.336Z" fill="#4785FF"/>
<path d="M768.025 21.0867C767.68 20.7612 767.68 20.2336 768.025 19.9081C768.37 19.5827 768.929 19.5827 769.274 19.9081L785.175 34.9081C785.52 35.2336 785.52 35.7612 785.175 36.0866C784.83 36.4121 784.271 36.4121 783.926 36.0866L768.025 21.0867Z" fill="#4785FF"/>
<path fill-rule="evenodd" clip-rule="evenodd" d="M777.483 23.4141C777.483 25.4851 779.263 27.1641 781.458 27.1641C783.654 27.1641 785.434 25.4851 785.434 23.4141C785.434 21.343 783.654 19.6641 781.458 19.6641C779.263 19.6641 777.483 21.343 777.483 23.4141ZM783.661 23.4141C783.661 24.5615 782.675 25.4916 781.458 25.4916C780.242 25.4916 779.256 24.5615 779.256 23.4141C779.256 22.2667 780.242 21.3365 781.458 21.3365C782.675 21.3365 783.661 22.2667 783.661 23.4141Z" fill="#4785FF"/>
<path fill-rule="evenodd" clip-rule="evenodd" d="M767.764 32.5859C767.764 34.657 769.544 36.3359 771.74 36.3359C773.935 36.3359 775.715 34.657 775.715 32.5859C775.715 30.5149 773.935 28.8359 771.74 28.8359C769.544 28.8359 767.764 30.5149 767.764 32.5859ZM773.942 32.5859C773.942 33.7334 772.956 34.6635 771.74 34.6635C770.523 34.6635 769.537 33.7334 769.537 32.5859C769.537 31.4385 770.523 30.5084 771.74 30.5084C772.956 30.5084 773.942 31.4385 773.942 32.5859Z" fill="#4785FF"/>
<path d="M804.025 194.087C803.68 193.761 803.68 193.234 804.025 192.908C804.37 192.583 804.929 192.583 805.274 192.908L821.175 207.908C821.52 208.234 821.52 208.761 821.175 209.087C820.83 209.412 820.271 209.412 819.926 209.087L804.025 194.087Z" fill="#4785FF"/>
<path fill-rule="evenodd" clip-rule="evenodd" d="M813.483 196.414C813.483 198.485 815.263 200.164 817.458 200.164C819.654 200.164 821.434 198.485 821.434 196.414C821.434 194.343 819.654 192.664 817.458 192.664C815.263 192.664 813.483 194.343 813.483 196.414ZM819.661 196.414C819.661 197.561 818.675 198.492 817.458 198.492C816.242 198.492 815.256 197.561 815.256 196.414C815.256 195.267 816.242 194.337 817.458 194.337C818.675 194.337 819.661 195.267 819.661 196.414Z" fill="#4785FF"/>
<path d="M842.025 87.0867C841.68 86.7612 841.68 86.2336 842.025 85.9081C842.37 85.5827 842.929 85.5827 843.274 85.9081L859.175 100.908C859.52 101.234 859.52 101.761 859.175 102.087C858.83 102.412 858.271 102.412 857.926 102.087L842.025 87.0867Z" fill="#4785FF"/>
<path fill-rule="evenodd" clip-rule="evenodd" d="M851.483 89.4141C851.483 91.4851 853.263 93.1641 855.458 93.1641C857.654 93.1641 859.434 91.4851 859.434 89.4141C859.434 87.343 857.654 85.6641 855.458 85.6641C853.263 85.6641 851.483 87.343 851.483 89.4141ZM857.661 89.4141C857.661 90.5615 856.675 91.4916 855.458 91.4916C854.242 91.4916 853.256 90.5615 853.256 89.4141C853.256 88.2667 854.242 87.3365 855.458 87.3365C856.675 87.3365 857.661 88.2667 857.661 89.4141Z" fill="#4785FF"/>
<path fill-rule="evenodd" clip-rule="evenodd" d="M841.764 98.5859C841.764 100.657 843.544 102.336 845.74 102.336C847.935 102.336 849.715 100.657 849.715 98.5859C849.715 96.5149 847.935 94.8359 845.74 94.8359C843.544 94.8359 841.764 96.5149 841.764 98.5859ZM847.942 98.5859C847.942 99.7334 846.956 100.664 845.74 100.664C844.523 100.664 843.537 99.7334 843.537 98.5859C843.537 97.4385 844.523 96.5084 845.74 96.5084C846.956 96.5084 847.942 97.4385 847.942 98.5859Z" fill="#4785FF"/>
<path d="M882.025 128.087C881.68 127.761 881.68 127.234 882.025 126.908C882.37 126.583 882.929 126.583 883.274 126.908L899.175 141.908C899.52 142.234 899.52 142.761 899.175 143.087C898.83 143.412 898.271 143.412 897.926 143.087L882.025 128.087Z" fill="#4785FF"/>
<path fill-rule="evenodd" clip-rule="evenodd" d="M891.483 130.414C891.483 132.485 893.263 134.164 895.458 134.164C897.654 134.164 899.434 132.485 899.434 130.414C899.434 128.343 897.654 126.664 895.458 126.664C893.263 126.664 891.483 128.343 891.483 130.414ZM897.661 130.414C897.661 131.561 896.675 132.492 895.458 132.492C894.242 132.492 893.256 131.561 893.256 130.414C893.256 129.267 894.242 128.337 895.458 128.337C896.675 128.337 897.661 129.267 897.661 130.414Z" fill="#4785FF"/>
<path fill-rule="evenodd" clip-rule="evenodd" d="M881.764 139.586C881.764 141.657 883.544 143.336 885.74 143.336C887.935 143.336 889.715 141.657 889.715 139.586C889.715 137.515 887.935 135.836 885.74 135.836C883.544 135.836 881.764 137.515 881.764 139.586ZM887.942 139.586C887.942 140.733 886.956 141.664 885.74 141.664C884.523 141.664 883.537 140.733 883.537 139.586C883.537 138.439 884.523 137.508 885.74 137.508C886.956 137.508 887.942 138.439 887.942 139.586Z" fill="#4785FF"/>
<path d="M883.025 45.0867C882.68 44.7612 882.68 44.2336 883.025 43.9081C883.37 43.5827 883.929 43.5827 884.274 43.9081L900.175 58.9081C900.52 59.2336 900.52 59.7612 900.175 60.0866C899.83 60.4121 899.271 60.4121 898.926 60.0866L883.025 45.0867Z" fill="#4785FF"/>
<path fill-rule="evenodd" clip-rule="evenodd" d="M892.483 47.4141C892.483 49.4851 894.263 51.1641 896.458 51.1641C898.654 51.1641 900.434 49.4851 900.434 47.4141C900.434 45.343 898.654 43.6641 896.458 43.6641C894.263 43.6641 892.483 45.343 892.483 47.4141ZM898.661 47.4141C898.661 48.5615 897.675 49.4916 896.458 49.4916C895.242 49.4916 894.256 48.5615 894.256 47.4141C894.256 46.2667 895.242 45.3365 896.458 45.3365C897.675 45.3365 898.661 46.2667 898.661 47.4141Z" fill="#4785FF"/>
<path fill-rule="evenodd" clip-rule="evenodd" d="M882.764 56.5859C882.764 58.657 884.544 60.3359 886.74 60.3359C888.935 60.3359 890.715 58.657 890.715 56.5859C890.715 54.5149 888.935 52.8359 886.74 52.8359C884.544 52.8359 882.764 54.5149 882.764 56.5859ZM888.942 56.5859C888.942 57.7334 887.956 58.6635 886.74 58.6635C885.523 58.6635 884.537 57.7334 884.537 56.5859C884.537 55.4385 885.523 54.5084 886.74 54.5084C887.956 54.5084 888.942 55.4385 888.942 56.5859Z" fill="#4785FF"/>
<defs>
<clipPath id="clip0_5940_86376">
<rect width="130" height="130" fill="white" transform="translate(216 26.7344) rotate(-12.0437)"/>
</clipPath>
<clipPath id="clip1_5940_86376">
<rect width="80" height="80" fill="white" transform="translate(482.766 70.8516) rotate(-48.6615)"/>
</clipPath>
<clipPath id="clip2_5940_86376">
<rect width="50" height="50" fill="white" transform="translate(139.215 200.734) rotate(-119.498)"/>
</clipPath>
</defs>
</svg>
