<svg width="343" height="250" viewBox="0 0 343 250" fill="none" xmlns="http://www.w3.org/2000/svg">
<g clip-path="url(#clip0_5940_86781)">
<path d="M305.81 161.183L303.005 148.039C302.505 145.695 301.047 143.657 298.951 142.371C296.856 141.086 294.294 140.659 291.83 141.184L263.962 147.13L262.725 141.334C263.883 139.821 264.418 137.887 264.001 135.934C263.626 134.176 262.532 132.647 260.961 131.683C259.389 130.719 257.468 130.399 255.62 130.793C253.772 131.187 252.149 132.264 251.107 133.785C250.066 135.307 249.692 137.149 250.067 138.907C250.483 140.86 251.76 142.407 253.435 143.316L254.672 149.112L226.803 155.058C224.34 155.584 222.175 157.019 220.787 159.048C219.398 161.077 218.899 163.533 219.399 165.877L222.225 179.122L221.895 179.216C220.741 179.545 219.752 180.277 219.126 181.265C218.501 182.253 218.286 183.424 218.525 184.54L220.41 193.377C220.66 194.548 221.389 195.568 222.437 196.211C223.485 196.853 224.766 197.067 225.997 196.804L230.711 218.895C231.211 221.238 232.669 223.277 234.765 224.562C236.86 225.848 239.422 226.275 241.885 225.749L306.913 211.875C309.376 211.35 311.541 209.915 312.929 207.886C314.318 205.857 314.817 203.401 314.317 201.057L309.604 178.966C310.836 178.703 311.918 177.986 312.612 176.971C313.306 175.957 313.556 174.729 313.306 173.557L311.479 164.994C311.387 164.297 311.125 163.634 310.716 163.056C309.318 161.1 307.196 161.012 305.81 161.183ZM242.974 179.324C241.934 174.446 242.559 168.089 246.405 167.269C250.251 166.448 252.936 172.099 253.977 176.976C255.017 181.854 254.685 187.231 250.839 188.051C246.993 188.872 244.015 184.202 242.974 179.324ZM288.485 193.788C288.879 195.66 287.727 197.656 285.972 198.418C282.428 199.958 276.845 202.489 271.074 203.721C264.643 205.094 258.042 205.231 254.559 205.184C253.074 205.164 251.835 204.099 251.525 202.647C251.064 200.487 252.806 198.454 255.015 198.453C258.714 198.451 264.246 198.207 269.651 197.053C275.43 195.819 281.01 193.232 284.551 191.66C286.3 190.883 288.091 191.916 288.485 193.788ZM283.353 181.114C279.507 181.935 277.022 177.159 275.982 172.282C274.941 167.404 275.073 161.152 278.919 160.332C282.765 159.511 285.943 165.057 286.984 169.934C288.025 174.812 287.199 180.294 283.353 181.114Z" fill="white"/>
</g>
<g clip-path="url(#clip1_5940_86781)">
<path d="M96.9781 212.121L92.299 214.768C91.4647 215.24 90.8617 216.041 90.6227 216.995C90.3836 217.949 90.5281 218.977 91.0242 219.854L96.6367 229.775L94.5732 230.943C93.857 230.682 93.0549 230.71 92.3597 231.103C91.734 231.457 91.2818 232.058 91.1025 232.774C90.9232 233.489 91.0315 234.261 91.4036 234.918C91.7758 235.576 92.3812 236.066 93.0868 236.281C93.7924 236.496 94.5403 236.418 95.166 236.064C95.8611 235.671 96.2984 234.998 96.4441 234.25L98.5076 233.082L104.12 243.003C104.616 243.88 105.424 244.534 106.364 244.82C107.305 245.107 108.302 245.002 109.137 244.53L113.852 241.863L113.927 241.977C114.191 242.378 114.589 242.668 115.041 242.788C115.493 242.908 115.966 242.85 116.363 242.625L119.509 240.845C119.926 240.609 120.227 240.209 120.347 239.732C120.466 239.255 120.394 238.74 120.146 238.302L128.01 233.853C128.844 233.381 129.447 232.58 129.687 231.626C129.926 230.672 129.781 229.644 129.285 228.766L116.189 205.618C115.693 204.741 114.886 204.087 113.945 203.801C113.004 203.514 112.007 203.618 111.173 204.09L103.309 208.539C103.061 208.101 102.657 207.774 102.187 207.631C101.716 207.488 101.218 207.54 100.8 207.776L97.7523 209.5C97.4974 209.619 97.2754 209.798 97.104 210.024C96.5255 210.792 96.7465 211.612 96.9781 212.121ZM111.439 233.921C109.703 234.903 107.202 235.427 106.428 234.058C105.653 232.689 107.487 230.987 109.223 230.004C110.96 229.022 113.051 228.504 113.826 229.873C114.6 231.242 113.176 232.939 111.439 233.921ZM111.498 214.82C112.165 214.445 113.065 214.645 113.566 215.223C114.579 216.391 116.215 218.217 117.378 220.272C118.673 222.561 119.517 225.063 119.917 226.398C120.088 226.967 119.83 227.567 119.313 227.86C118.544 228.295 117.559 227.874 117.294 227.032C116.85 225.62 116.093 223.539 115.004 221.615C113.84 219.557 112.183 217.738 111.158 216.576C110.652 216.002 110.831 215.195 111.498 214.82ZM107.278 218.299C108.052 219.668 106.528 221.189 104.792 222.171C103.056 223.153 100.654 223.853 99.8797 222.484C99.1052 221.115 100.84 219.237 102.576 218.254C104.313 217.272 106.503 216.929 107.278 218.299Z" fill="white"/>
</g>
<path d="M125.05 222.181C124.36 221.53 124.36 220.475 125.05 219.824C125.74 219.173 126.858 219.173 127.548 219.824L159.35 249.824C160.04 250.475 160.04 251.53 159.35 252.181C158.66 252.832 157.541 252.832 156.851 252.181L125.05 222.181Z" fill="#4785FF"/>
<path fill-rule="evenodd" clip-rule="evenodd" d="M143.966 226.836C143.966 230.978 147.526 234.336 151.917 234.336C156.308 234.336 159.867 230.978 159.867 226.836C159.867 222.694 156.308 219.336 151.917 219.336C147.526 219.336 143.966 222.694 143.966 226.836ZM156.321 226.836C156.321 229.131 154.349 230.991 151.917 230.991C149.484 230.991 147.512 229.131 147.512 226.836C147.512 224.541 149.484 222.681 151.917 222.681C154.349 222.681 156.321 224.541 156.321 226.836Z" fill="#4785FF"/>
<path fill-rule="evenodd" clip-rule="evenodd" d="M124.533 245.164C124.533 249.306 128.092 252.664 132.483 252.664C136.874 252.664 140.434 249.306 140.434 245.164C140.434 241.022 136.874 237.664 132.483 237.664C128.092 237.664 124.533 241.022 124.533 245.164ZM136.888 245.164C136.888 247.459 134.916 249.319 132.483 249.319C130.051 249.319 128.079 247.459 128.079 245.164C128.079 242.869 130.051 241.009 132.483 241.009C134.916 241.009 136.888 242.869 136.888 245.164Z" fill="#4785FF"/>
<path d="M179.025 212.087C178.68 211.761 178.68 211.234 179.025 210.908C179.37 210.583 179.929 210.583 180.274 210.908L196.175 225.908C196.52 226.234 196.52 226.761 196.175 227.087C195.83 227.412 195.271 227.412 194.926 227.087L179.025 212.087Z" fill="#4785FF"/>
<path fill-rule="evenodd" clip-rule="evenodd" d="M188.483 214.414C188.483 216.485 190.263 218.164 192.458 218.164C194.654 218.164 196.434 216.485 196.434 214.414C196.434 212.343 194.654 210.664 192.458 210.664C190.263 210.664 188.483 212.343 188.483 214.414ZM194.661 214.414C194.661 215.561 193.675 216.492 192.458 216.492C191.242 216.492 190.256 215.561 190.256 214.414C190.256 213.267 191.242 212.337 192.458 212.337C193.675 212.337 194.661 213.267 194.661 214.414Z" fill="#4785FF"/>
<path fill-rule="evenodd" clip-rule="evenodd" d="M178.764 223.586C178.764 225.657 180.544 227.336 182.74 227.336C184.935 227.336 186.715 225.657 186.715 223.586C186.715 221.515 184.935 219.836 182.74 219.836C180.544 219.836 178.764 221.515 178.764 223.586ZM184.942 223.586C184.942 224.733 183.956 225.664 182.74 225.664C181.523 225.664 180.537 224.733 180.537 223.586C180.537 222.439 181.523 221.508 182.74 221.508C183.956 221.508 184.942 222.439 184.942 223.586Z" fill="#4785FF"/>
<path d="M227.05 232.181C226.36 231.53 226.36 230.475 227.05 229.824C227.74 229.173 228.858 229.173 229.548 229.824L261.35 259.824C262.04 260.475 262.04 261.53 261.35 262.181C260.66 262.832 259.541 262.832 258.851 262.181L227.05 232.181Z" fill="#4785FF"/>
<path fill-rule="evenodd" clip-rule="evenodd" d="M245.966 236.836C245.966 240.978 249.526 244.336 253.917 244.336C258.308 244.336 261.867 240.978 261.867 236.836C261.867 232.694 258.308 229.336 253.917 229.336C249.526 229.336 245.966 232.694 245.966 236.836ZM258.321 236.836C258.321 239.131 256.349 240.991 253.917 240.991C251.484 240.991 249.512 239.131 249.512 236.836C249.512 234.541 251.484 232.681 253.917 232.681C256.349 232.681 258.321 234.541 258.321 236.836Z" fill="#4785FF"/>
<path fill-rule="evenodd" clip-rule="evenodd" d="M226.533 255.164C226.533 259.306 230.092 262.664 234.483 262.664C238.874 262.664 242.434 259.306 242.434 255.164C242.434 251.022 238.874 247.664 234.483 247.664C230.092 247.664 226.533 251.022 226.533 255.164ZM238.888 255.164C238.888 257.459 236.916 259.319 234.483 259.319C232.051 259.319 230.079 257.459 230.079 255.164C230.079 252.869 232.051 251.009 234.483 251.009C236.916 251.009 238.888 252.869 238.888 255.164Z" fill="#4785FF"/>
<path d="M319.05 123.181C318.36 122.53 318.36 121.475 319.05 120.824C319.74 120.173 320.858 120.173 321.548 120.824L353.35 150.824C354.04 151.475 354.04 152.53 353.35 153.181C352.66 153.832 351.541 153.832 350.851 153.181L319.05 123.181Z" fill="#4785FF"/>
<path fill-rule="evenodd" clip-rule="evenodd" d="M337.966 127.836C337.966 131.978 341.526 135.336 345.917 135.336C350.308 135.336 353.867 131.978 353.867 127.836C353.867 123.694 350.308 120.336 345.917 120.336C341.526 120.336 337.966 123.694 337.966 127.836ZM350.321 127.836C350.321 130.131 348.349 131.991 345.917 131.991C343.484 131.991 341.512 130.131 341.512 127.836C341.512 125.541 343.484 123.681 345.917 123.681C348.349 123.681 350.321 125.541 350.321 127.836Z" fill="#4785FF"/>
<path fill-rule="evenodd" clip-rule="evenodd" d="M318.533 146.164C318.533 150.306 322.092 153.664 326.483 153.664C330.874 153.664 334.434 150.306 334.434 146.164C334.434 142.022 330.874 138.664 326.483 138.664C322.092 138.664 318.533 142.022 318.533 146.164ZM330.888 146.164C330.888 148.459 328.916 150.319 326.483 150.319C324.051 150.319 322.079 148.459 322.079 146.164C322.079 143.869 324.051 142.009 326.483 142.009C328.916 142.009 330.888 143.869 330.888 146.164Z" fill="#4785FF"/>
<path d="M19.0248 208.087C18.6798 207.761 18.6798 207.234 19.0248 206.908C19.3698 206.583 19.9291 206.583 20.2741 206.908L36.1749 221.908C36.5198 222.234 36.5198 222.761 36.1749 223.087C35.8299 223.412 35.2706 223.412 34.9256 223.087L19.0248 208.087Z" fill="#4785FF"/>
<path fill-rule="evenodd" clip-rule="evenodd" d="M28.4832 210.414C28.4832 212.485 30.263 214.164 32.4584 214.164C34.6538 214.164 36.4336 212.485 36.4336 210.414C36.4336 208.343 34.6538 206.664 32.4584 206.664C30.263 206.664 28.4832 208.343 28.4832 210.414ZM34.6607 210.414C34.6607 211.561 33.6747 212.492 32.4584 212.492C31.2421 212.492 30.2561 211.561 30.2561 210.414C30.2561 209.267 31.2421 208.337 32.4584 208.337C33.6747 208.337 34.6607 209.267 34.6607 210.414Z" fill="#4785FF"/>
<path fill-rule="evenodd" clip-rule="evenodd" d="M18.7645 219.586C18.7645 221.657 20.5442 223.336 22.7396 223.336C24.9351 223.336 26.7148 221.657 26.7148 219.586C26.7148 217.515 24.9351 215.836 22.7396 215.836C20.5442 215.836 18.7645 217.515 18.7645 219.586ZM24.942 219.586C24.942 220.733 23.956 221.664 22.7396 221.664C21.5233 221.664 20.5373 220.733 20.5373 219.586C20.5373 218.439 21.5233 217.508 22.7396 217.508C23.956 217.508 24.942 218.439 24.942 219.586Z" fill="#4785FF"/>
<path d="M55.0496 216.181C54.3597 215.53 54.3597 214.475 55.0496 213.824C55.7395 213.173 56.8582 213.173 57.5481 213.824L89.3497 243.824C90.0397 244.475 90.0397 245.53 89.3497 246.181C88.6598 246.832 87.5411 246.832 86.8511 246.181L55.0496 216.181Z" fill="#4785FF"/>
<path fill-rule="evenodd" clip-rule="evenodd" d="M73.9664 220.836C73.9664 224.978 77.5259 228.336 81.9168 228.336C86.3077 228.336 89.8672 224.978 89.8672 220.836C89.8672 216.694 86.3077 213.336 81.9168 213.336C77.5259 213.336 73.9664 216.694 73.9664 220.836ZM86.3214 220.836C86.3214 223.131 84.3494 224.991 81.9168 224.991C79.4842 224.991 77.5122 223.131 77.5122 220.836C77.5122 218.541 79.4842 216.681 81.9168 216.681C84.3494 216.681 86.3214 218.541 86.3214 220.836Z" fill="#4785FF"/>
<path fill-rule="evenodd" clip-rule="evenodd" d="M54.5328 239.164C54.5328 243.306 58.0923 246.664 62.4832 246.664C66.8741 246.664 70.4336 243.306 70.4336 239.164C70.4336 235.022 66.8741 231.664 62.4832 231.664C58.0923 231.664 54.5328 235.022 54.5328 239.164ZM66.8879 239.164C66.8879 241.459 64.9158 243.319 62.4832 243.319C60.0506 243.319 58.0785 241.459 58.0785 239.164C58.0785 236.869 60.0506 235.009 62.4832 235.009C64.9158 235.009 66.8879 236.869 66.8879 239.164Z" fill="#4785FF"/>
<path d="M199.025 49.0867C198.68 48.7612 198.68 48.2336 199.025 47.9081C199.37 47.5827 199.929 47.5827 200.274 47.9081L216.175 62.9081C216.52 63.2336 216.52 63.7612 216.175 64.0866C215.83 64.4121 215.271 64.4121 214.926 64.0866L199.025 49.0867Z" fill="#4785FF"/>
<path fill-rule="evenodd" clip-rule="evenodd" d="M208.483 51.4141C208.483 53.4851 210.263 55.1641 212.458 55.1641C214.654 55.1641 216.434 53.4851 216.434 51.4141C216.434 49.343 214.654 47.6641 212.458 47.6641C210.263 47.6641 208.483 49.343 208.483 51.4141ZM214.661 51.4141C214.661 52.5615 213.675 53.4916 212.458 53.4916C211.242 53.4916 210.256 52.5615 210.256 51.4141C210.256 50.2667 211.242 49.3365 212.458 49.3365C213.675 49.3365 214.661 50.2667 214.661 51.4141Z" fill="#4785FF"/>
<path fill-rule="evenodd" clip-rule="evenodd" d="M198.764 60.5859C198.764 62.657 200.544 64.3359 202.74 64.3359C204.935 64.3359 206.715 62.657 206.715 60.5859C206.715 58.5149 204.935 56.8359 202.74 56.8359C200.544 56.8359 198.764 58.5149 198.764 60.5859ZM204.942 60.5859C204.942 61.7334 203.956 62.6635 202.74 62.6635C201.523 62.6635 200.537 61.7334 200.537 60.5859C200.537 59.4385 201.523 58.5084 202.74 58.5084C203.956 58.5084 204.942 59.4385 204.942 60.5859Z" fill="#4785FF"/>
<path d="M272.025 21.0867C271.68 20.7612 271.68 20.2336 272.025 19.9081C272.37 19.5827 272.929 19.5827 273.274 19.9081L289.175 34.9081C289.52 35.2336 289.52 35.7612 289.175 36.0866C288.83 36.4121 288.271 36.4121 287.926 36.0866L272.025 21.0867Z" fill="#4785FF"/>
<path fill-rule="evenodd" clip-rule="evenodd" d="M281.483 23.4141C281.483 25.4851 283.263 27.1641 285.458 27.1641C287.654 27.1641 289.434 25.4851 289.434 23.4141C289.434 21.343 287.654 19.6641 285.458 19.6641C283.263 19.6641 281.483 21.343 281.483 23.4141ZM287.661 23.4141C287.661 24.5615 286.675 25.4916 285.458 25.4916C284.242 25.4916 283.256 24.5615 283.256 23.4141C283.256 22.2667 284.242 21.3365 285.458 21.3365C286.675 21.3365 287.661 22.2667 287.661 23.4141Z" fill="#4785FF"/>
<path fill-rule="evenodd" clip-rule="evenodd" d="M271.764 32.5859C271.764 34.657 273.544 36.3359 275.74 36.3359C277.935 36.3359 279.715 34.657 279.715 32.5859C279.715 30.5149 277.935 28.8359 275.74 28.8359C273.544 28.8359 271.764 30.5149 271.764 32.5859ZM277.942 32.5859C277.942 33.7334 276.956 34.6635 275.74 34.6635C274.523 34.6635 273.537 33.7334 273.537 32.5859C273.537 31.4385 274.523 30.5084 275.74 30.5084C276.956 30.5084 277.942 31.4385 277.942 32.5859Z" fill="#4785FF"/>
<path d="M228.05 12.1811C227.36 11.5302 227.36 10.475 228.05 9.82409C228.74 9.17322 229.858 9.17322 230.548 9.82409L262.35 39.8241C263.04 40.4749 263.04 41.5303 262.35 42.1811C261.66 42.8319 260.541 42.8319 259.851 42.1811L228.05 12.1811Z" fill="#4785FF"/>
<path fill-rule="evenodd" clip-rule="evenodd" d="M246.966 16.8359C246.966 20.9781 250.526 24.3359 254.917 24.3359C259.308 24.3359 262.867 20.9781 262.867 16.8359C262.867 12.6938 259.308 9.33594 254.917 9.33594C250.526 9.33594 246.966 12.6938 246.966 16.8359ZM259.321 16.8359C259.321 19.1308 257.349 20.9911 254.917 20.9911C252.484 20.9911 250.512 19.1308 250.512 16.8359C250.512 14.5411 252.484 12.6808 254.917 12.6808C257.349 12.6808 259.321 14.5411 259.321 16.8359Z" fill="#4785FF"/>
<path fill-rule="evenodd" clip-rule="evenodd" d="M227.533 35.1641C227.533 39.3062 231.092 42.6641 235.483 42.6641C239.874 42.6641 243.434 39.3062 243.434 35.1641C243.434 31.0219 239.874 27.6641 235.483 27.6641C231.092 27.6641 227.533 31.0219 227.533 35.1641ZM239.888 35.1641C239.888 37.4589 237.916 39.3192 235.483 39.3192C233.051 39.3192 231.079 37.4589 231.079 35.1641C231.079 32.8692 233.051 31.0089 235.483 31.0089C237.916 31.0089 239.888 32.8692 239.888 35.1641Z" fill="#4785FF"/>
<path d="M254.374 210.449C252.649 208.822 252.649 206.184 254.374 204.556C256.099 202.929 258.896 202.929 260.62 204.556L340.124 279.556C341.849 281.183 341.849 283.822 340.124 285.449C338.399 287.076 335.603 287.076 333.878 285.449L254.374 210.449Z" fill="#4785FF"/>
<path fill-rule="evenodd" clip-rule="evenodd" d="M301.666 222.086C301.666 232.441 310.565 240.836 321.542 240.836C332.519 240.836 341.418 232.441 341.418 222.086C341.418 211.731 332.519 203.336 321.542 203.336C310.565 203.336 301.666 211.731 301.666 222.086ZM332.554 222.086C332.554 227.823 327.624 232.474 321.542 232.474C315.46 232.474 310.53 227.823 310.53 222.086C310.53 216.349 315.46 211.698 321.542 211.698C327.624 211.698 332.554 216.349 332.554 222.086Z" fill="#4785FF"/>
<path fill-rule="evenodd" clip-rule="evenodd" d="M253.08 267.914C253.08 278.269 261.979 286.664 272.956 286.664C283.933 286.664 292.832 278.269 292.832 267.914C292.832 257.559 283.933 249.164 272.956 249.164C261.979 249.164 253.08 257.559 253.08 267.914ZM283.968 267.914C283.968 273.651 279.038 278.302 272.956 278.302C266.874 278.302 261.944 273.651 261.944 267.914C261.944 262.177 266.874 257.526 272.956 257.526C279.038 257.526 283.968 262.177 283.968 267.914Z" fill="#4785FF"/>
<path d="M286.128 1.44889C284.403 -0.178314 284.403 -2.81648 286.128 -4.44369C287.853 -6.07085 290.649 -6.07085 292.374 -4.44369L371.878 70.5563C373.603 72.1834 373.603 74.8218 371.878 76.4488C370.153 78.0759 367.357 78.0759 365.632 76.4488L286.128 1.44889Z" fill="#4785FF"/>
<path fill-rule="evenodd" clip-rule="evenodd" d="M333.42 13.0859C333.42 23.4413 342.319 31.8359 353.296 31.8359C364.273 31.8359 373.172 23.4413 373.172 13.0859C373.172 2.7306 364.273 -5.66406 353.296 -5.66406C342.319 -5.66406 333.42 2.7306 333.42 13.0859ZM364.307 13.0859C364.307 18.823 359.377 23.4737 353.296 23.4737C347.214 23.4737 342.284 18.823 342.284 13.0859C342.284 7.3489 347.214 2.69814 353.296 2.69814C359.377 2.69814 364.307 7.3489 364.307 13.0859Z" fill="#4785FF"/>
<path fill-rule="evenodd" clip-rule="evenodd" d="M284.834 58.9141C284.834 69.2695 293.733 77.6641 304.71 77.6641C315.687 77.6641 324.586 69.2695 324.586 58.9141C324.586 48.5586 315.687 40.1641 304.71 40.1641C293.733 40.1641 284.834 48.5586 284.834 58.9141ZM315.722 58.9141C315.722 64.6511 310.792 69.302 304.71 69.302C298.628 69.302 293.698 64.6511 293.698 58.9141C293.698 53.177 298.628 48.5261 304.71 48.5261C310.792 48.5261 315.722 53.177 315.722 58.9141Z" fill="#4785FF"/>
<path d="M80.6417 255.354C79.34 254.053 79.34 251.942 80.6417 250.64C81.9434 249.339 84.054 249.339 85.3557 250.64L145.356 310.64C146.657 311.942 146.657 314.053 145.356 315.354C144.054 316.656 141.943 316.656 140.642 315.354L80.6417 255.354Z" fill="#4785FF"/>
<path fill-rule="evenodd" clip-rule="evenodd" d="M116.332 264.664C116.332 272.948 123.048 279.664 131.332 279.664C139.616 279.664 146.332 272.948 146.332 264.664C146.332 256.38 139.616 249.664 131.332 249.664C123.048 249.664 116.332 256.38 116.332 264.664ZM139.642 264.664C139.642 269.254 135.922 272.974 131.332 272.974C126.742 272.974 123.022 269.254 123.022 264.664C123.022 260.074 126.742 256.354 131.332 256.354C135.922 256.354 139.642 260.074 139.642 264.664Z" fill="#4785FF"/>
<path d="M158.642 237.354C157.34 236.053 157.34 233.942 158.642 232.64C159.943 231.339 162.054 231.339 163.356 232.64L223.356 292.64C224.657 293.942 224.657 296.053 223.356 297.354C222.054 298.656 219.943 298.656 218.642 297.354L158.642 237.354Z" fill="#4785FF"/>
<path fill-rule="evenodd" clip-rule="evenodd" d="M194.332 246.664C194.332 254.948 201.048 261.664 209.332 261.664C217.616 261.664 224.332 254.948 224.332 246.664C224.332 238.38 217.616 231.664 209.332 231.664C201.048 231.664 194.332 238.38 194.332 246.664ZM217.642 246.664C217.642 251.254 213.922 254.974 209.332 254.974C204.742 254.974 201.022 251.254 201.022 246.664C201.022 242.074 204.742 238.354 209.332 238.354C213.922 238.354 217.642 242.074 217.642 246.664Z" fill="#4785FF"/>
<path d="M-33.3583 239.354C-34.66 238.053 -34.66 235.942 -33.3583 234.64C-32.0566 233.339 -29.946 233.339 -28.6443 234.64L31.3557 294.64C32.6575 295.942 32.6575 298.053 31.3557 299.354C30.054 300.656 27.9434 300.656 26.6417 299.354L-33.3583 239.354Z" fill="#4785FF"/>
<path fill-rule="evenodd" clip-rule="evenodd" d="M2.33203 248.664C2.33203 256.948 9.04777 263.664 17.332 263.664C25.6163 263.664 32.332 256.948 32.332 248.664C32.332 240.38 25.6163 233.664 17.332 233.664C9.04777 233.664 2.33203 240.38 2.33203 248.664ZM25.6423 248.664C25.6423 253.254 21.9217 256.974 17.332 256.974C12.7424 256.974 9.0218 253.254 9.0218 248.664C9.0218 244.074 12.7424 240.354 17.332 240.354C21.9217 240.354 25.6423 244.074 25.6423 248.664Z" fill="#4785FF"/>
<defs>
<clipPath id="clip0_5940_86781">
<rect width="100" height="100" fill="white" transform="translate(206 136.734) rotate(-12.0437)"/>
</clipPath>
<clipPath id="clip1_5940_86781">
<rect width="40" height="40" fill="white" transform="translate(99.6211 253.141) rotate(-119.498)"/>
</clipPath>
</defs>
</svg>
