<svg width="338" height="160" viewBox="0 0 338 160" fill="none" xmlns="http://www.w3.org/2000/svg">
<g clip-path="url(#clip0_10710_44950)">
<path fill-rule="evenodd" clip-rule="evenodd" d="M304.893 68.2953C308.703 66.6918 312.873 66.1388 316.969 66.6938C321.065 67.2487 324.937 68.8914 328.183 71.4509C331.429 74.0103 333.929 77.3929 335.424 81.2466C336.919 85.1003 337.353 89.2842 336.682 93.3628L301.717 305.45C298.326 325.908 275.879 337.64 257.117 327.449C241.423 318.924 218.113 305.789 197.146 292.084C186.663 285.223 154.55 263.254 158.497 247.622C161.888 234.256 215.846 184.028 246.68 154.166C258.782 142.434 253.263 135.666 238.972 146.458C203.467 173.252 146.502 213.998 127.663 225.468C111.044 235.582 102.38 237.308 92.0198 235.582C73.119 232.437 55.5903 227.565 41.2836 221.629C21.9511 213.613 22.8915 187.034 41.2682 179.295L304.893 68.2953Z" fill="#4785FF" fill-opacity="0.2"/>
</g>
<defs>
<clipPath id="clip0_10710_44950">
<rect width="370" height="370" fill="white"/>
</clipPath>
</defs>
</svg>
