<svg width="20" height="20" viewBox="0 0 20 20" fill="none" xmlns="http://www.w3.org/2000/svg">
<path d="M18.8146 10.2013C18.7881 10.1423 18.1602 8.72731 16.7733 7.31957C14.9177 5.43895 12.579 4.44444 9.9988 4.44444C7.41857 4.44444 5.07987 5.43895 3.22641 7.31957C1.83953 8.72731 1.21168 10.1423 1.18301 10.2013C1.13445 10.313 1.10938 10.4338 1.10938 10.5559C1.10938 10.678 1.13445 10.7988 1.18301 10.9106C1.20953 10.9702 1.83738 12.3845 3.22498 13.7923C5.07987 15.6729 7.41857 16.6667 9.9988 16.6667C12.579 16.6667 14.9177 15.6729 16.7705 13.7923C18.1581 12.3845 18.7859 10.9702 18.8124 10.9106C18.8613 10.799 18.8868 10.6783 18.8871 10.5561C18.8875 10.434 18.8628 10.3131 18.8146 10.2013ZM15.5133 12.602C13.9745 14.14 12.1196 14.9206 9.9988 14.9206C7.87799 14.9206 6.02309 14.14 4.48642 12.6013C3.88175 11.994 3.36161 11.3057 2.94043 10.5556C3.36174 9.80568 3.88186 9.11765 4.48642 8.51051C6.02381 6.9711 7.87799 6.19047 9.9988 6.19047C12.1196 6.19047 13.9738 6.9711 15.5112 8.51051C16.1158 9.1176 16.6359 9.80563 17.0572 10.5556C16.6359 11.3057 16.1158 11.994 15.5112 12.6013L15.5133 12.602ZM9.9988 7.3545C9.37507 7.3545 8.76535 7.54223 8.24674 7.89397C7.72813 8.24571 7.32393 8.74564 7.08524 9.33056C6.84655 9.91548 6.7841 10.5591 6.90578 11.18C7.02746 11.801 7.32782 12.3714 7.76886 12.819C8.2099 13.2667 8.77182 13.5716 9.38356 13.6951C9.9953 13.8186 10.6294 13.7552 11.2056 13.5129C11.7819 13.2707 12.2744 12.8604 12.6209 12.334C12.9675 11.8076 13.1524 11.1887 13.1524 10.5556C13.1515 9.70688 12.8189 8.89323 12.2277 8.29313C11.6365 7.69302 10.8349 7.35546 9.9988 7.3545ZM9.9988 12.0106C9.71529 12.0106 9.43814 11.9252 9.20241 11.7654C8.96668 11.6055 8.78295 11.3782 8.67445 11.1124C8.56596 10.8465 8.53757 10.5539 8.59288 10.2717C8.64819 9.98944 8.78472 9.73018 8.98519 9.52669C9.18566 9.32321 9.44108 9.18463 9.71914 9.12849C9.99721 9.07234 10.2854 9.10116 10.5474 9.21128C10.8093 9.32141 11.0332 9.50791 11.1907 9.74718C11.3482 9.98646 11.4323 10.2678 11.4323 10.5556C11.4323 10.9415 11.2812 11.3115 11.0124 11.5844C10.7436 11.8573 10.379 12.0106 9.9988 12.0106Z" fill="#9CA3AF"/>
</svg>
