<svg width="338" height="182" viewBox="0 0 338 182" fill="none" xmlns="http://www.w3.org/2000/svg">
<path d="M312.899 333H57.097C52.8568 333 48.7903 331.441 45.792 328.665C42.7938 325.89 41.1094 322.125 41.1094 318.2V51.8C41.1094 47.8748 42.7938 44.1104 45.792 41.3348C48.7903 38.5593 52.8568 37 57.097 37H312.899C317.14 37 321.206 38.5593 324.204 41.3348C327.203 44.1104 328.887 47.8748 328.887 51.8V318.2C328.887 322.125 327.203 325.89 324.204 328.665C321.206 331.441 317.14 333 312.899 333ZM105.06 96.2V155.4H169.011V96.2H105.06ZM105.06 185V214.6H264.937V185H105.06ZM105.06 244.2V273.8H264.937V244.2H105.06ZM200.986 111V140.6H264.937V111H200.986Z" fill="#4785FF" fill-opacity="0.2"/>
</svg>
