<svg width="343" height="182" viewBox="0 0 343 182" fill="none" xmlns="http://www.w3.org/2000/svg">
<g clip-path="url(#clip0_10710_4365)">
<path fill-rule="evenodd" clip-rule="evenodd" d="M344.926 90.8063C341.666 94.0362 340.183 98.677 340.952 103.225L345.878 132.348C347.416 141.425 340.293 148.795 332.235 148.795C330.111 148.795 327.914 148.274 325.789 147.142L299.987 133.389C297.973 132.312 295.757 131.772 293.541 131.772C291.325 131.772 289.128 132.312 287.095 133.389L261.293 147.142C259.169 148.274 256.971 148.795 254.847 148.795C246.789 148.795 239.684 141.425 241.204 132.348L246.148 103.225C246.918 98.677 245.416 94.0362 242.156 90.8063L221.28 70.1835C213.058 62.0533 217.599 47.9094 228.953 46.2387L257.814 41.9886C262.318 41.3391 266.219 38.461 268.233 34.3217L281.125 7.81372C283.671 2.59765 288.615 0 293.541 0C298.486 0 303.412 2.59765 305.957 7.81372L318.867 34.3217C320.882 38.461 324.764 41.3391 329.287 41.9886L358.129 46.2387C369.483 47.9094 374.024 62.0533 365.802 70.1835L344.926 90.8063ZM146.016 219.683C145.741 219.683 145.503 219.647 145.229 219.647C144.972 219.647 144.716 219.683 144.459 219.683C124.627 219.256 108.604 202.829 108.604 182.633C108.604 162.159 125.03 145.509 145.229 145.509C165.427 145.509 181.853 162.159 181.853 182.633C181.853 202.829 165.83 219.256 146.016 219.683ZM200.642 230.69C215.841 212.722 223.166 187.719 215.274 160.674C208.004 135.744 187.311 116.051 162.277 110.334C114.409 99.4007 71.9787 135.986 71.9787 182.633C71.9787 201.066 78.8459 217.696 89.8151 230.69C42.514 250.255 7.57385 295.697 0.175615 348.971C-1.36263 360.09 7.40903 370 18.4698 370C27.5344 370 35.189 363.26 36.4526 354.165C44.0156 300.205 89.5038 257.199 144.459 256.809C144.716 256.809 144.972 256.882 145.229 256.882C145.503 256.882 145.741 256.809 146.016 256.809C200.953 257.199 246.46 300.204 254.005 354.183C255.286 363.26 262.941 370 271.987 370C283.048 370 291.82 360.089 290.282 348.989C282.902 295.697 247.943 250.292 200.642 230.69Z" fill="#4785FF" fill-opacity="0.2"/>
</g>
<defs>
<clipPath id="clip0_10710_4365">
<rect width="370" height="370" fill="white"/>
</clipPath>
</defs>
</svg>
