<svg width="343" height="182" viewBox="0 0 343 182" fill="none" xmlns="http://www.w3.org/2000/svg">
<path fill-rule="evenodd" clip-rule="evenodd" d="M177.294 46.25C192.449 46.2512 207.188 51.2127 219.258 60.3769C231.329 69.5411 240.068 82.4042 244.141 97.0017L244.943 100.162L273.772 92.9625C275.879 92.438 278.073 92.3646 280.211 92.747C282.348 93.1295 284.381 93.9592 286.175 95.1818C287.97 96.4044 289.486 97.9923 290.624 99.8415C291.763 101.691 292.497 103.76 292.781 105.912L292.919 107.917V135.821C301.611 144.154 308.733 153.982 313.948 164.835L316.075 169.583H323.753C327.529 169.584 331.173 170.97 333.995 173.479C336.817 175.989 338.62 179.446 339.061 183.196L339.169 185V231.25C339.17 233.787 338.544 236.286 337.347 238.523C336.15 240.761 334.42 242.668 332.309 244.077L330.644 245.033L312.637 254.051C305.266 268.313 294.588 280.603 281.496 289.895L277.503 292.578V308.333C277.502 312.109 276.116 315.754 273.607 318.576C271.097 321.398 267.64 323.2 263.89 323.642L262.086 323.75H215.836C212.06 323.75 208.415 322.363 205.594 319.854C202.772 317.345 200.969 313.887 200.527 310.137L200.419 308.333H185.003C185.002 312.109 183.616 315.754 181.107 318.576C178.597 321.398 175.14 323.2 171.39 323.642L169.586 323.75H123.336C119.56 323.75 115.915 322.363 113.094 319.854C110.272 317.345 108.469 313.887 108.027 310.137L107.919 308.333V292.578C96.782 285.457 87.1615 276.206 79.6107 265.356C72.0599 254.506 66.7276 242.271 63.9201 229.354C54.8293 226.648 46.7893 221.215 40.8884 213.789C34.9875 206.363 31.5106 197.304 30.9284 187.837L30.8359 185V177.292C30.8403 173.362 32.3449 169.583 35.0423 166.726C37.7398 163.868 41.4265 162.149 45.3491 161.919C49.2718 161.688 53.1343 162.965 56.1475 165.487C59.1608 168.009 61.0973 171.586 61.5614 175.488L61.6693 177.292V185C61.6693 187.282 62.1626 189.455 63.0568 191.398C65.4099 177.518 70.6592 164.29 78.4631 152.574C86.267 140.857 96.4505 130.915 108.351 123.395C107.257 113.69 108.225 103.863 111.19 94.558C114.156 85.2528 119.053 76.6785 125.561 69.3963C132.069 62.1141 140.042 56.2881 148.956 52.2994C157.871 48.3108 167.528 46.2493 177.294 46.25ZM246.669 169.583C242.581 169.583 238.659 171.208 235.768 174.099C232.877 176.99 231.253 180.911 231.253 185C231.253 189.089 232.877 193.01 235.768 195.901C238.659 198.792 242.581 200.417 246.669 200.417C250.758 200.417 254.679 198.792 257.571 195.901C260.462 193.01 262.086 189.089 262.086 185C262.086 180.911 260.462 176.99 257.571 174.099C254.679 171.208 250.758 169.583 246.669 169.583ZM177.294 77.0833C167.956 77.0833 158.936 80.4735 151.909 86.6238C144.883 92.7741 140.328 101.266 139.092 110.522C146.563 108.787 154.208 107.913 161.878 107.917H213.94L215.019 107.655C213.191 99.0052 208.445 91.2472 201.576 85.6812C194.708 80.1152 186.135 77.0796 177.294 77.0833Z" fill="#4785FF" fill-opacity="0.2"/>
</svg>
