<svg width="86" height="87" viewBox="0 0 86 87" fill="none" xmlns="http://www.w3.org/2000/svg">
<path d="M88.2664 -0.729621C89.2427 -1.70595 89.2427 -3.28885 88.2664 -4.26517C87.2902 -5.24147 85.7072 -5.24147 84.7309 -4.26517L39.7309 40.7349C38.7546 41.7111 38.7546 43.2941 39.7309 44.2704C40.7072 45.2466 42.2901 45.2466 43.2665 44.2704L88.2664 -0.729621Z" fill="#734AD3"/>
<path fill-rule="evenodd" clip-rule="evenodd" d="M61.4987 6.2526C61.4987 12.4658 56.4619 17.5026 50.2487 17.5026C44.0355 17.5026 38.9987 12.4658 38.9987 6.2526C38.9987 0.0394044 44.0355 -4.9974 50.2487 -4.9974C56.4619 -4.9974 61.4987 0.0394044 61.4987 6.2526ZM44.016 6.2526C44.016 9.69483 46.8065 12.4853 50.2487 12.4853C53.6909 12.4853 56.4814 9.69483 56.4814 6.2526C56.4814 2.81038 53.6909 0.0199289 50.2487 0.0199289C46.8065 0.0199289 44.016 2.81038 44.016 6.2526Z" fill="#734AD3"/>
<path fill-rule="evenodd" clip-rule="evenodd" d="M88.9987 33.7526C88.9987 39.9659 83.9619 45.0026 77.7487 45.0026C71.5354 45.0026 66.4987 39.9659 66.4987 33.7526C66.4987 27.5394 71.5354 22.5026 77.7487 22.5026C83.9619 22.5026 88.9987 27.5394 88.9987 33.7526ZM71.5159 33.7526C71.5159 37.1949 74.3064 39.9854 77.7487 39.9854C81.1909 39.9854 83.9814 37.1949 83.9814 33.7526C83.9814 30.3104 81.1909 27.5199 77.7487 27.5199C74.3064 27.5199 71.5159 30.3104 71.5159 33.7526Z" fill="#734AD3"/>
<path d="M86.1772 61.1811C86.828 60.5302 86.828 59.475 86.1772 58.8241C85.5264 58.1732 84.471 58.1732 83.8202 58.8241L53.8202 88.8241C53.1693 89.4749 53.1693 90.5303 53.8202 91.1811C54.4711 91.8319 55.5263 91.8319 56.1772 91.1811L86.1772 61.1811Z" fill="#734AD3"/>
<path fill-rule="evenodd" clip-rule="evenodd" d="M68.332 65.8359C68.332 69.9781 64.9742 73.3359 60.832 73.3359C56.6899 73.3359 53.332 69.9781 53.332 65.8359C53.332 61.6938 56.6899 58.3359 60.832 58.3359C64.9742 58.3359 68.332 61.6938 68.332 65.8359ZM56.6769 65.8359C56.6769 68.1308 58.5372 69.9911 60.832 69.9911C63.1268 69.9911 64.9871 68.1308 64.9871 65.8359C64.9871 63.5411 63.1268 61.6808 60.832 61.6808C58.5372 61.6808 56.6769 63.5411 56.6769 65.8359Z" fill="#734AD3"/>
<path fill-rule="evenodd" clip-rule="evenodd" d="M86.6654 84.1693C86.6654 88.3114 83.3075 91.6693 79.1654 91.6693C75.0232 91.6693 71.6654 88.3114 71.6654 84.1693C71.6654 80.0271 75.0232 76.6693 79.1654 76.6693C83.3075 76.6693 86.6654 80.0271 86.6654 84.1693ZM75.0102 84.1693C75.0102 86.4641 76.8705 88.3244 79.1654 88.3244C81.4602 88.3244 83.3205 86.4641 83.3205 84.1693C83.3205 81.8744 81.4602 80.0141 79.1654 80.0141C76.8705 80.0141 75.0102 81.8744 75.0102 84.1693Z" fill="#734AD3"/>
<path d="M33.1772 -3.81888C33.828 -4.46976 33.828 -5.52503 33.1772 -6.17591C32.5264 -6.82678 31.471 -6.82678 30.8202 -6.17591L0.820181 23.8241C0.169315 24.4749 0.169315 25.5303 0.820181 26.1811C1.47106 26.8319 2.52633 26.8319 3.17721 26.1811L33.1772 -3.81888Z" fill="#734AD3"/>
<path fill-rule="evenodd" clip-rule="evenodd" d="M15.332 0.835938C15.332 4.97807 11.9742 8.33594 7.83203 8.33594C3.6899 8.33594 0.332031 4.97807 0.332031 0.835938C0.332031 -3.3062 3.6899 -6.66406 7.83203 -6.66406C11.9742 -6.66406 15.332 -3.3062 15.332 0.835938ZM3.67691 0.835938C3.67691 3.13075 5.53721 4.99105 7.83203 4.99105C10.1268 4.99105 11.9871 3.13075 11.9871 0.835938C11.9871 -1.45888 10.1268 -3.31918 7.83203 -3.31918C5.53721 -3.31918 3.67691 -1.45888 3.67691 0.835938Z" fill="#734AD3"/>
<path fill-rule="evenodd" clip-rule="evenodd" d="M33.6654 19.1693C33.6654 23.3114 30.3075 26.6693 26.1654 26.6693C22.0232 26.6693 18.6654 23.3114 18.6654 19.1693C18.6654 15.0271 22.0232 11.6693 26.1654 11.6693C30.3075 11.6693 33.6654 15.0271 33.6654 19.1693ZM22.0102 19.1693C22.0102 21.4641 23.8705 23.3244 26.1654 23.3244C28.4602 23.3244 30.3205 21.4641 30.3205 19.1693C30.3205 16.8744 28.4602 15.0141 26.1654 15.0141C23.8705 15.0141 22.0102 16.8744 22.0102 19.1693Z" fill="#734AD3"/>
<path d="M47.1326 71.6365C47.6207 71.1483 47.6207 70.3569 47.1326 69.8687C46.6444 69.3806 45.8529 69.3806 45.3648 69.8687L22.8648 92.3687C22.3767 92.8569 22.3767 93.6483 22.8648 94.1365C23.353 94.6246 24.1444 94.6246 24.6326 94.1365L47.1326 71.6365Z" fill="#734AD3"/>
<path fill-rule="evenodd" clip-rule="evenodd" d="M33.7487 75.1276C33.7487 78.2342 31.2303 80.7526 28.1237 80.7526C25.0171 80.7526 22.4987 78.2342 22.4987 75.1276C22.4987 72.021 25.0171 69.5026 28.1237 69.5026C31.2303 69.5026 33.7487 72.021 33.7487 75.1276ZM25.0074 75.1276C25.0074 76.8487 26.4026 78.2439 28.1237 78.2439C29.8448 78.2439 31.24 76.8487 31.24 75.1276C31.24 73.4065 29.8448 72.0113 28.1237 72.0113C26.4026 72.0113 25.0074 73.4065 25.0074 75.1276Z" fill="#734AD3"/>
<path fill-rule="evenodd" clip-rule="evenodd" d="M47.4987 88.8776C47.4987 91.9842 44.9803 94.5026 41.8737 94.5026C38.7671 94.5026 36.2487 91.9842 36.2487 88.8776C36.2487 85.771 38.7671 83.2526 41.8737 83.2526C44.9803 83.2526 47.4987 85.771 47.4987 88.8776ZM38.7573 88.8776C38.7573 90.5987 40.1526 91.994 41.8737 91.994C43.5948 91.994 44.9901 90.5987 44.9901 88.8776C44.9901 87.1565 43.5948 85.7612 41.8737 85.7612C40.1526 85.7612 38.7573 87.1565 38.7573 88.8776Z" fill="#734AD3"/>
</svg>
