<svg width="343" height="350" viewBox="0 0 343 350" fill="none" xmlns="http://www.w3.org/2000/svg">
  <path d="M-95.4258 -33.1489C-87.1679 -14.9161 -51.2014 21.0515 26.6041 19.0274C123.861 16.4989 184.723 -38.6682 276.474 -52.4584C344.194 -62.6369 513.806 -61.1948 585.065 0.869003" stroke="white" stroke-opacity="0.1" stroke-width="2"/>
  <path d="M-83.8398 -5.42531C-75.5822 12.8107 -39.6155 48.7751 38.19 46.7542C135.447 44.2258 196.308 -10.9414 288.06 -24.7348C355.78 -34.9133 525.392 -33.468 596.652 28.5958" stroke="white" stroke-opacity="0.1" stroke-width="2"/>
  <path d="M-73.9805 22.6792C-65.7228 40.9152 -29.7562 76.8796 48.0494 74.8555C145.306 72.3271 206.168 17.1632 297.92 3.36977C365.639 -6.80876 535.249 -5.36345 606.509 56.6972" stroke="white" stroke-opacity="0.1" stroke-width="2"/>
  <path d="M-66.1562 51.148C-57.8986 69.384 -21.932 105.348 55.8736 103.324C153.13 100.796 213.992 45.6319 305.744 31.8385C373.463 21.66 543.076 23.1053 614.336 85.1659" stroke="white" stroke-opacity="0.1" stroke-width="2"/>
  <path d="M-60.7578 79.9182C-52.5002 98.1542 -16.5335 134.122 61.2719 132.098C158.529 129.569 219.391 74.4021 311.142 60.612C378.862 50.4302 548.473 51.8755 619.733 113.939" stroke="white" stroke-opacity="0.1" stroke-width="2"/>
  <path d="M-58.2656 108.926C-50.0079 127.162 -14.0413 163.13 63.7639 161.106C161.021 158.577 221.883 103.41 313.634 89.6198C381.354 79.438 550.965 80.8833 622.225 142.947" stroke="white" stroke-opacity="0.1" stroke-width="2"/>
  <path d="M-59.2773 137.981C-51.0197 156.217 -15.053 192.181 62.7523 190.16C160.009 187.632 220.871 132.465 312.623 118.671C380.342 108.493 549.952 109.938 621.216 171.999" stroke="white" stroke-opacity="0.1" stroke-width="2"/>
  <path d="M-64.4883 166.779C-56.2306 185.015 -20.264 220.98 57.5414 218.957C154.798 216.429 215.66 161.263 307.412 147.47C375.131 137.291 544.743 138.737 616.003 200.797" stroke="white" stroke-opacity="0.1" stroke-width="2"/>
  <path d="M-74.5898 194.832C-66.3322 213.069 -30.3655 249.035 47.4397 247.012C144.696 244.483 205.558 189.316 297.31 175.526C365.03 165.348 534.64 166.79 605.9 228.853" stroke="white" stroke-opacity="0.1" stroke-width="2"/>
  <path d="M-92.8516 226.271C-84.5937 244.506 -48.6271 280.472 29.1783 278.449C126.435 275.921 187.297 220.754 279.048 206.963C346.768 196.784 516.379 198.226 587.639 260.29" stroke="white" stroke-opacity="0.1" stroke-width="2"/>
  <path d="M-107.363 253.209C-99.1059 271.444 -63.139 307.41 14.6662 305.387C111.923 302.858 172.785 247.692 264.537 233.9C332.256 223.721 501.867 225.166 573.127 287.228" stroke="white" stroke-opacity="0.1" stroke-width="2"/>
  <path d="M-118.871 280.958C-110.614 299.194 -74.6468 335.16 3.15856 333.137C100.415 330.608 161.277 275.442 253.029 261.65C320.748 251.471 490.36 252.916 561.619 314.978" stroke="white" stroke-opacity="0.1" stroke-width="2"/>
  <path d="M-127.293 309.326C-119.035 327.561 -83.0684 363.527 -5.2632 361.504C91.9937 358.976 152.856 303.809 244.607 290.017C312.327 279.838 481.937 281.282 553.201 343.345" stroke="white" stroke-opacity="0.1" stroke-width="2"/>
  <path d="M-132.633 338.107C-124.375 356.343 -88.4083 392.308 -10.603 390.285C86.6538 387.757 147.516 332.59 239.267 318.799C306.987 308.619 476.599 310.064 547.859 372.126" stroke="white" stroke-opacity="0.1" stroke-width="2"/>
  <path d="M-134.961 367.122C-126.703 385.358 -90.7368 421.324 -12.9312 419.301C84.3257 416.772 145.187 361.606 236.939 347.814C304.659 337.635 474.271 339.079 545.531 401.142" stroke="white" stroke-opacity="0.1" stroke-width="2"/>
</svg>
