<svg width="405" height="76" viewBox="0 0 405 76" fill="none" xmlns="http://www.w3.org/2000/svg">
<g clip-path="url(#clip0_6113_71863)">
<mask id="mask0_6113_71863" style="mask-type:luminance" maskUnits="userSpaceOnUse" x="-4" y="-350" width="413" height="776">
<path d="M-4 -350L-4 426H409L409 -350H-4Z" fill="white"/>
</mask>
<g mask="url(#mask0_6113_71863)">
<path d="M-27.7578 -28.0818C-19.5002 -9.84581 16.4665 26.1218 94.2719 24.0977C191.529 21.5693 252.391 -33.5979 344.142 -47.388C411.862 -57.5698 581.473 -56.1245 652.733 5.93932" stroke="white" stroke-opacity="0.1"/>
<path d="M-25.2656 0.926004C-17.0079 19.162 18.9587 55.1296 96.7639 53.1055C194.021 50.5771 254.883 -4.59005 346.634 -18.3802C414.354 -28.562 583.965 -27.1167 655.225 34.9472" stroke="white" stroke-opacity="0.1"/>
<path d="M-26.2773 29.9809C-18.0197 48.2169 17.947 84.1813 95.7523 82.1605C193.009 79.632 253.871 24.4649 345.623 10.6715C413.342 0.492953 582.952 1.93827 654.216 63.9989" stroke="white" stroke-opacity="0.1"/>
<path d="M-31.4883 58.7793C-23.2306 77.0153 12.736 112.98 90.5414 110.957C187.798 108.429 248.66 53.2632 340.412 39.4698C408.132 29.2913 577.743 30.7366 649.003 92.7972" stroke="white" stroke-opacity="0.1"/>
<path d="M-41.5898 86.8324C-33.3322 105.069 2.63445 141.035 80.4397 139.012C177.696 136.483 238.558 81.3163 330.31 67.5261C398.03 57.3476 567.64 58.7896 638.9 120.853" stroke="white" stroke-opacity="0.1"/>
</g>
</g>
<defs>
<clipPath id="clip0_6113_71863">
<rect width="776" height="413" fill="white" transform="matrix(0 -1 1 0 -4 426)"/>
</clipPath>
</defs>
</svg>
