<svg width="191" height="76" viewBox="0 0 191 76" fill="none" xmlns="http://www.w3.org/2000/svg">
<path d="M172.309 51.3729L169.967 43.6564C169.55 42.2806 168.575 41.1354 167.257 40.4729C165.939 39.8104 164.386 39.6848 162.94 40.1237L146.579 45.0882L145.546 41.6851C146.162 40.7221 146.384 39.5388 146.036 38.3923C145.723 37.3604 144.991 36.5016 144.003 36.0047C143.014 35.5078 141.85 35.4136 140.765 35.7428C139.68 36.0719 138.764 36.7975 138.218 37.7599C137.673 38.7223 137.542 39.8427 137.855 40.8746C138.203 42.021 139.045 42.8816 140.092 43.34L141.125 46.743L124.764 51.7076C123.317 52.1465 122.096 53.1139 121.369 54.3971C120.641 55.6803 120.467 57.1742 120.884 58.55L123.244 66.3262L123.052 66.3987C122.378 66.6539 121.824 67.1419 121.5 67.7642C121.176 68.3866 121.106 69.0971 121.306 69.7526L122.88 74.9401C123.089 75.6281 123.576 76.2006 124.235 76.5319C124.894 76.8632 125.671 76.926 126.394 76.7065L130.329 89.6755C130.746 91.0513 131.721 92.1964 133.039 92.8589C134.357 93.5215 135.91 93.6471 137.357 93.2082L175.532 81.6243C176.979 81.1854 178.2 80.2179 178.928 78.9347C179.655 77.6515 179.829 76.1577 179.412 74.7819L175.477 61.8129C176.2 61.5935 176.811 61.1097 177.174 60.4681C177.538 59.8265 177.625 59.0796 177.416 58.3917L175.891 53.3649C175.801 52.9528 175.611 52.5692 175.337 52.2443C174.402 51.1457 173.129 51.2005 172.309 51.3729ZM135.659 65.3971C134.791 62.5336 134.843 58.7014 137.101 58.0163C139.359 57.3312 141.25 60.5736 142.119 63.4372C142.988 66.3007 143.061 69.5319 140.803 70.217C138.545 70.9021 136.528 68.2607 135.659 65.3971ZM163.6 71.7428C163.93 72.842 163.343 74.0936 162.332 74.6379C160.291 75.7377 157.081 77.5333 153.693 78.5621C149.918 79.7083 145.978 80.1242 143.893 80.272C143.005 80.335 142.21 79.7613 141.951 78.9086C141.567 77.6406 142.505 76.3369 143.825 76.2247C146.037 76.0367 149.332 75.6106 152.505 74.6474C155.898 73.6175 159.103 71.7882 161.141 70.6691C162.147 70.1163 163.27 70.6431 163.6 71.7428ZM159.891 64.425C157.633 65.1101 155.906 62.3808 155.037 59.5172C154.168 56.6537 153.931 52.9094 156.189 52.2243C158.446 51.5392 160.627 54.6937 161.496 57.5573C162.365 60.4208 162.149 63.7399 159.891 64.425Z" fill="white"/>
<path d="M444.218 39.9435L439.535 24.5105C438.7 21.7588 436.75 19.4685 434.114 18.1435C431.478 16.8185 428.372 16.5672 425.479 17.445L392.757 27.3741L390.692 20.568C391.924 18.6418 392.367 16.2752 391.672 13.9823C391.045 11.9186 389.583 10.2009 387.606 9.2071C385.629 8.21332 383.3 8.02488 381.13 8.68322C378.96 9.34156 377.128 10.7928 376.037 12.7176C374.946 14.6424 374.684 16.8831 375.311 18.9469C376.006 21.2398 377.69 22.961 379.785 23.8776L381.85 30.6837L349.128 40.6128C346.235 41.4906 343.793 43.4255 342.337 45.9919C340.882 48.5583 340.534 51.546 341.369 54.2977L346.088 69.85L345.703 69.9951C344.357 70.5055 343.248 71.4814 342.6 72.7261C341.952 73.9709 341.813 75.3919 342.212 76.7028L345.36 87.078C345.777 88.4538 346.752 89.5989 348.07 90.2615C349.388 90.924 350.941 91.0496 352.388 90.6107L360.258 116.549C361.093 119.3 363.043 121.591 365.679 122.916C368.315 124.241 371.421 124.492 374.314 123.614L450.665 100.446C453.558 99.5685 456 97.6335 457.456 95.0671C458.911 92.5007 459.259 89.5131 458.424 86.7614L450.554 60.8235C452 60.3846 453.221 59.4172 453.949 58.134C454.676 56.8507 454.851 55.3569 454.433 53.9811L451.382 43.9276C451.201 43.1033 450.822 42.336 450.274 41.6864C448.404 39.4891 445.858 39.5987 444.218 39.9435ZM370.919 67.9919C369.181 62.2648 369.286 54.6005 373.802 53.2303C378.318 51.8601 382.1 58.3449 383.837 64.072C385.575 69.7991 385.722 76.2614 381.206 77.6316C376.691 79.0019 372.657 73.719 370.919 67.9919ZM426.801 80.6833C427.461 82.8816 426.285 85.3848 424.265 86.4736C420.182 88.673 413.763 92.2643 406.986 94.3218C399.435 96.6143 391.557 97.446 387.387 97.7416C385.609 97.8676 384.021 96.7203 383.503 95.015C382.734 92.4789 384.61 89.8715 387.251 89.647C391.675 89.271 398.264 88.419 404.61 86.4925C411.396 84.4327 417.807 80.7742 421.882 78.5359C423.894 77.4303 426.14 78.4839 426.801 80.6833ZM419.382 66.0477C414.866 67.4179 411.412 61.9592 409.674 56.2322C407.936 50.5051 407.462 43.0166 411.978 41.6464C416.493 40.2762 420.855 46.5852 422.593 52.3122C424.33 58.0393 423.897 64.6775 419.382 66.0477Z" fill="white"/>
<path d="M17.1835 53.0685L17.719 55.1512C17.8145 55.5225 18.0611 55.8388 18.4047 56.0303C18.7482 56.2219 19.1605 56.2732 19.5509 56.1728L23.9667 55.0374L24.2028 55.9559C24.0277 56.2054 23.9551 56.5181 24.0346 56.8275C24.1062 57.106 24.2912 57.3432 24.5489 57.4869C24.8066 57.6306 25.1158 57.6691 25.4086 57.5938C25.7014 57.5185 25.9537 57.3357 26.1101 57.0855C26.2665 56.8353 26.3141 56.5383 26.2425 56.2598C26.1629 55.9504 25.9485 55.7115 25.6747 55.5774L25.4386 54.6589L29.8543 53.5236C30.2447 53.4232 30.5811 53.1794 30.7897 52.8459C30.9982 52.5123 31.0617 52.1163 30.9662 51.745L30.4266 49.6462L30.4787 49.6291C30.661 49.5688 30.8143 49.4452 30.9077 49.2831C31.0012 49.121 31.0278 48.9325 30.9822 48.7556L30.6222 47.3555C30.5744 47.1698 30.4511 47.0117 30.2793 46.9159C30.1076 46.8201 29.9014 46.7945 29.7062 46.8447L28.8062 43.3444C28.7107 42.9731 28.4641 42.6568 28.1205 42.4652C27.777 42.2737 27.3647 42.2224 26.9743 42.3228L16.6709 44.972C16.2806 45.0724 15.9441 45.3162 15.7356 45.6497C15.527 45.9833 15.4635 46.3793 15.559 46.7506L16.459 50.2508C16.2638 50.301 16.0956 50.4229 15.9913 50.5897C15.8871 50.7565 15.8553 50.9545 15.9031 51.1401L16.2519 52.4968C16.2713 52.6077 16.3175 52.712 16.3868 52.8017C16.6233 53.1051 16.963 53.1051 17.1835 53.0685ZM27.1082 49.7517C27.3069 50.5245 27.2491 51.5449 26.6397 51.7016C26.0303 51.8583 25.5636 50.9728 25.3649 50.1999C25.1662 49.4271 25.1836 48.5654 25.793 48.4087C26.4024 48.252 26.9095 48.9788 27.1082 49.7517ZM19.7368 47.7412C19.6614 47.4446 19.8324 47.1179 20.1078 46.9844C20.6641 46.7148 21.5398 46.2731 22.4543 46.0378C23.4733 45.7757 24.5276 45.71 25.0847 45.6945C25.3223 45.6878 25.5273 45.8498 25.5865 46.0799C25.6745 46.4221 25.4096 46.7587 25.0565 46.7735C24.4651 46.7983 23.5824 46.8741 22.726 47.0944C21.8103 47.3299 20.9354 47.7806 20.3798 48.0554C20.1053 48.1912 19.8122 48.038 19.7368 47.7412ZM20.6413 49.7333C21.2507 49.5766 21.6796 50.3235 21.8783 51.0964C22.077 51.8693 22.0974 52.8695 21.488 53.0262C20.8786 53.1829 20.3337 52.3175 20.135 51.5446C19.9363 50.7718 20.0319 49.89 20.6413 49.7333Z" fill="white"/>
<path d="M92.8049 57.0547L94.1374 54.1172C94.3749 53.5934 94.3841 52.9919 94.1627 52.445C93.9414 51.898 93.5077 51.4504 92.9571 51.2007L86.7288 48.3755L87.3164 47.0801C87.7558 46.9531 88.1347 46.6559 88.3326 46.2195C88.5108 45.8267 88.5176 45.3755 88.3516 44.9653C88.1856 44.5551 87.8603 44.2194 87.4474 44.0321C87.0344 43.8448 86.5676 43.8212 86.1496 43.9665C85.7316 44.1118 85.3967 44.4141 85.2185 44.8069C85.0205 45.2433 85.0465 45.7242 85.2404 46.1383L84.6527 47.4338L78.4245 44.6086C77.8739 44.3589 77.2514 44.3274 76.6941 44.5211C76.1368 44.7149 75.6902 45.118 75.4526 45.6417L74.1099 48.6019L74.0329 48.5729C73.7631 48.472 73.4677 48.4723 73.2061 48.5739C72.9445 48.6755 72.7361 48.8708 72.623 49.1204L71.7273 51.0952C71.6085 51.3571 71.6039 51.6578 71.7146 51.9313C71.8253 52.2048 72.0421 52.4286 72.3174 52.5535L70.078 57.4904C69.8404 58.0142 69.8313 58.6157 70.0527 59.1626C70.274 59.7096 70.7077 60.1572 71.2583 60.4069L85.7909 66.999C86.3415 67.2488 86.9639 67.2802 87.5212 67.0865C88.0786 66.8927 88.5251 66.4897 88.7627 65.9659L91.0022 61.0289C91.2775 61.1538 91.5887 61.1696 91.8673 61.0727C92.146 60.9758 92.3693 60.7743 92.4881 60.5124L93.3561 58.5988C93.4376 58.4511 93.4818 58.2857 93.4851 58.1157C93.494 57.5387 93.097 57.2193 92.8049 57.0547ZM78.0872 51.599C78.5816 50.5089 79.6087 49.3708 80.4682 49.7607C81.3277 50.1505 81.0405 51.6242 80.546 52.7143C80.0516 53.8044 79.2209 54.795 78.3614 54.4052C77.5019 54.0153 77.5927 52.6891 78.0872 51.599ZM84.8117 60.8798C84.6209 61.2974 84.1138 61.5184 83.6665 61.4155C82.7627 61.2074 81.324 60.9002 80.034 60.3153C78.5966 59.6636 77.3027 58.749 76.637 58.2432C76.3532 58.0276 76.2658 57.6456 76.413 57.321C76.632 56.8382 77.2581 56.694 77.6846 57.0087C78.3991 57.5358 79.5019 58.2772 80.71 58.8251C82.0017 59.4108 83.4479 59.7068 84.3557 59.908C84.8041 60.0074 85.0025 60.4621 84.8117 60.8798ZM85.6277 57.7012C84.7682 57.3113 84.9693 56.0351 85.4638 54.945C85.9582 53.8549 86.875 52.6668 87.7345 53.0567C88.594 53.4466 88.4171 54.9703 87.9226 56.0604C87.4281 57.1505 86.4872 58.0911 85.6277 57.7012Z" fill="white"/>
<path d="M166.116 -12.7322C165.081 -13.7086 165.081 -15.2915 166.116 -16.2678C167.151 -17.2441 168.829 -17.2441 169.864 -16.2678L217.566 28.7322C218.601 29.7085 218.601 31.2915 217.566 32.2677C216.531 33.244 214.853 33.244 213.818 32.2677L166.116 -12.7322Z" fill="#4785FF"/>
<path fill-rule="evenodd" clip-rule="evenodd" d="M194.491 -5.75C194.491 0.4632 199.831 5.5 206.417 5.5C213.003 5.5 218.342 0.4632 218.342 -5.75C218.342 -11.9632 213.003 -17 206.417 -17C199.831 -17 194.491 -11.9632 194.491 -5.75ZM213.024 -5.75C213.024 -2.30778 210.066 0.482674 206.417 0.482674C202.768 0.482674 199.81 -2.30778 199.81 -5.75C199.81 -9.19222 202.768 -11.9827 206.417 -11.9827C210.066 -11.9827 213.024 -9.19222 213.024 -5.75Z" fill="#4785FF"/>
<path fill-rule="evenodd" clip-rule="evenodd" d="M165.34 21.75C165.34 27.9632 170.679 33 177.265 33C183.852 33 189.191 27.9632 189.191 21.75C189.191 15.5368 183.852 10.5 177.265 10.5C170.679 10.5 165.34 15.5368 165.34 21.75ZM183.872 21.75C183.872 25.1922 180.914 27.9827 177.265 27.9827C173.616 27.9827 170.658 25.1922 170.658 21.75C170.658 18.3078 173.616 15.5173 177.265 15.5173C180.914 15.5173 183.872 18.3078 183.872 21.75Z" fill="#4785FF"/>
<path d="M196.116 37.2678C195.081 36.2914 195.081 34.7085 196.116 33.7322C197.151 32.7559 198.829 32.7559 199.864 33.7322L247.566 78.7322C248.601 79.7085 248.601 81.2915 247.566 82.2677C246.531 83.244 244.853 83.244 243.818 82.2677L196.116 37.2678Z" fill="#4785FF"/>
<path fill-rule="evenodd" clip-rule="evenodd" d="M224.491 44.25C224.491 50.4632 229.831 55.5 236.417 55.5C243.003 55.5 248.342 50.4632 248.342 44.25C248.342 38.0368 243.003 33 236.417 33C229.831 33 224.491 38.0368 224.491 44.25ZM243.024 44.25C243.024 47.6922 240.066 50.4827 236.417 50.4827C232.768 50.4827 229.81 47.6922 229.81 44.25C229.81 40.8078 232.768 38.0173 236.417 38.0173C240.066 38.0173 243.024 40.8078 243.024 44.25Z" fill="#4785FF"/>
<path fill-rule="evenodd" clip-rule="evenodd" d="M195.34 71.75C195.34 77.9632 200.679 83 207.265 83C213.852 83 219.191 77.9632 219.191 71.75C219.191 65.5368 213.852 60.5 207.265 60.5C200.679 60.5 195.34 65.5368 195.34 71.75ZM213.872 71.75C213.872 75.1923 210.914 77.9827 207.265 77.9827C203.616 77.9827 200.658 75.1923 200.658 71.75C200.658 68.3077 203.616 65.5173 207.265 65.5173C210.914 65.5173 213.872 68.3077 213.872 71.75Z" fill="#4785FF"/>
<path d="M276.116 17.2678C275.081 16.2914 275.081 14.7085 276.116 13.7322C277.151 12.7559 278.829 12.7559 279.864 13.7322L327.566 58.7322C328.601 59.7085 328.601 61.2915 327.566 62.2677C326.531 63.244 324.853 63.244 323.818 62.2677L276.116 17.2678Z" fill="#4785FF"/>
<path fill-rule="evenodd" clip-rule="evenodd" d="M304.491 24.25C304.491 30.4632 309.831 35.5 316.417 35.5C323.003 35.5 328.342 30.4632 328.342 24.25C328.342 18.0368 323.003 13 316.417 13C309.831 13 304.491 18.0368 304.491 24.25ZM323.024 24.25C323.024 27.6922 320.066 30.4827 316.417 30.4827C312.768 30.4827 309.81 27.6922 309.81 24.25C309.81 20.8078 312.768 18.0173 316.417 18.0173C320.066 18.0173 323.024 20.8078 323.024 24.25Z" fill="#4785FF"/>
<path fill-rule="evenodd" clip-rule="evenodd" d="M275.34 51.75C275.34 57.9632 280.679 63 287.265 63C293.852 63 299.191 57.9632 299.191 51.75C299.191 45.5368 293.852 40.5 287.265 40.5C280.679 40.5 275.34 45.5368 275.34 51.75ZM293.872 51.75C293.872 55.1923 290.914 57.9827 287.265 57.9827C283.616 57.9827 280.658 55.1923 280.658 51.75C280.658 48.3077 283.616 45.5173 287.265 45.5173C290.914 45.5173 293.872 48.3077 293.872 51.75Z" fill="#4785FF"/>
<path d="M86.2667 -6.62862C85.7785 -7.08913 85.7785 -7.83575 86.2667 -8.29625C86.7548 -8.75675 87.5463 -8.75675 88.0344 -8.29625L110.534 12.9291C111.023 13.3896 111.023 14.1363 110.534 14.5967C110.046 15.0572 109.255 15.0572 108.767 14.5967L86.2667 -6.62862Z" fill="#4785FF"/>
<path fill-rule="evenodd" clip-rule="evenodd" d="M99.6506 -3.33528C99.6506 -0.404673 102.169 1.97106 105.276 1.97106C108.382 1.97106 110.901 -0.404673 110.901 -3.33528C110.901 -6.26589 108.382 -8.64163 105.276 -8.64163C102.169 -8.64163 99.6506 -6.26589 99.6506 -3.33528ZM108.392 -3.33528C108.392 -1.71167 106.997 -0.395487 105.276 -0.395487C103.554 -0.395487 102.159 -1.71167 102.159 -3.33528C102.159 -4.95889 103.554 -6.27508 105.276 -6.27508C106.997 -6.27508 108.392 -4.95889 108.392 -3.33528Z" fill="#4785FF"/>
<path fill-rule="evenodd" clip-rule="evenodd" d="M85.9006 9.63578C85.9006 12.5664 88.4189 14.9421 91.5256 14.9421C94.6322 14.9421 97.1506 12.5664 97.1506 9.63578C97.1506 6.70514 94.6322 4.32943 91.5256 4.32943C88.4189 4.32943 85.9006 6.70514 85.9006 9.63578ZM94.6419 9.63578C94.6419 11.2594 93.2467 12.5756 91.5256 12.5756C89.8044 12.5756 88.4092 11.2594 88.4092 9.63578C88.4092 8.01215 89.8044 6.69594 91.5256 6.69594C93.2467 6.69594 94.6419 8.01215 94.6419 9.63578Z" fill="#4785FF"/>
<path d="M217.267 3.37138C216.779 2.91087 216.779 2.16426 217.267 1.70375C217.755 1.24325 218.546 1.24325 219.034 1.70375L241.534 22.9291C242.023 23.3896 242.023 24.1363 241.534 24.5967C241.046 25.0572 240.255 25.0572 239.767 24.5967L217.267 3.37138Z" fill="#4785FF"/>
<path fill-rule="evenodd" clip-rule="evenodd" d="M230.651 6.66472C230.651 9.59533 233.169 11.9711 236.276 11.9711C239.382 11.9711 241.901 9.59533 241.901 6.66472C241.901 3.73411 239.382 1.35837 236.276 1.35837C233.169 1.35837 230.651 3.73411 230.651 6.66472ZM239.392 6.66472C239.392 8.28833 237.997 9.60451 236.276 9.60451C234.554 9.60451 233.159 8.28833 233.159 6.66472C233.159 5.04111 234.554 3.72492 236.276 3.72492C237.997 3.72492 239.392 5.04111 239.392 6.66472Z" fill="#4785FF"/>
<path fill-rule="evenodd" clip-rule="evenodd" d="M216.901 19.6358C216.901 22.5664 219.419 24.9421 222.526 24.9421C225.632 24.9421 228.151 22.5664 228.151 19.6358C228.151 16.7051 225.632 14.3294 222.526 14.3294C219.419 14.3294 216.901 16.7051 216.901 19.6358ZM225.642 19.6358C225.642 21.2594 224.247 22.5756 222.526 22.5756C220.804 22.5756 219.409 21.2594 219.409 19.6358C219.409 18.0122 220.804 16.6959 222.526 16.6959C224.247 16.6959 225.642 18.0122 225.642 19.6358Z" fill="#4785FF"/>
<path d="M442.267 53.3714C441.779 52.9109 441.779 52.1643 442.267 51.7037C442.755 51.2432 443.546 51.2432 444.034 51.7037L466.534 72.9291C467.023 73.3896 467.023 74.1363 466.534 74.5967C466.046 75.0572 465.255 75.0572 464.767 74.5967L442.267 53.3714Z" fill="#4785FF"/>
<path fill-rule="evenodd" clip-rule="evenodd" d="M455.651 56.6647C455.651 59.5953 458.169 61.9711 461.276 61.9711C464.382 61.9711 466.901 59.5953 466.901 56.6647C466.901 53.7341 464.382 51.3584 461.276 51.3584C458.169 51.3584 455.651 53.7341 455.651 56.6647ZM464.392 56.6647C464.392 58.2883 462.997 59.6045 461.276 59.6045C459.554 59.6045 458.159 58.2883 458.159 56.6647C458.159 55.0411 459.554 53.7249 461.276 53.7249C462.997 53.7249 464.392 55.0411 464.392 56.6647Z" fill="#4785FF"/>
<path fill-rule="evenodd" clip-rule="evenodd" d="M441.901 69.6358C441.901 72.5664 444.419 74.9421 447.526 74.9421C450.632 74.9421 453.151 72.5664 453.151 69.6358C453.151 66.7051 450.632 64.3294 447.526 64.3294C444.419 64.3294 441.901 66.7051 441.901 69.6358ZM450.642 69.6358C450.642 71.2594 449.247 72.5756 447.526 72.5756C445.804 72.5756 444.409 71.2594 444.409 69.6358C444.409 68.0121 445.804 66.6959 447.526 66.6959C449.247 66.6959 450.642 68.0121 450.642 69.6358Z" fill="#4785FF"/>
<path d="M252.267 23.3714C251.779 22.9109 251.779 22.1643 252.267 21.7037C252.755 21.2433 253.546 21.2433 254.034 21.7037L276.534 42.9291C277.023 43.3896 277.023 44.1363 276.534 44.5967C276.046 45.0572 275.255 45.0572 274.767 44.5967L252.267 23.3714Z" fill="#4785FF"/>
<path fill-rule="evenodd" clip-rule="evenodd" d="M265.651 26.6647C265.651 29.5953 268.169 31.9711 271.276 31.9711C274.382 31.9711 276.901 29.5953 276.901 26.6647C276.901 23.7341 274.382 21.3584 271.276 21.3584C268.169 21.3584 265.651 23.7341 265.651 26.6647ZM274.392 26.6647C274.392 28.2883 272.997 29.6045 271.276 29.6045C269.554 29.6045 268.159 28.2883 268.159 26.6647C268.159 25.0411 269.554 23.7249 271.276 23.7249C272.997 23.7249 274.392 25.0411 274.392 26.6647Z" fill="#4785FF"/>
<path fill-rule="evenodd" clip-rule="evenodd" d="M251.901 39.6358C251.901 42.5664 254.419 44.9421 257.526 44.9421C260.632 44.9421 263.151 42.5664 263.151 39.6358C263.151 36.7051 260.632 34.3294 257.526 34.3294C254.419 34.3294 251.901 36.7051 251.901 39.6358ZM260.642 39.6358C260.642 41.2594 259.247 42.5756 257.526 42.5756C255.804 42.5756 254.409 41.2594 254.409 39.6358C254.409 38.0122 255.804 36.6959 257.526 36.6959C259.247 36.6959 260.642 38.0122 260.642 39.6358Z" fill="#4785FF"/>
<path d="M293.267 68.3714C292.779 67.9109 292.779 67.1643 293.267 66.7037C293.755 66.2432 294.546 66.2432 295.034 66.7037L317.534 87.9291C318.023 88.3896 318.023 89.1363 317.534 89.5967C317.046 90.0572 316.255 90.0572 315.767 89.5967L293.267 68.3714Z" fill="#4785FF"/>
<path fill-rule="evenodd" clip-rule="evenodd" d="M306.651 71.6647C306.651 74.5953 309.169 76.9711 312.276 76.9711C315.382 76.9711 317.901 74.5953 317.901 71.6647C317.901 68.7341 315.382 66.3584 312.276 66.3584C309.169 66.3584 306.651 68.7341 306.651 71.6647ZM315.392 71.6647C315.392 73.2883 313.997 74.6045 312.276 74.6045C310.554 74.6045 309.159 73.2883 309.159 71.6647C309.159 70.0411 310.554 68.7249 312.276 68.7249C313.997 68.7249 315.392 70.0411 315.392 71.6647Z" fill="#4785FF"/>
<path fill-rule="evenodd" clip-rule="evenodd" d="M292.901 84.6358C292.901 87.5664 295.419 89.9421 298.526 89.9421C301.632 89.9421 304.151 87.5664 304.151 84.6358C304.151 81.7051 301.632 79.3294 298.526 79.3294C295.419 79.3294 292.901 81.7051 292.901 84.6358ZM301.642 84.6358C301.642 86.2594 300.247 87.5756 298.526 87.5756C296.804 87.5756 295.409 86.2594 295.409 84.6358C295.409 83.0121 296.804 81.6959 298.526 81.6959C300.247 81.6959 301.642 83.0121 301.642 84.6358Z" fill="#4785FF"/>
<path d="M69.2669 61.3714C68.7788 60.9109 68.7788 60.1643 69.2669 59.7037C69.7551 59.2432 70.5465 59.2432 71.0347 59.7037L93.5347 80.9291C94.0228 81.3896 94.0228 82.1363 93.5347 82.5967C93.0465 83.0572 92.2551 83.0572 91.7669 82.5967L69.2669 61.3714Z" fill="#4785FF"/>
<path fill-rule="evenodd" clip-rule="evenodd" d="M82.6508 64.6647C82.6508 67.5953 85.1692 69.9711 88.2758 69.9711C91.3824 69.9711 93.9008 67.5953 93.9008 64.6647C93.9008 61.7341 91.3824 59.3584 88.2758 59.3584C85.1692 59.3584 82.6508 61.7341 82.6508 64.6647ZM91.3921 64.6647C91.3921 66.2883 89.9969 67.6045 88.2758 67.6045C86.5547 67.6045 85.1595 66.2883 85.1595 64.6647C85.1595 63.0411 86.5547 61.7249 88.2758 61.7249C89.9969 61.7249 91.3921 63.0411 91.3921 64.6647Z" fill="#4785FF"/>
<path fill-rule="evenodd" clip-rule="evenodd" d="M68.9008 77.6358C68.9008 80.5664 71.4192 82.9421 74.5258 82.9421C77.6324 82.9421 80.1508 80.5664 80.1508 77.6358C80.1508 74.7051 77.6324 72.3294 74.5258 72.3294C71.4192 72.3294 68.9008 74.7051 68.9008 77.6358ZM77.6422 77.6358C77.6422 79.2594 76.2469 80.5756 74.5258 80.5756C72.8047 80.5756 71.4094 79.2594 71.4094 77.6358C71.4094 76.0121 72.8047 74.6959 74.5258 74.6959C76.2469 74.6959 77.6422 76.0121 77.6422 77.6358Z" fill="#4785FF"/>
<path d="M114.267 70.3714C113.779 69.9109 113.779 69.1643 114.267 68.7037C114.755 68.2432 115.546 68.2432 116.034 68.7037L138.534 89.9291C139.023 90.3896 139.023 91.1363 138.534 91.5967C138.046 92.0572 137.255 92.0572 136.767 91.5967L114.267 70.3714Z" fill="#4785FF"/>
<path fill-rule="evenodd" clip-rule="evenodd" d="M127.651 73.6647C127.651 76.5953 130.169 78.9711 133.276 78.9711C136.382 78.9711 138.901 76.5953 138.901 73.6647C138.901 70.7341 136.382 68.3584 133.276 68.3584C130.169 68.3584 127.651 70.7341 127.651 73.6647ZM136.392 73.6647C136.392 75.2883 134.997 76.6045 133.276 76.6045C131.554 76.6045 130.159 75.2883 130.159 73.6647C130.159 72.0411 131.554 70.7249 133.276 70.7249C134.997 70.7249 136.392 72.0411 136.392 73.6647Z" fill="#4785FF"/>
<path fill-rule="evenodd" clip-rule="evenodd" d="M113.901 86.6358C113.901 89.5664 116.419 91.9421 119.526 91.9421C122.632 91.9421 125.151 89.5664 125.151 86.6358C125.151 83.7051 122.632 81.3294 119.526 81.3294C116.419 81.3294 113.901 83.7051 113.901 86.6358ZM122.642 86.6358C122.642 88.2594 121.247 89.5756 119.526 89.5756C117.804 89.5756 116.409 88.2594 116.409 86.6358C116.409 85.0121 117.804 83.6959 119.526 83.6959C121.247 83.6959 122.642 85.0121 122.642 86.6358Z" fill="#4785FF"/>
<path d="M23.2669 71.3714C22.7788 70.9109 22.7788 70.1643 23.2669 69.7037C23.7551 69.2432 24.5465 69.2432 25.0347 69.7037L47.5347 90.9291C48.0228 91.3896 48.0228 92.1363 47.5347 92.5967C47.0465 93.0572 46.2551 93.0572 45.7669 92.5967L23.2669 71.3714Z" fill="#4785FF"/>
<path fill-rule="evenodd" clip-rule="evenodd" d="M36.6508 74.6647C36.6508 77.5953 39.1692 79.9711 42.2758 79.9711C45.3824 79.9711 47.9008 77.5953 47.9008 74.6647C47.9008 71.7341 45.3824 69.3584 42.2758 69.3584C39.1692 69.3584 36.6508 71.7341 36.6508 74.6647ZM45.3921 74.6647C45.3921 76.2883 43.9969 77.6045 42.2758 77.6045C40.5547 77.6045 39.1595 76.2883 39.1595 74.6647C39.1595 73.0411 40.5547 71.7249 42.2758 71.7249C43.9969 71.7249 45.3921 73.0411 45.3921 74.6647Z" fill="#4785FF"/>
<path fill-rule="evenodd" clip-rule="evenodd" d="M22.9008 87.6358C22.9008 90.5664 25.4192 92.9421 28.5258 92.9421C31.6324 92.9421 34.1508 90.5664 34.1508 87.6358C34.1508 84.7051 31.6324 82.3294 28.5258 82.3294C25.4192 82.3294 22.9008 84.7051 22.9008 87.6358ZM31.6422 87.6358C31.6422 89.2594 30.2469 90.5756 28.5258 90.5756C26.8047 90.5756 25.4094 89.2594 25.4094 87.6358C25.4094 86.0121 26.8047 84.6959 28.5258 84.6959C30.2469 84.6959 31.6422 86.0121 31.6422 87.6358Z" fill="#4785FF"/>
<path d="M115.73 -8.25725C114.754 -9.17826 114.754 -10.6715 115.73 -11.5925C116.707 -12.5135 118.29 -12.5135 119.266 -11.5925L164.266 30.8582C165.242 31.7792 165.242 33.2725 164.266 34.1935C163.29 35.1144 161.707 35.1144 160.73 34.1935L115.73 -8.25725Z" fill="#4785FF"/>
<path fill-rule="evenodd" clip-rule="evenodd" d="M142.498 -1.67057C142.498 4.19065 147.535 8.94212 153.748 8.94212C159.961 8.94212 164.998 4.19065 164.998 -1.67057C164.998 -7.53179 159.961 -12.2833 153.748 -12.2833C147.535 -12.2833 142.498 -7.53179 142.498 -1.67057ZM159.981 -1.67057C159.981 1.57666 157.19 4.20902 153.748 4.20902C150.306 4.20902 147.516 1.57666 147.516 -1.67057C147.516 -4.91779 150.306 -7.55016 153.748 -7.55016C157.19 -7.55016 159.981 -4.91779 159.981 -1.67057Z" fill="#4785FF"/>
<path fill-rule="evenodd" clip-rule="evenodd" d="M114.998 24.2715C114.998 30.1328 120.035 34.8842 126.248 34.8842C132.461 34.8842 137.498 30.1328 137.498 24.2715C137.498 18.4103 132.461 13.6589 126.248 13.6589C120.035 13.6589 114.998 18.4103 114.998 24.2715ZM132.481 24.2715C132.481 27.5188 129.69 30.1512 126.248 30.1512C122.806 30.1512 120.015 27.5188 120.015 24.2715C120.015 21.0243 122.806 18.3919 126.248 18.3919C129.69 18.3919 132.481 21.0243 132.481 24.2715Z" fill="#4785FF"/>
<path d="M251.823 55.0893C251.478 54.7638 251.478 54.2362 251.823 53.9107C252.168 53.5853 252.727 53.5853 253.072 53.9107L268.973 68.9108C269.318 69.2362 269.318 69.7638 268.973 70.0892C268.628 70.4147 268.068 70.4147 267.723 70.0892L251.823 55.0893Z" fill="#4785FF"/>
<path fill-rule="evenodd" clip-rule="evenodd" d="M261.281 57.4167C261.281 59.4877 263.061 61.1667 265.256 61.1667C267.452 61.1667 269.231 59.4877 269.231 57.4167C269.231 55.3456 267.452 53.6667 265.256 53.6667C263.061 53.6667 261.281 55.3456 261.281 57.4167ZM267.459 57.4167C267.459 58.5641 266.473 59.4942 265.256 59.4942C264.04 59.4942 263.054 58.5641 263.054 57.4167C263.054 56.2693 264.04 55.3391 265.256 55.3391C266.473 55.3391 267.459 56.2693 267.459 57.4167Z" fill="#4785FF"/>
<path fill-rule="evenodd" clip-rule="evenodd" d="M251.564 66.5833C251.564 68.6544 253.344 70.3333 255.539 70.3333C257.735 70.3333 259.514 68.6544 259.514 66.5833C259.514 64.5123 257.735 62.8333 255.539 62.8333C253.344 62.8333 251.564 64.5123 251.564 66.5833ZM257.741 66.5833C257.741 67.7308 256.755 68.6609 255.539 68.6609C254.323 68.6609 253.337 67.7308 253.337 66.5833C253.337 65.4359 254.323 64.5058 255.539 64.5058C256.755 64.5058 257.741 65.4359 257.741 66.5833Z" fill="#4785FF"/>
<path d="M252.823 3.08926C252.478 2.76382 252.478 2.23618 252.823 1.91074C253.168 1.58531 253.727 1.58531 254.072 1.91074L269.973 16.9107C270.318 17.2362 270.318 17.7638 269.973 18.0892C269.628 18.4147 269.068 18.4147 268.723 18.0892L252.823 3.08926Z" fill="#4785FF"/>
<path fill-rule="evenodd" clip-rule="evenodd" d="M262.281 5.41667C262.281 7.48773 264.061 9.16667 266.256 9.16667C268.452 9.16667 270.231 7.48773 270.231 5.41667C270.231 3.3456 268.452 1.66667 266.256 1.66667C264.061 1.66667 262.281 3.3456 262.281 5.41667ZM268.459 5.41667C268.459 6.56407 267.473 7.49422 266.256 7.49422C265.04 7.49422 264.054 6.56407 264.054 5.41667C264.054 4.26926 265.04 3.33911 266.256 3.33911C267.473 3.33911 268.459 4.26926 268.459 5.41667Z" fill="#4785FF"/>
<path fill-rule="evenodd" clip-rule="evenodd" d="M252.564 14.5833C252.564 16.6544 254.344 18.3333 256.539 18.3333C258.735 18.3333 260.514 16.6544 260.514 14.5833C260.514 12.5122 258.735 10.8333 256.539 10.8333C254.344 10.8333 252.564 12.5122 252.564 14.5833ZM258.741 14.5833C258.741 15.7307 257.755 16.6609 256.539 16.6609C255.323 16.6609 254.337 15.7307 254.337 14.5833C254.337 13.4359 255.323 12.5057 256.539 12.5057C257.755 12.5057 258.741 13.4359 258.741 14.5833Z" fill="#4785FF"/>
<path d="M392.823 63.0893C392.478 62.7638 392.478 62.2362 392.823 61.9107C393.168 61.5853 393.727 61.5853 394.072 61.9107L409.973 76.9108C410.318 77.2362 410.318 77.7638 409.973 78.0892C409.628 78.4147 409.068 78.4147 408.723 78.0892L392.823 63.0893Z" fill="#4785FF"/>
<path fill-rule="evenodd" clip-rule="evenodd" d="M402.281 65.4167C402.281 67.4877 404.061 69.1667 406.256 69.1667C408.452 69.1667 410.231 67.4877 410.231 65.4167C410.231 63.3456 408.452 61.6667 406.256 61.6667C404.061 61.6667 402.281 63.3456 402.281 65.4167ZM408.459 65.4167C408.459 66.5641 407.473 67.4942 406.256 67.4942C405.04 67.4942 404.054 66.5641 404.054 65.4167C404.054 64.2693 405.04 63.3391 406.256 63.3391C407.473 63.3391 408.459 64.2693 408.459 65.4167Z" fill="#4785FF"/>
<path fill-rule="evenodd" clip-rule="evenodd" d="M392.564 74.5833C392.564 76.6544 394.344 78.3333 396.539 78.3333C398.735 78.3333 400.514 76.6544 400.514 74.5833C400.514 72.5123 398.735 70.8333 396.539 70.8333C394.344 70.8333 392.564 72.5123 392.564 74.5833ZM398.741 74.5833C398.741 75.7308 397.755 76.6609 396.539 76.6609C395.323 76.6609 394.337 75.7308 394.337 74.5833C394.337 73.4359 395.323 72.5058 396.539 72.5058C397.755 72.5058 398.741 73.4359 398.741 74.5833Z" fill="#4785FF"/>
<path d="M325.527 42.3314C325.266 42.0858 325.266 41.6876 325.527 41.442C325.787 41.1964 326.209 41.1964 326.47 41.442L338.47 52.7622C338.73 53.0078 338.73 53.406 338.47 53.6516C338.209 53.8972 337.787 53.8972 337.527 53.6516L325.527 42.3314Z" fill="#4785FF"/>
<path fill-rule="evenodd" clip-rule="evenodd" d="M332.665 44.0878C332.665 45.6508 334.008 46.9179 335.665 46.9179C337.322 46.9179 338.665 45.6508 338.665 44.0878C338.665 42.5249 337.322 41.2578 335.665 41.2578C334.008 41.2578 332.665 42.5249 332.665 44.0878ZM337.327 44.0878C337.327 44.9538 336.583 45.6557 335.665 45.6557C334.747 45.6557 334.003 44.9538 334.003 44.0878C334.003 43.2219 334.747 42.52 335.665 42.52C336.583 42.52 337.327 43.2219 337.327 44.0878Z" fill="#4785FF"/>
<path fill-rule="evenodd" clip-rule="evenodd" d="M325.332 51.0057C325.332 52.5687 326.675 53.8358 328.332 53.8358C329.988 53.8358 331.332 52.5687 331.332 51.0057C331.332 49.4427 329.988 48.1757 328.332 48.1757C326.675 48.1757 325.332 49.4427 325.332 51.0057ZM329.994 51.0057C329.994 51.8717 329.249 52.5737 328.332 52.5737C327.414 52.5737 326.669 51.8717 326.669 51.0057C326.669 50.1398 327.414 49.4378 328.332 49.4378C329.249 49.4378 329.994 50.1398 329.994 51.0057Z" fill="#4785FF"/>
<path d="M289.527 7.3314C289.266 7.0858 289.266 6.6876 289.527 6.442C289.787 6.1964 290.209 6.1964 290.47 6.442L302.47 17.7622C302.73 18.0078 302.73 18.406 302.47 18.6516C302.209 18.8972 301.787 18.8972 301.527 18.6516L289.527 7.3314Z" fill="#4785FF"/>
<path fill-rule="evenodd" clip-rule="evenodd" d="M296.665 9.08785C296.665 10.6508 298.008 11.9179 299.665 11.9179C301.322 11.9179 302.665 10.6508 302.665 9.08785C302.665 7.52486 301.322 6.2578 299.665 6.2578C298.008 6.2578 296.665 7.52486 296.665 9.08785ZM301.327 9.08785C301.327 9.95378 300.583 10.6557 299.665 10.6557C298.747 10.6557 298.003 9.95378 298.003 9.08785C298.003 8.22192 298.747 7.51996 299.665 7.51996C300.583 7.51996 301.327 8.22192 301.327 9.08785Z" fill="#4785FF"/>
<path fill-rule="evenodd" clip-rule="evenodd" d="M289.332 16.0057C289.332 17.5687 290.675 18.8358 292.332 18.8358C293.988 18.8358 295.332 17.5687 295.332 16.0057C295.332 14.4427 293.988 13.1757 292.332 13.1757C290.675 13.1757 289.332 14.4427 289.332 16.0057ZM293.994 16.0057C293.994 16.8717 293.249 17.5737 292.332 17.5737C291.414 17.5737 290.669 16.8717 290.669 16.0057C290.669 15.1398 291.414 14.4378 292.332 14.4378C293.249 14.4378 293.994 15.1398 293.994 16.0057Z" fill="#4785FF"/>
<path d="M172.823 45.0893C172.478 44.7638 172.478 44.2362 172.823 43.9107C173.168 43.5853 173.727 43.5853 174.072 43.9107L189.973 58.9108C190.318 59.2362 190.318 59.7638 189.973 60.0892C189.628 60.4147 189.068 60.4147 188.723 60.0892L172.823 45.0893Z" fill="#4785FF"/>
<path fill-rule="evenodd" clip-rule="evenodd" d="M182.281 47.4167C182.281 49.4877 184.061 51.1667 186.256 51.1667C188.452 51.1667 190.231 49.4877 190.231 47.4167C190.231 45.3456 188.452 43.6667 186.256 43.6667C184.061 43.6667 182.281 45.3456 182.281 47.4167ZM188.459 47.4167C188.459 48.5641 187.473 49.4942 186.256 49.4942C185.04 49.4942 184.054 48.5641 184.054 47.4167C184.054 46.2693 185.04 45.3391 186.256 45.3391C187.473 45.3391 188.459 46.2693 188.459 47.4167Z" fill="#4785FF"/>
<path fill-rule="evenodd" clip-rule="evenodd" d="M172.564 56.5833C172.564 58.6544 174.344 60.3333 176.539 60.3333C178.735 60.3333 180.514 58.6544 180.514 56.5833C180.514 54.5123 178.735 52.8333 176.539 52.8333C174.344 52.8333 172.564 54.5123 172.564 56.5833ZM178.741 56.5833C178.741 57.7308 177.755 58.6609 176.539 58.6609C175.323 58.6609 174.337 57.7308 174.337 56.5833C174.337 55.4359 175.323 54.5058 176.539 54.5058C177.755 54.5058 178.741 55.4359 178.741 56.5833Z" fill="#4785FF"/>
<path d="M98.5273 67.7845C98.267 67.5389 98.267 67.1407 98.5273 66.8951C98.7876 66.6495 99.2098 66.6495 99.4701 66.8951L111.47 78.2153C111.73 78.4609 111.73 78.8591 111.47 79.1047C111.21 79.3503 110.788 79.3503 110.527 79.1047L98.5273 67.7845Z" fill="#4785FF"/>
<path fill-rule="evenodd" clip-rule="evenodd" d="M105.665 69.541C105.665 71.104 107.009 72.371 108.665 72.371C110.322 72.371 111.665 71.104 111.665 69.541C111.665 67.978 110.322 66.7109 108.665 66.7109C107.009 66.7109 105.665 67.978 105.665 69.541ZM110.327 69.541C110.327 70.4069 109.583 71.1089 108.665 71.1089C107.747 71.1089 107.003 70.4069 107.003 69.541C107.003 68.675 107.747 67.9731 108.665 67.9731C109.583 67.9731 110.327 68.675 110.327 69.541Z" fill="#4785FF"/>
<path fill-rule="evenodd" clip-rule="evenodd" d="M98.332 76.4589C98.332 78.0219 99.6752 79.2889 101.332 79.2889C102.989 79.2889 104.332 78.0219 104.332 76.4589C104.332 74.8959 102.989 73.6288 101.332 73.6288C99.6752 73.6288 98.332 74.8959 98.332 76.4589ZM102.994 76.4589C102.994 77.3248 102.25 78.0268 101.332 78.0268C100.414 78.0268 99.67 77.3248 99.67 76.4589C99.67 75.5929 100.414 74.891 101.332 74.891C102.25 74.891 102.994 75.5929 102.994 76.4589Z" fill="#4785FF"/>
<path d="M50.5273 61.7845C50.267 61.5389 50.267 61.1407 50.5273 60.8951C50.7876 60.6495 51.2098 60.6495 51.4701 60.8951L63.4701 72.2153C63.7304 72.4609 63.7304 72.8591 63.4701 73.1047C63.2098 73.3503 62.7876 73.3503 62.5273 73.1047L50.5273 61.7845Z" fill="#4785FF"/>
<path fill-rule="evenodd" clip-rule="evenodd" d="M57.6654 63.541C57.6654 65.104 59.0085 66.371 60.6654 66.371C62.3222 66.371 63.6654 65.104 63.6654 63.541C63.6654 61.978 62.3222 60.7109 60.6654 60.7109C59.0085 60.7109 57.6654 61.978 57.6654 63.541ZM62.3274 63.541C62.3274 64.4069 61.5833 65.1089 60.6654 65.1089C59.7474 65.1089 59.0033 64.4069 59.0033 63.541C59.0033 62.675 59.7474 61.9731 60.6654 61.9731C61.5833 61.9731 62.3274 62.675 62.3274 63.541Z" fill="#4785FF"/>
<path fill-rule="evenodd" clip-rule="evenodd" d="M50.332 70.4589C50.332 72.0219 51.6752 73.2889 53.332 73.2889C54.9889 73.2889 56.332 72.0219 56.332 70.4589C56.332 68.8959 54.9889 67.6288 53.332 67.6288C51.6752 67.6288 50.332 68.8959 50.332 70.4589ZM54.9941 70.4589C54.9941 71.3248 54.25 72.0268 53.332 72.0268C52.4141 72.0268 51.67 71.3248 51.67 70.4589C51.67 69.5929 52.4141 68.891 53.332 68.891C54.25 68.891 54.9941 69.5929 54.9941 70.4589Z" fill="#4785FF"/>
<path d="M0.5273 62.7845C0.266967 62.5389 0.266967 62.1407 0.5273 61.8951C0.787633 61.6495 1.20977 61.6495 1.4701 61.8951L13.4701 73.2153C13.7305 73.4609 13.7305 73.8591 13.4701 74.1047C13.2098 74.3503 12.7876 74.3503 12.5273 74.1047L0.5273 62.7845Z" fill="#4785FF"/>
<path fill-rule="evenodd" clip-rule="evenodd" d="M7.66536 64.541C7.66536 66.104 9.00851 67.371 10.6654 67.371C12.3222 67.371 13.6654 66.104 13.6654 64.541C13.6654 62.978 12.3222 61.7109 10.6654 61.7109C9.00851 61.7109 7.66536 62.978 7.66536 64.541ZM12.3274 64.541C12.3274 65.4069 11.5833 66.1089 10.6654 66.1089C9.74744 66.1089 9.00332 65.4069 9.00332 64.541C9.00332 63.675 9.74744 62.9731 10.6654 62.9731C11.5833 62.9731 12.3274 63.675 12.3274 64.541Z" fill="#4785FF"/>
<path fill-rule="evenodd" clip-rule="evenodd" d="M0.332031 71.4589C0.332031 73.0219 1.67516 74.2889 3.33203 74.2889C4.9889 74.2889 6.33203 73.0219 6.33203 71.4589C6.33203 69.8959 4.9889 68.6288 3.33203 68.6288C1.67516 68.6288 0.332031 69.8959 0.332031 71.4589ZM4.9941 71.4589C4.9941 72.3248 4.24996 73.0268 3.33203 73.0268C2.4141 73.0268 1.66997 72.3248 1.66997 71.4589C1.66997 70.5929 2.4141 69.891 3.33203 69.891C4.24996 69.891 4.9941 70.5929 4.9941 71.4589Z" fill="#4785FF"/>
<path d="M64.5271 9.3314C64.2667 9.0858 64.2667 8.6876 64.5271 8.442C64.7874 8.1964 65.2095 8.1964 65.4699 8.442L77.4699 19.7622C77.7302 20.0078 77.7302 20.406 77.4699 20.6516C77.2095 20.8972 76.7874 20.8972 76.527 20.6516L64.5271 9.3314Z" fill="#4785FF"/>
<path fill-rule="evenodd" clip-rule="evenodd" d="M71.6651 11.0878C71.6651 12.6508 73.0083 13.9179 74.6651 13.9179C76.322 13.9179 77.6651 12.6508 77.6651 11.0878C77.6651 9.52486 76.322 8.2578 74.6651 8.2578C73.0083 8.2578 71.6651 9.52486 71.6651 11.0878ZM76.3272 11.0878C76.3272 11.9538 75.583 12.6557 74.6651 12.6557C73.7472 12.6557 73.0031 11.9538 73.0031 11.0878C73.0031 10.2219 73.7472 9.51996 74.6651 9.51996C75.583 9.51996 76.3272 10.2219 76.3272 11.0878Z" fill="#4785FF"/>
<path fill-rule="evenodd" clip-rule="evenodd" d="M64.3318 18.0057C64.3318 19.5687 65.6749 20.8358 67.3318 20.8358C68.9887 20.8358 70.3318 19.5687 70.3318 18.0057C70.3318 16.4427 68.9887 15.1757 67.3318 15.1757C65.6749 15.1757 64.3318 16.4427 64.3318 18.0057ZM68.9939 18.0057C68.9939 18.8717 68.2497 19.5737 67.3318 19.5737C66.4139 19.5737 65.6697 18.8717 65.6697 18.0057C65.6697 17.1398 66.4139 16.4378 67.3318 16.4378C68.2497 16.4378 68.9939 17.1398 68.9939 18.0057Z" fill="#4785FF"/>
<path fill-rule="evenodd" clip-rule="evenodd" d="M335.34 71.75C335.34 77.9632 340.679 83 347.265 83C353.852 83 359.191 77.9632 359.191 71.75C359.191 65.5368 353.852 60.5 347.265 60.5C340.679 60.5 335.34 65.5368 335.34 71.75ZM353.872 71.75C353.872 75.1923 350.914 77.9827 347.265 77.9827C343.616 77.9827 340.658 75.1923 340.658 71.75C340.658 68.3077 343.616 65.5173 347.265 65.5173C350.914 65.5173 353.872 68.3077 353.872 71.75Z" fill="#4785FF"/>
<path fill-rule="evenodd" clip-rule="evenodd" d="M165.009 70.8333C165.009 74.9755 168.569 78.3333 172.96 78.3333C177.351 78.3333 180.91 74.9755 180.91 70.8333C180.91 66.6912 177.351 63.3333 172.96 63.3333C168.569 63.3333 165.009 66.6912 165.009 70.8333ZM177.364 70.8333C177.364 73.1282 175.392 74.9884 172.96 74.9884C170.527 74.9884 168.555 73.1282 168.555 70.8333C168.555 68.5385 170.527 66.6782 172.96 66.6782C175.392 66.6782 177.364 68.5385 177.364 70.8333Z" fill="#4785FF"/>
<path fill-rule="evenodd" clip-rule="evenodd" d="M145.575 89.1667C145.575 93.3088 149.134 96.6667 153.525 96.6667C157.916 96.6667 161.476 93.3088 161.476 89.1667C161.476 85.0245 157.916 81.6667 153.525 81.6667C149.134 81.6667 145.575 85.0245 145.575 89.1667ZM157.93 89.1667C157.93 91.4615 155.958 93.3218 153.525 93.3218C151.093 93.3218 149.121 91.4615 149.121 89.1667C149.121 86.8718 151.093 85.0115 153.525 85.0115C155.958 85.0115 157.93 86.8718 157.93 89.1667Z" fill="#4785FF"/>
</svg>
