<svg width="460" height="218" viewBox="0 0 460 218" fill="none" xmlns="http://www.w3.org/2000/svg">
<rect width="584" height="300" rx="20" fill="#DBE0E4"/>
<rect x="10" y="10" width="130" height="280" rx="10" fill="#F5F6F7"/>
<rect x="16" y="16" width="18" height="10" rx="4" fill="#1C64F2"/>
<rect x="124" y="16" width="10" height="10" rx="2" fill="#1C64F2"/>
<rect x="16.25" y="36.25" width="9.5" height="9.5" rx="1.75" fill="#1C64F2"/>
<rect x="16.25" y="36.25" width="9.5" height="9.5" rx="1.75" stroke="#CDD5DA" stroke-width="0.5"/>
<rect x="32.25" y="36.25" width="9.5" height="9.5" rx="1.75" fill="#DBE0E4"/>
<rect x="32.25" y="36.25" width="9.5" height="9.5" rx="1.75" stroke="#CDD5DA" stroke-width="0.5"/>
<rect x="48.25" y="36.25" width="9.5" height="9.5" rx="1.75" stroke="#CDD5DA" stroke-width="0.5"/>
<path d="M16 56H134" stroke="#CDD5DA" stroke-linecap="round"/>
<rect x="16" y="66" width="118" height="10" rx="2" fill="#CDD5DA"/>
<rect x="16" y="82" width="118" height="10" rx="2" fill="#DBE0E4"/>
<rect x="16" y="98" width="118" height="10" rx="2" fill="#DBE0E4"/>
<rect x="16" y="114" width="118" height="10" rx="2" fill="#DBE0E4"/>
<rect x="16" y="130" width="118" height="10" rx="2" fill="#DBE0E4"/>
<rect x="150" y="10" width="424" height="280" rx="10" fill="#F5F6F7"/>
<rect x="308" y="20" width="108" height="16" rx="4" fill="#DBE0E4"/>
<rect x="312" y="24" width="100" height="8" rx="2" fill="#CDD5DA"/>
<path d="M382 66C382 60.4772 386.477 56 392 56H554C559.523 56 564 60.4772 564 66V84H392C386.477 84 382 79.5228 382 74V66Z" fill="#4785FF" fill-opacity="0.2"/>
<rect x="398" y="66" width="150" height="8" rx="2" fill="#0E0C15"/>
<rect x="168.5" y="97.5" width="199" height="9" rx="1.5" fill="#0E0C15"/>
<rect x="168.5" y="97.5" width="199" height="9" rx="1.5" stroke="#0E0C15"/>
<rect x="168.5" y="117.5" width="159" height="9" rx="1.5" fill="#0E0C15"/>
<rect x="168.5" y="117.5" width="159" height="9" rx="1.5" stroke="#0E0C15"/>
<path d="M382 150C382 144.477 386.477 140 392 140H554C559.523 140 564 144.477 564 150V168H392C386.477 168 382 163.523 382 158V150Z" fill="#4785FF" fill-opacity="0.2"/>
<rect x="398" y="150" width="150" height="8" rx="2" fill="#0E0C15"/>
<rect x="168.5" y="181.5" width="199" height="9" rx="1.5" fill="#0E0C15"/>
<rect x="168.5" y="181.5" width="199" height="9" rx="1.5" stroke="#0E0C15"/>
<rect x="168.5" y="201.5" width="159" height="9" rx="1.5" fill="#0E0C15"/>
<rect x="168.5" y="201.5" width="159" height="9" rx="1.5" stroke="#0E0C15"/>
</svg>
