<svg width="90" height="118" viewBox="0 0 90 118" fill="none" xmlns="http://www.w3.org/2000/svg">
<path d="M61.1276 58.4489C59.4028 56.8217 59.4028 54.1835 61.1276 52.5563C62.8524 50.9291 65.6491 50.9291 67.3739 52.5563L146.878 127.556C148.603 129.183 148.603 131.822 146.878 133.449C145.153 135.076 142.356 135.076 140.631 133.449L61.1276 58.4489Z" fill="#4785FF"/>
<path fill-rule="evenodd" clip-rule="evenodd" d="M108.42 70.0859C108.42 80.4413 117.318 88.8359 128.296 88.8359C139.273 88.8359 148.172 80.4413 148.172 70.0859C148.172 59.7306 139.273 51.3359 128.296 51.3359C117.318 51.3359 108.42 59.7306 108.42 70.0859ZM139.307 70.0859C139.307 75.823 134.377 80.4737 128.296 80.4737C122.214 80.4737 117.284 75.823 117.284 70.0859C117.284 64.3489 122.214 59.6981 128.296 59.6981C134.377 59.6981 139.307 64.3489 139.307 70.0859Z" fill="#4785FF"/>
<path fill-rule="evenodd" clip-rule="evenodd" d="M59.8338 115.919C59.8338 126.275 68.7325 134.669 79.7098 134.669C90.6871 134.669 99.5858 126.275 99.5858 115.919C99.5858 105.564 90.6871 97.1693 79.7098 97.1693C68.7325 97.1693 59.8338 105.564 59.8338 115.919ZM90.7216 115.919C90.7216 121.656 85.7914 126.307 79.7098 126.307C73.6282 126.307 68.6981 121.656 68.6981 115.919C68.6981 110.182 73.6282 105.531 79.7098 105.531C85.7914 105.531 90.7216 110.182 90.7216 115.919Z" fill="#4785FF"/>
<path d="M1.05264 -13.8189C0.362726 -14.4698 0.362726 -15.525 1.05264 -16.1759C1.74256 -16.8268 2.86127 -16.8268 3.55119 -16.1759L35.3528 13.8241C36.0427 14.4749 36.0427 15.5303 35.3528 16.1811C34.6628 16.8319 33.5442 16.8319 32.8542 16.1811L1.05264 -13.8189Z" fill="#4785FF"/>
<path fill-rule="evenodd" clip-rule="evenodd" d="M19.9694 -9.16406C19.9694 -5.02193 23.529 -1.66406 27.9198 -1.66406C32.3107 -1.66406 35.8702 -5.02193 35.8702 -9.16406C35.8702 -13.3062 32.3107 -16.6641 27.9198 -16.6641C23.529 -16.6641 19.9694 -13.3062 19.9694 -9.16406ZM32.3245 -9.16406C32.3245 -6.86925 30.3525 -5.00895 27.9198 -5.00895C25.4872 -5.00895 23.5152 -6.86925 23.5152 -9.16406C23.5152 -11.4589 25.4872 -13.3192 27.9198 -13.3192C30.3525 -13.3192 32.3245 -11.4589 32.3245 -9.16406Z" fill="#4785FF"/>
<path fill-rule="evenodd" clip-rule="evenodd" d="M0.535156 9.16927C0.535156 13.3114 4.09464 16.6693 8.48555 16.6693C12.8765 16.6693 16.4359 13.3114 16.4359 9.16927C16.4359 5.02711 12.8765 1.66927 8.48555 1.66927C4.09464 1.66927 0.535156 5.02711 0.535156 9.16927ZM12.8902 9.16927C12.8902 11.4641 10.9182 13.3244 8.48555 13.3244C6.05291 13.3244 4.08086 11.4641 4.08086 9.16927C4.08086 6.87444 6.05291 5.0141 8.48555 5.0141C10.9182 5.0141 12.8902 6.87444 12.8902 9.16927Z" fill="#4785FF"/>
<path d="M16.0526 108.181C15.3627 107.53 15.3627 106.475 16.0526 105.824C16.7426 105.173 17.8613 105.173 18.5512 105.824L50.3528 135.824C51.0427 136.475 51.0427 137.53 50.3528 138.181C49.6628 138.832 48.5442 138.832 47.8542 138.181L16.0526 108.181Z" fill="#4785FF"/>
<path fill-rule="evenodd" clip-rule="evenodd" d="M34.9694 112.836C34.9694 116.978 38.529 120.336 42.9198 120.336C47.3107 120.336 50.8702 116.978 50.8702 112.836C50.8702 108.694 47.3107 105.336 42.9198 105.336C38.529 105.336 34.9694 108.694 34.9694 112.836ZM47.3245 112.836C47.3245 115.131 45.3525 116.991 42.9198 116.991C40.4872 116.991 38.5152 115.131 38.5152 112.836C38.5152 110.541 40.4872 108.681 42.9198 108.681C45.3525 108.681 47.3245 110.541 47.3245 112.836Z" fill="#4785FF"/>
<path fill-rule="evenodd" clip-rule="evenodd" d="M15.5352 131.169C15.5352 135.311 19.0946 138.669 23.4855 138.669C27.8765 138.669 31.4359 135.311 31.4359 131.169C31.4359 127.027 27.8765 123.669 23.4855 123.669C19.0946 123.669 15.5352 127.027 15.5352 131.169ZM27.8902 131.169C27.8902 133.464 25.9182 135.324 23.4855 135.324C21.0529 135.324 19.0809 133.464 19.0809 131.169C19.0809 128.874 21.0529 127.014 23.4855 127.014C25.9182 127.014 27.8902 128.874 27.8902 131.169Z" fill="#4785FF"/>
<path d="M75.0526 -13.8189C74.3627 -14.4698 74.3627 -15.525 75.0526 -16.1759C75.7426 -16.8268 76.8613 -16.8268 77.5512 -16.1759L109.353 13.8241C110.043 14.4749 110.043 15.5303 109.353 16.1811C108.663 16.8319 107.544 16.8319 106.854 16.1811L75.0526 -13.8189Z" fill="#4785FF"/>
<path fill-rule="evenodd" clip-rule="evenodd" d="M93.9694 -9.16406C93.9694 -5.02193 97.529 -1.66406 101.92 -1.66406C106.311 -1.66406 109.87 -5.02193 109.87 -9.16406C109.87 -13.3062 106.311 -16.6641 101.92 -16.6641C97.529 -16.6641 93.9694 -13.3062 93.9694 -9.16406ZM106.324 -9.16406C106.324 -6.86925 104.352 -5.00895 101.92 -5.00895C99.4872 -5.00895 97.5152 -6.86925 97.5152 -9.16406C97.5152 -11.4589 99.4872 -13.3192 101.92 -13.3192C104.352 -13.3192 106.324 -11.4589 106.324 -9.16406Z" fill="#4785FF"/>
<path fill-rule="evenodd" clip-rule="evenodd" d="M74.5352 9.16927C74.5352 13.3114 78.0946 16.6693 82.4855 16.6693C86.8765 16.6693 90.4359 13.3114 90.4359 9.16927C90.4359 5.02711 86.8765 1.66927 82.4855 1.66927C78.0946 1.66927 74.5352 5.02711 74.5352 9.16927ZM86.8902 9.16927C86.8902 11.4641 84.9182 13.3244 82.4855 13.3244C80.0529 13.3244 78.0808 11.4641 78.0808 9.16927C78.0808 6.87444 80.0529 5.0141 82.4855 5.0141C84.9182 5.0141 86.8902 6.87444 86.8902 9.16927Z" fill="#4785FF"/>
<path d="M43.0251 -1.90814C42.6801 -2.23358 42.6801 -2.76121 43.0251 -3.08665C43.37 -3.41209 43.9294 -3.41209 44.2743 -3.08665L60.1751 11.9134C60.5201 12.2388 60.5201 12.7664 60.1751 13.0919C59.8301 13.4173 59.2708 13.4173 58.9258 13.0919L43.0251 -1.90814Z" fill="#4785FF"/>
<path fill-rule="evenodd" clip-rule="evenodd" d="M52.4835 0.41927C52.4835 2.49034 54.2632 4.16927 56.4587 4.16927C58.6541 4.16927 60.4339 2.49034 60.4339 0.41927C60.4339 -1.6518 58.6541 -3.33073 56.4587 -3.33073C54.2632 -3.33073 52.4835 -1.6518 52.4835 0.41927ZM58.661 0.41927C58.661 1.56668 57.675 2.49683 56.4587 2.49683C55.2423 2.49683 54.2563 1.56668 54.2563 0.41927C54.2563 -0.728139 55.2423 -1.65829 56.4587 -1.65829C57.675 -1.65829 58.661 -0.728139 58.661 0.41927Z" fill="#4785FF"/>
<path fill-rule="evenodd" clip-rule="evenodd" d="M42.7663 9.58594C42.7663 11.657 44.5461 13.3359 46.7415 13.3359C48.937 13.3359 50.7167 11.657 50.7167 9.58594C50.7167 7.51485 48.937 5.83594 46.7415 5.83594C44.5461 5.83594 42.7663 7.51485 42.7663 9.58594ZM48.9439 9.58594C48.9439 10.7334 47.9578 11.6635 46.7415 11.6635C45.5252 11.6635 44.5392 10.7334 44.5392 9.58594C44.5392 8.43852 45.5252 7.50835 46.7415 7.50835C47.9578 7.50835 48.9439 8.43852 48.9439 9.58594Z" fill="#4785FF"/>
<path d="M77.0251 43.0919C76.6801 42.7664 76.6801 42.2388 77.0251 41.9133C77.37 41.5879 77.9294 41.5879 78.2743 41.9133L94.1751 56.9134C94.5201 57.2388 94.5201 57.7664 94.1751 58.0919C93.8301 58.4173 93.2708 58.4173 92.9258 58.0919L77.0251 43.0919Z" fill="#4785FF"/>
<path fill-rule="evenodd" clip-rule="evenodd" d="M86.4835 45.4193C86.4835 47.4903 88.2632 49.1693 90.4587 49.1693C92.6541 49.1693 94.4339 47.4903 94.4339 45.4193C94.4339 43.3482 92.6541 41.6693 90.4587 41.6693C88.2632 41.6693 86.4835 43.3482 86.4835 45.4193ZM92.661 45.4193C92.661 46.5667 91.675 47.4968 90.4587 47.4968C89.2423 47.4968 88.2563 46.5667 88.2563 45.4193C88.2563 44.2719 89.2423 43.3417 90.4587 43.3417C91.675 43.3417 92.661 44.2719 92.661 45.4193Z" fill="#4785FF"/>
<path fill-rule="evenodd" clip-rule="evenodd" d="M76.7663 54.5859C76.7663 56.657 78.5461 58.3359 80.7415 58.3359C82.937 58.3359 84.7167 56.657 84.7167 54.5859C84.7167 52.5149 82.937 50.8359 80.7415 50.8359C78.5461 50.8359 76.7663 52.5149 76.7663 54.5859ZM82.9439 54.5859C82.9439 55.7334 81.9578 56.6635 80.7415 56.6635C79.5252 56.6635 78.5392 55.7334 78.5392 54.5859C78.5392 53.4385 79.5252 52.5084 80.7415 52.5084C81.9578 52.5084 82.9439 53.4385 82.9439 54.5859Z" fill="#4785FF"/>
</svg>
